<svg width="20" height="20" viewBox="0 0 20 20" fill="none" xmlns="http://www.w3.org/2000/svg">
<path d="M9.55768 3.17025L9.99587 4.00158L10.4405 3.17368C11.6173 0.982365 13.8812 0.204301 15.8546 0.667067C17.8091 1.12539 19.5 2.80972 19.5 5.65991C19.5 7.61446 18.4277 9.63251 16.6073 11.9418C15.313 13.5838 13.6877 15.3177 11.8889 17.2366C11.2773 17.8891 10.6456 18.563 10 19.2619C9.35443 18.563 8.72272 17.8891 8.11108 17.2366C6.31232 15.3177 4.68705 13.5838 3.39267 11.9418C1.57227 9.63251 0.5 7.61446 0.5 5.65991C0.5 2.80771 2.19325 1.10099 4.1478 0.632463C6.11757 0.160288 8.37957 0.935164 9.55768 3.17025Z" stroke="#7F181B"/>
</svg>
