<svg width="20" height="20" viewBox="0 0 20 20" fill="none" xmlns="http://www.w3.org/2000/svg">
<path d="M13.9209 16.0053L14.0123 15.6287L13.6703 15.4463L9.58381 13.2668C9.69852 13.0771 9.80351 12.8808 9.89816 12.6787L13.9855 14.8587L14.327 15.0408L14.5889 14.7559C15.1099 14.1893 15.8451 13.8333 16.6667 13.8333C18.2314 13.8333 19.5 15.102 19.5 16.6667C19.5 18.2314 18.2314 19.5 16.6667 19.5C15.102 19.5 13.8333 18.2314 13.8333 16.6667C13.8333 16.4473 13.8665 16.2299 13.9209 16.0053ZM13.6703 4.55367L14.0123 4.37129L13.9209 3.99465C13.8665 3.77013 13.8333 3.55273 13.8333 3.33333C13.8333 1.76864 15.102 0.5 16.6667 0.5C18.2314 0.5 19.5 1.76864 19.5 3.33333C19.5 4.89802 18.2314 6.16667 16.6667 6.16667C15.8451 6.16667 15.1099 5.81073 14.5889 5.24407L14.327 4.95922L13.9855 5.14133L9.89844 7.32116C9.80388 7.119 9.69896 6.92276 9.58417 6.73299L13.6703 4.55367ZM4.16667 6.33333C6.19136 6.33333 7.83333 7.97531 7.83333 10C7.83333 12.0247 6.19136 13.6667 4.16667 13.6667C2.14198 13.6667 0.5 12.0247 0.5 10C0.5 7.97531 2.14198 6.33333 4.16667 6.33333Z" stroke="#7F181B"/>
</svg>
