<svg xmlns="http://www.w3.org/2000/svg" width="53.323" height="40" viewBox="0 0 53.323 40">
  <defs><style>.a{fill:#fff;}</style></defs>
  <path class="a" fill="currentColor" d="M52.976,13.333c0-4.687-3.448-8.458-7.708-8.458C39.5,4.6,33.613,4.5,27.6,4.5H25.728c-6,0-11.9.1-17.666.375-4.25,0-7.7,3.791-7.7,8.479C.1,17.062-.01,20.77,0,24.478Q-.015,30.04.354,35.613C.354,40.3,3.8,44.1,8.052,44.1c6.062.281,12.281.406,18.6.4q9.5.031,18.6-.4c4.26,0,7.708-3.8,7.708-8.489.25-3.719.365-7.427.354-11.145Q53.351,18.905,52.976,13.333ZM21.562,34.7V14.229l15.1,10.229Z" transform="translate(0 -4.5)"/>
</svg>
