<svg width="32" height="32" viewBox="0 0 32 32" fill="none" xmlns="http://www.w3.org/2000/svg">
<path d="M15.9909 32C7.16147 32 0 24.8385 0 15.9909C0 7.16147 7.16147 0 15.9909 0C24.8204 0 31.9819 7.16147 31.9819 15.9909C32 24.8385 24.8385 32 15.9909 32Z" fill="#E09800"/>
<path d="M16.0706 24.1413C20.5279 24.1413 24.1413 20.5279 24.1413 16.0706C24.1413 11.6133 20.5279 8 16.0706 8C11.6133 8 8 11.6133 8 16.0706C8 20.5279 11.6133 24.1413 16.0706 24.1413Z" stroke="white" stroke-width="1.2" stroke-miterlimit="10"/>
<path d="M16.1147 10.9248V18.0498" stroke="white" stroke-width="1.2" stroke-miterlimit="10"/>
<path d="M16.0927 20.7987C16.3842 20.7987 16.6205 20.5624 16.6205 20.2709C16.6205 19.9795 16.3842 19.7432 16.0927 19.7432C15.8012 19.7432 15.5649 19.9795 15.5649 20.2709C15.5649 20.5624 15.8012 20.7987 16.0927 20.7987Z" fill="white" stroke="white" stroke-width="1.2" stroke-miterlimit="10"/>
</svg>
