<svg width="60" height="60" viewBox="0 0 60 60" fill="none" xmlns="http://www.w3.org/2000/svg">
<path d="M29.983 60C13.4278 60 0 46.5722 0 29.983C0 13.4278 13.4278 0 29.983 0C46.5382 0 59.966 13.4278 59.966 29.983C60 46.5722 46.5722 60 29.983 60Z" fill="#E09800"/>
<path d="M30.1322 45.265C38.4896 45.265 45.2646 38.49 45.2646 30.1326C45.2646 21.7752 38.4896 15.0001 30.1322 15.0001C21.7748 15.0001 14.9998 21.7752 14.9998 30.1326C14.9998 38.49 21.7748 45.265 30.1322 45.265Z" stroke="white" stroke-width="2.5" stroke-miterlimit="10"/>
<path d="M30.2146 20.4841V33.8436" stroke="white" stroke-width="2.5" stroke-miterlimit="10"/>
<path d="M30.1734 38.9977C30.72 38.9977 31.163 38.5547 31.163 38.0081C31.163 37.4616 30.72 37.0186 30.1734 37.0186C29.6269 37.0186 29.1838 37.4616 29.1838 38.0081C29.1838 38.5547 29.6269 38.9977 30.1734 38.9977Z" fill="white" stroke="white" stroke-width="2.5" stroke-miterlimit="10"/>
</svg>
