<svg width="12" height="15" viewBox="0 0 12 15" fill="none" xmlns="http://www.w3.org/2000/svg">
<path d="M5.46739 11.9065C5.53872 11.9755 5.62283 12.0296 5.71489 12.0657C5.80467 12.1058 5.90174 12.1265 5.99989 12.1265C6.09805 12.1265 6.19512 12.1058 6.28489 12.0657C6.37696 12.0296 6.46107 11.9755 6.53239 11.9065L9.90739 8.496C9.97732 8.42534 10.0328 8.34144 10.0706 8.24912C10.1085 8.15679 10.128 8.05783 10.128 7.9579C10.128 7.85796 10.1085 7.759 10.0706 7.66667C10.0328 7.57435 9.97732 7.49046 9.90739 7.41979C9.83746 7.34913 9.75445 7.29307 9.66308 7.25483C9.57171 7.21658 9.47379 7.1969 9.37489 7.1969C9.276 7.1969 9.17807 7.21658 9.08671 7.25483C8.99534 7.29307 8.91232 7.34913 8.84239 7.41979L6.74989 9.5419V1.75789C6.74989 1.55689 6.67088 1.36412 6.53022 1.22198C6.38957 1.07985 6.19881 1 5.99989 1C5.80098 1 5.61022 1.07985 5.46956 1.22198C5.32891 1.36412 5.24989 1.55689 5.24989 1.75789V9.5419L3.15739 7.41979C3.01617 7.27708 2.82462 7.1969 2.62489 7.1969C2.42517 7.1969 2.23362 7.27708 2.09239 7.41979C1.95117 7.5625 1.87183 7.75607 1.87183 7.9579C1.87183 8.05783 1.89131 8.15679 1.92915 8.24912C1.967 8.34144 2.02247 8.42534 2.09239 8.496L5.46739 11.9065Z" fill="#001A58"/>
<path d="M11.25 12.8842H0.75C0.551088 12.8842 0.360322 12.964 0.21967 13.1061C0.0790178 13.2483 0 13.441 0 13.642C0 13.8431 0.0790178 14.0358 0.21967 14.178C0.360322 14.3201 0.551088 14.3999 0.75 14.3999H11.25C11.4489 14.3999 11.6397 14.3201 11.7803 14.178C11.921 14.0358 12 13.8431 12 13.642C12 13.441 11.921 13.2483 11.7803 13.1061C11.6397 12.964 11.4489 12.8842 11.25 12.8842Z" fill="#001A58"/>
</svg>
