<svg width="14" height="14" viewBox="0 0 14 14" fill="none" xmlns="http://www.w3.org/2000/svg">
<path fill-rule="evenodd" clip-rule="evenodd" d="M2.33333 3.75C2.17862 3.75 2.03025 3.81146 1.92085 3.92085C1.81146 4.03025 1.75 4.17862 1.75 4.33333V11.6667C1.75 11.8214 1.81146 11.9697 1.92085 12.0791C2.03025 12.1885 2.17862 12.25 2.33333 12.25H9.66667C9.82138 12.25 9.96975 12.1885 10.0791 12.0791C10.1885 11.9697 10.25 11.8214 10.25 11.6667V7.66667C10.25 7.25245 10.5858 6.91667 11 6.91667C11.4142 6.91667 11.75 7.25245 11.75 7.66667V11.6667C11.75 12.2192 11.5305 12.7491 11.1398 13.1398C10.7491 13.5305 10.2192 13.75 9.66667 13.75H2.33333C1.7808 13.75 1.25089 13.5305 0.860194 13.1398C0.469493 12.7491 0.25 12.2192 0.25 11.6667V4.33333C0.25 3.7808 0.469493 3.2509 0.860194 2.86019C1.2509 2.46949 1.7808 2.25 2.33333 2.25H6.33333C6.74755 2.25 7.08333 2.58579 7.08333 3C7.08333 3.41421 6.74755 3.75 6.33333 3.75H2.33333Z" fill="#001A58"/>
<path fill-rule="evenodd" clip-rule="evenodd" d="M8.24976 1C8.24976 0.585786 8.58554 0.25 8.99976 0.25H12.9998C13.414 0.25 13.7498 0.585786 13.7498 1V5C13.7498 5.41421 13.414 5.75 12.9998 5.75C12.5855 5.75 12.2498 5.41421 12.2498 5V1.75H8.99976C8.58554 1.75 8.24976 1.41421 8.24976 1Z" fill="#001A58"/>
<path fill-rule="evenodd" clip-rule="evenodd" d="M13.5304 0.46967C13.8233 0.762563 13.8233 1.23744 13.5304 1.53033L6.19708 8.86366C5.90418 9.15656 5.42931 9.15656 5.13642 8.86366C4.84352 8.57077 4.84352 8.0959 5.13642 7.803L12.4698 0.46967C12.7626 0.176777 13.2375 0.176777 13.5304 0.46967Z" fill="#001A58"/>
</svg>
