<svg width="110" height="99" viewBox="0 0 110 99" fill="none" xmlns="http://www.w3.org/2000/svg">
<g clip-path="url(#clip0)">
<path d="M53.1285 51.5592C53.1006 46.9971 53.1673 41.7443 52.8703 37.2064C55.9848 38.4531 59.2635 37.9603 59.2503 33.8646C59.2467 32.6913 58.1731 21.0885 57.5314 20.7211C57.3943 20.6433 57.1332 20.6096 56.7981 20.6118C57.043 19.8007 56.2847 15.7234 54.909 14.6168C54.9002 14.6102 53.8589 13.8431 53.0691 13.4611L53.0045 13.431L53.2128 11.7443C53.2205 11.6749 53.2006 11.6052 53.1573 11.5504C53.1141 11.4955 53.0511 11.4598 52.9818 11.451C52.9125 11.4433 52.8429 11.4631 52.7881 11.5062C52.7332 11.5492 52.6975 11.6121 52.6885 11.6813L52.4941 13.2631C52.399 13.245 52.3005 13.2582 52.2136 13.3008C52.1266 13.3434 52.0557 13.413 52.0116 13.4992C51.8987 13.6899 52.1531 13.9282 52.3907 14.1005L52.3805 14.1841C52.0952 14.0646 51.9192 14.1365 51.8415 14.2963C51.5687 14.036 51.3069 13.8967 51.0707 14.0697C50.3733 14.3506 51.7476 16.0153 51.6273 17.4123C51.6112 17.6051 51.7095 17.9564 51.8679 18.3546L51.6325 20.2657C51.6246 20.3351 51.6444 20.4049 51.6877 20.4598C51.7309 20.5147 51.7941 20.5504 51.8635 20.559V20.559C51.9329 20.5667 52.0025 20.5467 52.0574 20.5035C52.1123 20.4603 52.148 20.3973 52.1568 20.328L52.2866 19.261C52.6217 19.8909 53.0053 20.4417 53.2399 20.5113V20.4864C53.27 21.3055 53.2773 21.3371 53.7217 21.1816H53.7269C53.1761 21.3796 52.7735 21.6091 52.7222 21.8416C52.7178 21.8607 52.7339 23.6302 52.7273 24.816C52.7273 24.8695 52.7273 24.9627 52.7273 25.0947C52.7273 25.4665 52.7171 25.7459 52.7053 25.8339L51.5863 27.4384C51.1228 27.2074 50.4797 26.9412 49.9627 26.7278C49.6886 26.583 49.4043 26.4584 49.112 26.3553V26.3553C48.0333 25.949 46.3627 25.4452 45.1747 25.0353C45.163 25.0316 44.9731 25.0279 44.6687 25.0257C44.4627 24.0049 44.2786 23.0567 44.2786 22.891C44.2786 22.8221 47.1782 22.7942 47.1437 20.9946C47.0836 17.8413 46.0965 15.4594 44.8667 14.1555C46.3781 13.6855 46.7147 11.5801 45.1601 10.6304C44.5829 10.2777 43.7455 10.3752 42.9865 10.6363L43.6193 9.99385C42.9725 9.94912 42.2531 10.5717 41.8051 11.1899C41.0402 11.5647 39.6447 11.8631 38.6217 12.6309C37.6933 13.3217 37.5466 14.7107 37.8663 15.7865C37.8979 15.8928 37.9448 16.0717 38.0042 16.2954C37.4175 16.6371 37.4249 16.9686 37.7343 17.7562C38.1391 18.7829 38.6583 20.4307 38.8343 20.6895C38.8452 20.7137 38.8587 20.7365 38.8747 20.7577C38.6077 20.5458 38.2675 20.3214 38.1479 20.4439C37.6617 20.9418 38.0511 21.6333 38.5513 22.4759C38.9341 23.1198 39.4195 23.7607 39.3748 25.0705C36.6541 26.0033 33.8015 27.4905 33.3923 28.5861C32.9031 30.4436 34.5399 53.2913 34.5399 53.2913H34.7643C35.0929 57.3445 35.538 65.3767 35.9912 73.0745C36.5632 82.7999 37.1469 91.9901 37.5217 91.9417C37.6529 91.9248 37.9499 91.9197 38.3386 91.9182C38.3716 92.3633 38.4119 92.9449 38.4559 93.4626C38.1399 93.456 37.8861 93.4516 37.7329 93.4516C37.6456 93.9532 37.6991 95.1141 37.6397 96.0366C37.4197 99.4701 37.4469 99.2963 37.6089 99.2427C37.8341 99.1694 38.9979 99.1958 39.3073 99.1782C40.1558 99.1313 40.0003 97.3119 40.9265 99.2105C41.0644 99.4921 48.9125 99.7971 49.6532 99.4884C49.8989 99.3865 50.0316 99.2728 50.08 99.1547C52.6511 99.1716 57.3459 98.9501 57.9267 98.6913C57.9267 98.6913 57.6861 97.2576 56.0552 97.1923C52.8938 97.0655 50.5552 95.9853 49.4706 92.653L49.53 92.8349C49.3833 92.9082 49.0959 92.9683 48.7233 93.0094C48.7739 92.5195 48.8392 91.9307 48.8869 91.4115L49.5469 91.3763L51.9669 60.7618L53.1285 51.5592ZM44.0469 66.5419C44.0513 66.4877 44.0557 66.44 44.0601 66.3953V66.3843C44.0601 66.3637 44.0645 66.3447 44.0659 66.3271C44.0659 66.3102 44.0696 66.2955 44.0718 66.2816V66.2728C44.0718 66.2596 44.0718 66.2471 44.0769 66.2369C44.0769 66.2266 44.0769 66.2185 44.0813 66.2119C44.0857 66.2053 44.0813 66.2075 44.0813 66.2061L44.085 66.1899C44.0854 66.186 44.0854 66.1821 44.085 66.1782C44.0853 66.176 44.0853 66.1738 44.085 66.1716C44.085 66.1672 44.085 66.1628 44.0887 66.1569V66.1452C44.0887 66.1393 44.0887 66.1335 44.0887 66.1269C44.0887 66.1203 44.0887 66.1173 44.0887 66.1122L44.0931 66.0887L44.0975 66.0697L44.1019 66.0425L44.1063 66.0198C44.1063 66.0095 44.1107 65.9985 44.1121 65.9875C44.1136 65.9765 44.1121 65.9714 44.1173 65.9626C44.1224 65.9538 44.1173 65.9391 44.1231 65.9267C44.129 65.9142 44.1268 65.9069 44.129 65.8959C44.1312 65.8849 44.1341 65.8695 44.1363 65.8555C44.1385 65.8416 44.1363 65.8372 44.1415 65.8277C44.1466 65.8181 44.1466 65.7954 44.1495 65.7793C44.1525 65.7631 44.1539 65.7573 44.1554 65.7455C44.1569 65.7338 44.1627 65.7067 44.1664 65.6861V65.6649C44.1767 65.6055 44.1877 65.5424 44.1987 65.4757L44.2053 65.4383L44.2163 65.373L44.2236 65.3319C44.2236 65.3092 44.2309 65.2872 44.2353 65.2645L44.2412 65.2285C44.2456 65.2007 44.2507 65.1728 44.2559 65.1442L44.2603 65.1156C44.2647 65.0892 44.2698 65.0621 44.2742 65.0342L44.283 64.9836C44.2867 64.9601 44.2911 64.9359 44.2947 64.9103C44.2984 64.8846 44.3006 64.878 44.3028 64.8619L44.316 64.7827L44.3248 64.7328L44.338 64.6543L44.3666 64.6067L44.382 64.5128C44.382 64.5011 44.3864 64.4893 44.3879 64.4783L44.4011 64.3991C44.4231 64.2679 44.4458 64.1329 44.4685 63.9958C44.4737 63.9665 44.4781 63.9379 44.4832 63.9093L44.4905 63.8638L44.5052 63.7751L44.5177 63.7017L44.5301 63.6247C44.536 63.5925 44.5411 63.5609 44.5463 63.5287C44.5463 63.5184 44.5463 63.5089 44.5514 63.4986C44.5565 63.4656 44.5624 63.4326 44.5675 63.3996C44.5675 63.3791 44.5749 63.3585 44.5778 63.3373L44.591 63.2595L44.6042 63.1811C44.6086 63.1503 44.6137 63.1202 44.6189 63.0894V63.0777L44.6387 62.9581C44.6431 62.9303 44.6475 62.9024 44.6526 62.8738L44.6607 62.8225L44.6731 62.7491C44.6731 62.7293 44.6805 62.7088 44.6834 62.6883L44.0359 66.6424C44.0359 66.6123 44.041 66.5837 44.0432 66.5559L44.0469 66.5419ZM44.5602 96.0219C43.8195 95.4353 43.2629 94.5853 42.9315 93.1084L42.9725 93.2932C42.7848 93.3885 42.281 93.4399 41.6525 93.4655C41.6679 92.9823 41.6907 92.3905 41.7024 91.8625C42.3081 91.8185 42.7349 91.7415 42.7489 91.6051C42.8061 91.0345 43.2343 81.7645 43.5951 74.5829C43.6039 74.4011 43.6135 74.2163 43.6223 74.041L43.6267 73.9581L43.6377 73.7337C43.6377 73.7 43.6377 73.6663 43.6428 73.6325C43.6465 73.5687 43.6494 73.5057 43.6523 73.4426C43.6523 73.4191 43.6523 73.3957 43.656 73.3693C43.6604 73.2827 43.6648 73.1969 43.6692 73.1119V73.0994C43.6736 73.0092 43.678 72.9197 43.6831 72.831V72.8112L43.6941 72.5912C43.6941 72.5604 43.6941 72.5296 43.6993 72.4988C43.6993 72.4255 43.7066 72.3573 43.7103 72.2876C43.7103 72.2685 43.7103 72.2502 43.7103 72.2319C43.7139 72.1585 43.7176 72.0808 43.722 72.006V71.9767L43.7352 71.7222V71.7024C43.7396 71.6225 43.7433 71.5425 43.7477 71.4633V71.4428C43.7565 71.2756 43.7645 71.1113 43.7733 70.95V70.9163C43.7865 70.6669 43.7992 70.4252 43.8115 70.191L44.3329 91.6469L45.5018 91.5853C45.5018 92.0392 45.5018 92.6215 45.5077 93.1253C45.0677 93.1311 44.7054 93.137 44.4854 93.1502C44.7919 93.9957 44.5639 95.0987 44.5631 96.019L44.5602 96.0219ZM56.7981 20.6118C56.6661 20.6118 56.5223 20.6191 56.3713 20.6309C56.512 20.6049 56.6556 20.5985 56.7981 20.6118ZM51.5753 27.4479L51.0905 28.1424C50.7906 27.5682 50.4459 27.1055 50.0499 26.7777C50.036 26.7681 50.0191 26.7579 50.0023 26.7476L51.5753 27.4479Z" fill="white"/>
<path d="M49.8226 10.186C50.1966 10.541 50.5948 10.7602 50.9461 10.9773L49.3196 9.80396C49.5425 9.97336 49.8014 10.1655 49.8226 10.186Z" fill="white"/>
<path d="M50.946 10.9773L51.4594 11.344C51.2997 11.2064 51.1279 11.0837 50.946 10.9773V10.9773Z" fill="white"/>
<path d="M49.3195 9.80535C49.1516 9.68068 49.0034 9.57361 48.991 9.56921L49.3195 9.80535Z" fill="white"/>
<path d="M48.9794 11.8324L48.3018 11.6652C48.524 11.7346 48.7503 11.7904 48.9794 11.8324V11.8324Z" fill="white"/>
<path d="M48.9795 11.8324L50.5569 12.2218C50.2254 12.0583 49.5508 11.9475 48.9795 11.8324Z" fill="white"/>
<path d="M49.1252 13.3005L49.8402 13.2272C49.6005 13.2347 49.3616 13.2592 49.1252 13.3005V13.3005Z" fill="white"/>
<path d="M49.1253 13.3005L48.4873 13.3629C48.7012 13.3568 48.9143 13.336 49.1253 13.3005V13.3005Z" fill="white"/>
<path d="M68.0952 85.4407C66.7143 87.4287 62.7991 92.0634 63.7561 95.634C63.8111 95.84 63.8506 96.0344 63.8807 96.2206C61.9645 96.0696 60.5287 94.0038 61.7049 89.3713C62.043 88.0389 64.119 85.7047 63.9408 85.6365C61.9418 84.8797 59.4961 88.7986 59.2314 90.0049C58.9146 91.4511 57.5917 96.4744 62.4126 98.5849C63.5925 99.0982 65.1399 99.0476 65.8864 98.8159C66.6141 98.8979 67.346 98.9378 68.0783 98.9354C71.5514 98.9692 79.024 98.7822 81.469 98.8988C82.0263 98.9252 83.1696 97.8721 81.9955 96.5939C81.5482 96.107 81.0627 95.8327 81.0627 95.8166C81.0627 95.0972 80.9894 94.5333 80.9564 93.2169C80.9058 91.0382 81.103 76.5373 81.0458 76.296C81.2328 76.1904 81.3392 76.0877 81.3612 76.0027C81.4675 75.5935 81.3076 74.4942 81.1705 74.5785C81.109 74.6158 81.0456 74.6499 80.9806 74.6805C81.1448 74.3673 81.0297 73.4705 81.6699 73.2446C82.9694 72.7863 84.2043 70.4807 83.2539 69.7488C81.158 68.1355 81.0994 69.3755 80.6872 66.8008C80.4313 65.197 80.7855 65.2329 80.0023 63.5866C79.4816 62.491 78.1477 66.3227 78.0392 66.8448C77.9717 67.1682 76.2542 67.1675 75.8634 67.1675C75.6294 66.2552 75.075 64.5128 74.9438 63.5741C74.7568 62.2387 72.6587 64.922 72.5604 68.1098C72.5157 69.5684 72.7804 74.0395 72.6726 74.3211L72.6968 74.3395L72.6528 74.3211C72.2275 74.1407 72.5692 75.5869 72.3346 76.0283C72.4171 76.0505 72.4981 76.0777 72.5773 76.1097C72.6602 78.2467 71.4267 80.6425 68.0952 85.4407ZM77.9578 76.9421C78.2555 76.925 78.5337 76.9005 78.7923 76.8687C78.5146 76.9074 78.2364 76.9318 77.9578 76.9421V76.9421Z" fill="white"/>
<path d="M38.4429 93.2601H38.462H38.594C38.5625 92.8575 38.5302 92.4278 38.5031 92.0634H38.2017C38.2244 92.3699 38.2515 92.7233 38.275 93.0746C38.2794 93.1347 38.2838 93.1941 38.2889 93.2528L38.4429 93.2601Z" fill="black"/>
<path d="M41.8117 93.2551C41.8117 93.1686 41.8175 93.0806 41.8205 92.9918C41.8337 92.6061 41.8439 92.2776 41.8513 91.9974L41.7009 92.0092L41.5499 92.0187C41.5411 92.3582 41.5293 92.7014 41.5198 92.9816C41.5198 93.0798 41.5132 93.1752 41.5103 93.2668L41.6613 93.2617L41.8117 93.2551Z" fill="black"/>
<path d="M45.3633 91.4466H45.3699C45.3765 91.2816 45.3853 91.0242 45.3948 90.6869C45.4564 88.5192 45.565 83.0566 45.5415 77.6299C45.507 69.9724 45.2328 65.0532 44.7444 63.2668L44.187 66.6732C44.1416 67.2598 44.0704 68.4405 43.9758 70.1976L44.4928 91.4928L45.3633 91.4466Z" fill="black"/>
<path d="M34.4021 53.4417H34.7783H34.9287C35.1949 56.771 35.5337 62.5988 35.8871 68.673C35.9715 70.1301 36.0573 71.6063 36.1438 73.0679C36.4841 78.8561 37.1859 90.783 37.5863 91.7869C37.7183 91.7774 37.9236 91.773 38.1788 91.7708H38.6239L38.5689 91.5677C38.5471 91.5736 38.527 91.5845 38.51 91.5995C38.4931 91.6145 38.4799 91.6332 38.4714 91.6542C38.4683 91.661 38.4661 91.6681 38.4648 91.6755C38.4673 91.6555 38.4685 91.6354 38.4685 91.6153C38.4685 91.5581 38.4685 91.4687 38.4685 91.3447C38.4685 91.2978 38.4685 91.2457 38.4641 91.1893C38.4597 91.1328 38.4641 91.0895 38.4589 91.0345C38.3856 88.8719 37.9661 81.6875 37.5606 74.7054C37.0238 65.4867 36.4709 55.9621 36.4173 53.405C36.4173 53.3522 36.4173 53.3016 36.4173 53.2583H36.5684H36.7151C36.7151 53.3045 36.7151 53.3544 36.7151 53.405C36.7356 54.4009 36.8361 56.5107 36.9805 59.235C37.7249 57.8527 39.27 54.3906 39.4005 53.328C39.4067 53.2794 39.4094 53.2304 39.4086 53.1813L39.5553 53.1762L39.7071 53.1703C39.7083 53.2208 39.7061 53.2713 39.7005 53.3214C39.5692 54.6113 37.5782 58.8749 37.0179 59.7747L37.0077 59.7916C37.2343 64.0134 37.5555 69.5501 37.8539 74.6937C38.1135 79.1516 38.3577 83.3624 38.5293 86.5091C38.621 88.1958 38.6841 89.4307 38.7222 90.2865C38.7339 90.5447 38.7427 90.7669 38.7493 90.9561C38.7493 91.0103 38.7493 91.0624 38.7545 91.1108C38.7596 91.1592 38.7581 91.2179 38.7596 91.2655C38.7596 91.2912 38.7596 91.3169 38.7596 91.3389C38.7647 91.5765 38.7677 91.7055 38.7427 91.7752H38.9261C39.6022 91.7752 40.7191 91.7752 41.5499 91.7283L41.701 91.7187L41.8477 91.707C42.2231 91.6762 42.5025 91.6337 42.5935 91.5677C42.6331 91.0947 42.8017 87.5937 42.9975 83.5545C43.1354 80.7026 43.2909 77.4679 43.4375 74.5822C43.5292 72.7599 43.6033 71.3269 43.6641 70.202L43.6165 68.2403L43.8827 66.616C43.8882 66.459 43.9068 66.3028 43.9384 66.1489C43.9692 66.0374 44.2317 64.4908 44.5111 62.7755L44.9511 60.0703L45.2481 60.1187C45.1616 60.6503 45.0003 61.6389 44.8309 62.6692C46.1751 65.4361 45.8216 85.8066 45.6837 90.6532C45.6837 90.7082 45.6837 90.7603 45.6793 90.8109C45.6749 90.8615 45.6793 90.9187 45.6749 90.9685C45.6683 91.1651 45.6632 91.3242 45.6588 91.4423L48.7388 91.2787L48.8913 91.2707L49.038 91.2626L49.3966 91.2435L51.8129 60.808L51.9501 60.9847L52.0865 61.16C55.3491 65.3173 59.7388 69.6931 62.5534 71.2309C63.5382 71.7684 64.3801 72.2524 65.1934 72.721C67.4608 74.0249 69.2516 75.0545 72.281 76.1633L72.4035 76.2087V76.2021L72.424 76.2095C72.4622 78.2115 71.3446 80.4885 67.9646 85.3549C67.7901 85.6049 67.5789 85.8939 67.334 86.2283C65.6194 88.5691 62.7492 92.4858 63.6035 95.6736C63.6534 95.8591 63.69 96.0351 63.7186 96.2023C61.8853 95.953 60.5536 93.8762 61.6976 89.3699C62.0356 88.0374 64.1117 85.7032 63.9335 85.635C61.9344 84.8782 59.4887 88.7971 59.224 90.0035C58.9072 91.4496 57.5843 96.4729 62.4052 98.5835C63.4062 99.0235 64.6697 99.0491 65.4852 98.9061C66.088 99.0176 66.9182 99.0726 68.068 99.0843C68.3702 99.0843 68.7002 99.0887 69.0544 99.0887C70.3971 99.0887 72.0794 99.0697 73.8386 99.0499C76.8827 99.0154 80.0309 98.9765 81.4528 99.0499C81.7836 99.0645 82.2874 98.7734 82.5213 98.2733C82.6746 97.9469 82.822 97.2811 82.0974 96.4927C81.8312 96.2087 81.5324 95.9572 81.2072 95.7433V95.7433C81.2072 95.4177 81.1881 95.1236 81.1668 94.7584C81.1434 94.3492 81.117 93.885 81.1008 93.2184C81.0744 92.0788 81.1162 87.505 81.1529 83.4702C81.1698 81.5811 81.1866 79.7962 81.1947 78.4762C81.1991 77.7693 81.2013 77.2515 81.2006 76.8937C81.2006 76.6443 81.2006 76.4852 81.1947 76.3803C81.3685 76.2681 81.4726 76.1537 81.5012 76.0445C81.5958 75.6778 81.5078 74.6255 81.2893 74.4641C81.2638 74.4449 81.2337 74.4328 81.202 74.4289C81.2094 74.3871 81.2167 74.3446 81.224 74.2999C81.2842 73.9332 81.3516 73.5181 81.7139 73.3905C82.6108 73.0737 83.5428 71.8806 83.7093 70.8371C83.7951 70.3017 83.6668 69.8837 83.3426 69.6337C82.861 69.2523 82.332 68.9348 81.7689 68.6891C81.1822 68.4244 81.0898 68.3841 80.8346 66.7825C80.7723 66.3963 80.7336 66.0066 80.7188 65.6157C80.6887 65.0137 80.6711 64.6507 80.1365 63.5272C80.0148 63.2705 79.8498 63.2339 79.7324 63.2478C78.9617 63.3402 77.9644 66.5111 77.8925 66.8081C77.8588 66.8426 77.6065 67.0142 75.9785 67.0223C75.9103 66.7656 75.8223 66.4554 75.7292 66.1291C75.485 65.2718 75.1814 64.2048 75.0912 63.5573C75.0281 63.1063 74.7656 63.0711 74.6556 63.0777C73.8672 63.1202 72.4871 65.571 72.4086 68.1091C72.3874 68.8094 72.435 70.1668 72.482 71.4824C72.5201 72.5663 72.5634 73.777 72.5428 74.1671C72.5079 74.1729 72.4746 74.1862 72.4453 74.206C72.2612 74.3299 72.2664 74.6614 72.273 75.1205C72.2852 75.3614 72.2749 75.603 72.2422 75.8421C69.3235 74.7619 67.5635 73.7499 65.3488 72.4739C64.5334 72.0053 63.69 71.5205 62.7015 70.9808C59.8503 69.4239 55.3733 64.9345 52.1224 60.7383L51.986 60.5601L51.8467 60.368L52.4333 52.8924L52.5851 52.8873L52.7362 52.8821L53.1388 52.8682L53.2855 52.8631V52.7164C53.2715 51.4118 53.2693 50.0595 53.2664 48.6273C53.2598 44.8932 53.2532 40.9559 53.0339 37.433C53.9587 37.7799 54.8629 37.961 55.6813 37.961C56.0311 37.9629 56.38 37.9265 56.7219 37.8525C58.4547 37.4645 59.4051 36.0485 59.3985 33.8639C59.3985 33.2911 59.1353 30.1459 58.7774 26.9749C58.0888 20.8677 57.7368 20.6683 57.6041 20.5905C57.4713 20.5128 57.2535 20.4761 56.9778 20.4651C57.0409 19.9078 56.8957 18.7851 56.6067 17.6873C56.3706 16.7889 55.8485 15.1793 55.0022 14.4995C54.9942 14.4929 53.9756 13.7397 53.1689 13.3415L53.3632 11.7641C53.3765 11.6548 53.3459 11.5446 53.2781 11.4578C53.2104 11.3709 53.111 11.3144 53.0017 11.3007V11.3007C52.8923 11.2874 52.7822 11.318 52.6953 11.3857C52.6084 11.4535 52.552 11.5529 52.5382 11.6622L52.36 13.1076C52.2599 13.1142 52.1632 13.1466 52.0793 13.2016C51.9954 13.2566 51.9272 13.3323 51.8811 13.4215C51.766 13.6158 51.8599 13.8116 52.019 13.9817C51.9458 13.9961 51.8774 14.029 51.8203 14.0771C51.5453 13.849 51.2688 13.7463 50.9945 13.9363C50.5142 14.146 50.7518 14.7598 51.0268 15.4697C51.2622 16.0783 51.5299 16.7691 51.4756 17.3983C51.458 17.6037 51.5533 17.9652 51.7117 18.3744L51.48 20.2459C51.4735 20.3004 51.4778 20.3557 51.4927 20.4086C51.5076 20.4614 51.5328 20.5108 51.5669 20.5539C51.601 20.597 51.6433 20.6329 51.6913 20.6596C51.7393 20.6862 51.7921 20.7032 51.8467 20.7093C51.8635 20.7104 51.8804 20.7104 51.8973 20.7093C51.9989 20.7092 52.097 20.6718 52.1729 20.6042C52.2488 20.5366 52.2974 20.4436 52.3094 20.3427L52.3827 19.7311C52.6306 20.1395 52.888 20.471 53.0956 20.6008C53.1088 20.933 53.1227 21.1244 53.1799 21.2417C52.8205 21.4199 52.6225 21.6033 52.5771 21.7983C52.5712 21.8225 52.5712 21.8225 52.5771 22.4759C52.5771 23.0729 52.5844 24.0555 52.5807 24.8043C52.5807 24.8607 52.5771 24.9583 52.5807 25.0873C52.5771 25.4503 52.5712 25.7217 52.5602 25.8053L52.5947 25.8097C52.6005 26.0685 52.6079 26.3633 52.6167 26.6809C52.6255 26.9984 52.635 27.3834 52.6438 27.7721C52.4244 27.6989 52.213 27.6033 52.0131 27.4868C51.5731 27.2206 50.6931 26.8554 50.0331 26.5833C49.4853 26.2724 48.1133 25.828 46.7837 25.3975C46.2227 25.2157 45.6925 25.0441 45.2269 24.8842C45.0833 24.8716 44.9391 24.8662 44.7949 24.8681C44.6351 24.0709 44.4862 23.3068 44.4444 23.001L44.5089 22.9929C45.2063 22.9013 47.3286 22.6226 47.2956 20.9829C47.2523 18.7095 46.7089 16.6129 45.7688 15.0869C45.5796 14.7765 45.3652 14.4822 45.1279 14.2069C45.4462 14.0669 45.7226 13.8463 45.9295 13.5668C46.1365 13.2874 46.2669 12.9587 46.3078 12.6133C46.4127 11.7649 46.0145 10.9751 45.2364 10.5013C44.5229 10.0613 43.4104 10.2549 42.4556 10.6817C42.345 10.7828 42.2404 10.8903 42.1425 11.0037C42.0559 11.1027 41.976 11.2053 41.9034 11.3065C41.8054 11.4434 41.7183 11.5878 41.6431 11.7385C41.3291 12.3959 40.8957 12.9892 40.3649 13.4882L40.3333 13.5329L40.0847 13.3635C40.1027 13.3333 40.1238 13.305 40.1478 13.2792C40.6581 12.804 41.0736 12.2364 41.3725 11.6065C41.3871 11.5771 41.4025 11.5463 41.4194 11.5163C41.4553 11.4473 41.4964 11.3769 41.5419 11.3058C41.5873 11.2347 41.6445 11.1496 41.7017 11.0704C41.4605 11.1855 41.1554 11.2948 40.8129 11.418C40.1075 11.6703 39.2289 11.9849 38.5293 12.5099C37.5181 13.2697 37.4022 14.7657 37.7227 15.8334C37.7491 15.9199 37.7857 16.0578 37.8312 16.2316C37.2753 16.5939 37.2695 16.9862 37.5958 17.8149C37.7667 18.2424 37.95 18.7733 38.1333 19.2867C38.2895 19.7311 38.4142 20.0838 38.5132 20.3397C38.3196 20.2495 38.1465 20.2312 38.0402 20.3434C37.4601 20.9374 37.9493 21.7609 38.4223 22.5566C38.4611 22.6226 38.5015 22.6886 38.5418 22.7553C38.8857 23.3193 39.2407 23.9015 39.2275 24.9671C36.6366 25.8669 33.6967 27.3511 33.2515 28.5377L33.2471 28.5523C32.7602 30.4106 34.3288 52.371 34.3963 53.3045L34.4021 53.4417ZM75.3867 96.9393C74.7729 96.3842 74.0095 95.6927 74.5749 94.3235C75.4014 92.3201 74.4194 89.2041 72.9843 87.5505C72.2172 86.6705 71.4025 86.2803 70.6912 86.4622L70.6178 86.1689C71.445 85.9569 72.3668 86.3771 73.2124 87.351C73.9706 88.2251 74.5954 89.4615 74.9254 90.7456C75.2848 92.1389 75.2591 93.4523 74.8521 94.4365C74.3674 95.6098 74.9878 96.1715 75.5854 96.7098C75.9822 97.0684 76.3569 97.4072 76.3188 97.889L76.0188 97.8655C76.0467 97.537 75.7431 97.2598 75.3867 96.9393ZM81.1353 74.7655C81.2086 75.0112 81.29 75.6683 81.2138 75.9601C81.2028 76.0034 81.1404 76.0643 81.026 76.1325L80.9857 76.1493C80.3663 76.4018 79.7199 76.5819 79.0592 76.6861C78.6801 76.7389 78.2526 76.78 77.7664 76.8005L77.6498 76.8049C76.1684 76.824 74.5492 76.5329 72.7672 75.9301C72.7545 75.8977 72.7314 75.8704 72.7016 75.8525C72.6717 75.8346 72.6368 75.827 72.6022 75.8311C72.583 75.832 72.564 75.8355 72.5458 75.8413C72.5767 75.5962 72.5863 75.3489 72.5744 75.1021C72.5744 74.8821 72.5663 74.5646 72.6074 74.4597L72.6213 74.4649C73.5746 75.1901 75.5693 75.5854 77.4488 75.5854C78.859 75.5854 80.2018 75.3654 80.982 74.8917C81.0239 74.8659 81.0595 74.8311 81.0862 74.7897L81.1353 74.7655ZM73.8753 67.694C73.8753 67.5591 73.9486 66.7209 74.0623 65.8995C74.2977 64.2055 74.4781 64.1733 74.6094 64.1498L74.6622 64.4431C74.6757 64.4408 74.6886 64.4353 74.6996 64.427C74.4678 64.6565 74.176 67.3083 74.176 67.6911L73.8753 67.694ZM79.1282 67.1367C79.1282 66.4422 79.3606 65.7338 79.5858 65.0489C79.6518 64.8472 79.7148 64.6565 79.7713 64.4673L80.0595 64.5531C80.0016 64.7467 79.9356 64.9477 79.8718 65.1398C79.6518 65.7998 79.4318 66.4877 79.4318 67.1337L79.1282 67.1367ZM82.0094 70.004C82.4084 70.0099 82.7237 70.015 82.8982 70.2445C83.0449 70.4374 83.0508 70.7351 82.918 71.2419C82.8183 71.6203 82.5924 71.8945 82.2962 71.995C82.2117 72.023 82.1233 72.0371 82.0344 72.0368C81.8232 72.0368 81.5511 71.9635 81.2277 71.7083L81.2116 71.6936C80.8977 71.368 80.6777 70.7975 80.853 70.4073C80.9424 70.2079 81.1676 69.9754 81.733 69.9974C81.829 70.0011 81.9207 70.0025 82.008 70.004H82.0094ZM34.9067 53.1373H34.7563H34.683C34.6617 52.8359 34.6097 52.0725 34.5363 50.9909C34.5363 50.9659 34.5327 50.941 34.5312 50.9175C34.5312 50.8684 34.5246 50.8185 34.5209 50.7672C34.1132 44.792 33.1621 30.1195 33.5353 28.6315C33.8609 27.7889 35.9986 26.4917 38.6591 25.4877C38.6657 25.5259 38.6819 25.6087 38.7244 25.8148C38.7369 25.8749 38.7515 25.9475 38.7691 26.0348C38.7743 26.0612 38.7801 26.0876 38.786 26.1169C38.7948 26.1617 38.8051 26.2093 38.8146 26.2585C38.9356 26.8451 39.1145 27.7163 39.2465 28.3939C39.2553 28.4783 39.2656 28.5751 39.2766 28.6836C39.2817 28.7357 39.2876 28.7899 39.2927 28.8464C39.2979 28.9029 39.3037 28.9513 39.3096 29.0063C39.4563 30.4729 39.7291 33.2376 39.8581 34.8267C39.1028 36.7019 39.743 39.2619 40.9581 41.9877C38.8417 40.9867 36.5178 38.1289 34.7035 32.3811L34.4168 32.4713C36.3396 38.5682 38.8667 41.4795 41.14 42.3867C42.2723 44.8301 43.8299 47.3843 45.2305 49.6819C45.3831 49.9312 45.5327 50.1756 45.6793 50.4152L45.7688 50.5619L45.8583 50.7085C46.3034 51.4419 46.7148 52.1334 47.0727 52.767C42.504 52.9254 36.7261 53.1102 34.9067 53.1373ZM38.247 20.5605C38.3284 20.5605 38.5345 20.6851 38.7647 20.8648C38.8821 20.9565 39.006 21.0621 39.1226 21.1735L39.1351 21.1853L39.2245 21.2711L39.2509 21.2469L39.3287 21.1735L39.3668 21.1361L39.4739 21.0217L39.6271 20.8531C39.6359 20.8435 39.644 20.834 39.6535 20.8245L39.7841 20.6778C39.8332 20.6235 39.8853 20.5663 39.9403 20.5069C40.5526 19.8389 41.4979 18.843 42.2495 18.3231C42.2847 18.2989 42.3229 18.2747 42.3537 18.2497L42.394 18.2248C42.4453 18.1918 42.4937 18.1632 42.5407 18.1375C42.8604 17.9571 43.0188 17.9491 43.0965 17.9799C43.1215 17.9901 43.1985 18.0209 43.2476 18.227C43.2828 18.3737 43.2102 18.7007 43.1743 18.8577C43.1383 18.9127 43.0899 18.9919 43.0276 19.0901C42.944 19.2265 42.7687 19.5147 42.5993 19.7575C42.5443 19.8352 42.4908 19.9085 42.4409 19.9701C42.3946 20.0315 42.3409 20.0869 42.2811 20.1351C42.2688 20.1437 42.2555 20.1506 42.2415 20.1557L42.2657 20.2891L42.295 20.4512C42.3323 20.4435 42.3679 20.4296 42.4006 20.4101C42.4619 20.3729 42.5179 20.3275 42.5671 20.2752C42.757 20.0823 42.9858 19.7369 43.2843 19.2485L43.3327 19.1693C43.3535 19.1645 43.3739 19.1579 43.3935 19.1495C43.4522 19.1165 43.5215 19.1081 43.5864 19.1261C43.6421 19.1525 43.6913 19.2295 43.7287 19.3461C43.7705 19.4825 43.7052 19.7186 43.6553 19.8909C43.6121 20.0449 43.582 20.1593 43.5981 20.251C43.5519 20.3126 43.4991 20.3977 43.4287 20.5091C43.2733 20.7599 43.0621 21.1039 42.8113 21.2865L42.9887 21.5292C43.2821 21.3092 43.516 20.9425 43.6847 20.6675C43.7345 20.5869 43.7932 20.4923 43.8357 20.4351C43.8849 20.4617 43.9235 20.5044 43.945 20.5561C44.0579 20.7944 44.0125 21.3019 43.6473 21.8533C42.9037 22.9746 43.0115 24.1142 43.1845 24.86C43.1963 24.9121 43.2087 24.9627 43.2212 25.0103C43.2337 25.058 43.2483 25.113 43.2623 25.157C43.2857 25.2399 43.3077 25.3147 43.3275 25.377C43.3371 25.4063 43.3459 25.4364 43.3547 25.4657V25.4753C43.0965 25.443 42.6037 25.3909 41.921 25.3183C41.481 25.2721 40.9677 25.2179 40.5189 25.168C40.1427 25.1262 39.8149 25.0881 39.6154 25.0595L39.5267 25.058V25.0147C39.5267 24.9773 39.5267 24.9414 39.5267 24.9033C39.5267 24.8651 39.5267 24.8299 39.5267 24.7984C39.5222 24.5754 39.4994 24.3532 39.4585 24.134C39.3316 23.4703 39.0537 23.0135 38.7985 22.594L38.6804 22.3989C38.1605 21.5189 37.8737 20.9587 38.2463 20.559L38.247 20.5605ZM38.9715 20.6338L38.9583 20.6089C38.8689 20.4732 38.6386 19.8183 38.4157 19.1847C38.2353 18.6714 38.049 18.1383 37.8767 17.7019C37.6369 17.0918 37.5709 16.8051 37.9148 16.5367C37.9568 16.5041 38.0006 16.4739 38.0461 16.4465C38.0871 16.4215 38.1326 16.3959 38.1817 16.3731C38.3401 16.2903 38.5403 16.203 38.7897 16.1033C38.9598 16.0351 39.1483 15.9405 39.3477 15.8407C39.5895 15.7155 39.8375 15.6024 40.0906 15.5019C40.1507 15.4792 40.2094 15.4587 40.2666 15.4411C40.3238 15.4235 40.3847 15.4073 40.4404 15.3956C40.5222 15.377 40.6058 15.3672 40.6897 15.3663C40.787 15.3617 40.8839 15.3815 40.9716 15.4241C41.0592 15.4666 41.1348 15.5304 41.1913 15.6097C41.2229 15.653 41.2551 15.7029 41.2889 15.7564C41.3153 15.7997 41.3417 15.8466 41.3688 15.8965C41.3959 15.9463 41.4179 15.9889 41.4421 16.0387C41.7442 16.672 41.9991 17.3267 42.2048 17.9975L42.1901 18.007C41.4847 18.4631 40.5988 19.3622 39.9535 20.0552C39.8999 20.1124 39.8479 20.1681 39.798 20.2231L39.6418 20.3933L39.4299 20.6257L39.2201 20.856C39.1417 20.7827 39.0595 20.713 38.9774 20.647C38.9743 20.6426 38.9716 20.6379 38.9693 20.6331L38.9715 20.6338ZM44.4671 22.6996C44.2413 22.7289 44.1283 22.7436 44.1283 22.8873C44.1283 23.0509 44.275 23.8194 44.4847 24.8673C44.2017 24.8673 43.8592 24.8673 43.4962 24.8673C43.3268 24.1743 43.2029 23.0839 43.8995 22.0286C44.2801 21.4551 44.4055 20.8303 44.2193 20.4358C44.1904 20.3675 44.1475 20.3061 44.0932 20.2556C44.039 20.2051 43.9748 20.1665 43.9047 20.1425C43.9149 20.0941 43.9325 20.0288 43.9472 19.9767C44.0081 19.7567 44.0836 19.4832 44.0161 19.2632C43.9523 19.0586 43.8519 18.9215 43.7155 18.8569C43.6453 18.8239 43.5675 18.8105 43.4903 18.8181C43.5343 18.6149 43.5805 18.3414 43.538 18.1625C43.4815 17.9249 43.3701 17.7716 43.2058 17.7056C43.0232 17.6323 42.7856 17.6741 42.4725 17.8369C42.2811 17.2311 41.9503 16.335 41.6379 15.7571C41.7222 15.5879 41.784 15.4085 41.822 15.2233C42.0376 15.0084 43.9545 14.4995 44.8177 14.3132C46.0064 15.6251 46.9363 17.9938 46.9935 20.9909C47.0177 22.3667 45.0956 22.616 44.4649 22.6989L44.4671 22.6996ZM45.1425 25.1797C45.6067 25.3389 46.1318 25.509 46.6877 25.6887C47.5039 25.9534 48.3853 26.2387 49.0453 26.4865C49.1443 26.5474 49.3981 26.653 49.8791 26.8532L49.8989 26.8613C49.9217 26.8745 49.9429 26.8877 49.962 26.9001C51.282 28.0001 52.1334 30.7435 52.5697 35.2975C52.6218 35.8446 52.6673 36.4063 52.7069 36.9776C52.7142 37.0891 52.7223 37.2013 52.7296 37.3135C52.9577 40.8547 52.9643 44.7971 52.9709 48.6303C52.9709 50.0089 52.9753 51.3143 52.9885 52.5749L52.7685 52.5822L52.6174 52.5873L52.4663 52.5932C51.513 52.6255 49.6232 52.6907 47.4159 52.7641C47.0617 52.1305 46.6517 51.4441 46.2081 50.7063L46.1179 50.5597C46.0885 50.5105 46.0585 50.4614 46.0284 50.413C45.8539 50.1251 45.6749 49.8317 45.4916 49.533L45.3611 49.3181C45.3361 49.0373 45.5994 48.0253 45.8744 46.9553C46.5513 44.3535 47.4738 40.8056 46.7683 39.4255C47.1032 38.3242 47.1536 37.1561 46.915 36.0301C46.8732 35.8226 46.7933 35.3665 46.6825 34.7351C46.4354 33.3175 46.0607 31.1755 45.6705 29.3282C45.5613 28.8149 45.463 28.3749 45.3721 28.0001C45.2254 27.3812 45.0978 26.9361 44.9915 26.6156C44.8712 26.2489 44.7715 26.0458 44.6981 25.9285C44.6772 25.8876 44.6485 25.8513 44.6135 25.8216C44.5785 25.7919 44.538 25.7694 44.4943 25.7554C44.3725 25.7151 44.0792 25.641 43.6876 25.5545C43.6751 25.4907 43.6517 25.4122 43.6201 25.3095C43.6077 25.2677 43.5937 25.2223 43.5798 25.1731H44.5478H44.7011H44.8551C44.9981 25.1739 45.1 25.1761 45.1403 25.179L45.1425 25.1797ZM39.9234 36.0155L40.2211 36.0617C40.2739 35.7221 39.8471 31.3815 39.6447 29.3678L39.7181 29.3627C39.7181 29.315 39.7005 29.2211 39.6785 29.0906C39.6704 29.0429 39.6609 28.9909 39.6506 28.9337L39.622 28.7753C39.5003 28.1248 39.2832 27.0615 39.0764 26.0546C39.0632 25.993 39.0515 25.9336 39.0397 25.8764C39.0236 25.8031 39.0089 25.7297 38.9965 25.6674C38.9774 25.5735 38.9627 25.5009 38.9554 25.4628V25.4525C38.9554 25.4459 38.9649 25.4371 38.9833 25.4247C39.0603 25.3797 39.1456 25.3507 39.2341 25.3396C39.2663 25.3345 39.3001 25.3293 39.336 25.3257C39.3634 25.3346 39.3913 25.3417 39.4196 25.3469C39.4651 25.3557 39.5171 25.3631 39.5751 25.3719C39.7144 25.3917 39.9117 25.4159 40.1786 25.4452C40.6685 25.5024 41.3175 25.5706 41.8895 25.6307C42.6228 25.7077 43.3767 25.7877 43.4786 25.8097C43.4833 25.81 43.4879 25.81 43.4925 25.8097C43.9025 25.8962 44.2259 25.9754 44.3894 26.0297C44.4495 26.0649 44.6519 26.3186 45.0611 28.0016C45.0802 28.0749 45.0985 28.1571 45.1183 28.2399C45.133 28.3015 45.1477 28.3646 45.1623 28.4291C45.2357 28.732 45.309 29.0723 45.3882 29.4558C45.7717 31.2811 46.1399 33.385 46.3826 34.7769C46.4933 35.4112 46.574 35.8688 46.6173 36.0807C47.2039 38.9811 45.892 41.7127 43.6216 42.3001C42.933 42.4783 42.1645 42.4468 41.3593 42.1535C40.249 39.7393 39.5743 37.4557 39.9146 35.6811C39.9251 35.7922 39.928 35.9039 39.9234 36.0155ZM42.7533 42.7137C43.072 42.7142 43.3894 42.674 43.6979 42.5942C45.0333 42.2488 46.0607 41.2177 46.6114 39.8508C47.0243 41.3233 46.1655 44.6255 45.5803 46.8732C45.3369 47.8104 45.1697 48.4623 45.0963 48.8869C43.8577 46.8519 42.5414 44.6475 41.5331 42.5275C41.9285 42.649 42.3397 42.7117 42.7533 42.7137V42.7137ZM51.7543 57.8021L51.4697 57.9003C51.3421 57.5337 50.2363 53.8149 50.0507 52.9738C50.0361 52.9085 50.0273 52.8601 50.0243 52.833L50.1747 52.8191L50.3213 52.8059C50.3213 52.8059 50.3213 52.8117 50.3213 52.8139C50.3213 52.8433 50.3353 52.8939 50.3514 52.9606C50.5531 53.8105 51.6215 57.42 51.7543 57.8021ZM52.9217 17.8933C52.8396 17.6733 52.7567 17.4438 52.6885 17.2473C52.6438 17.1189 52.6057 17.0053 52.5778 16.9129C52.5778 16.9019 52.5705 16.8894 52.5675 16.8784C52.5299 16.7528 52.5 16.6249 52.4781 16.4956C52.4231 16.1575 52.5008 16.0989 52.5052 16.0959C52.5122 16.092 52.52 16.0895 52.5279 16.0886C52.537 16.0877 52.5461 16.0877 52.5551 16.0886C52.5966 16.0903 52.6376 16.0983 52.6768 16.1121C52.7272 16.128 52.7762 16.1479 52.8235 16.1715C52.8689 16.1942 52.921 16.2228 52.9804 16.2587L53.0075 16.28L53.0031 16.2881L53.0523 16.3145C53.1571 16.3959 53.2495 16.4611 53.3177 16.5139C53.3923 16.5711 53.4696 16.6244 53.5495 16.6738C53.7875 16.8782 54.0062 17.104 54.2029 17.3485L54.4405 17.1644C54.1354 16.7827 53.7782 16.4458 53.3793 16.1634C53.2957 16.1025 53.2151 16.0483 53.1403 16.0028C53.0537 15.9346 52.9628 15.8605 52.8711 15.7828C52.8249 15.7447 52.7795 15.7058 52.734 15.6662C52.6885 15.6266 52.6423 15.5848 52.5976 15.5445C52.5243 15.4777 52.4553 15.411 52.3908 15.3457C52.3424 15.2973 52.2977 15.2489 52.2566 15.2027C52.2101 15.1502 52.1663 15.0954 52.1253 15.0385C52.1085 15.015 52.0931 14.9923 52.0799 14.9695C52.0164 14.8658 51.9736 14.7507 51.9537 14.6307C51.9407 14.5785 51.9383 14.5242 51.9467 14.471C51.9552 14.4178 51.9743 14.3669 52.0029 14.3213C52.0155 14.3072 52.0314 14.2964 52.0491 14.2897C52.1038 14.2713 52.163 14.2713 52.2177 14.2897C52.2535 14.2987 52.2885 14.3102 52.3226 14.3242L52.3629 14.3418L52.4363 14.3726L52.5096 14.4019L52.5499 14.4188C52.6057 14.4445 52.6651 14.4738 52.7289 14.5068C52.7744 14.531 52.822 14.5567 52.8704 14.5845C52.9188 14.6124 52.9635 14.6381 53.0119 14.6667C53.4461 14.9285 53.9469 15.301 54.2637 15.6684L54.4918 15.4719C54.1383 15.0627 53.5546 14.6285 53.0523 14.3403C53.0039 14.3132 52.9569 14.2868 52.91 14.2619L52.8469 14.2281C52.8236 14.2057 52.7978 14.186 52.7699 14.1695L52.7509 14.157C52.6775 14.1115 52.613 14.0697 52.5558 14.0301C52.4986 13.9905 52.4568 13.9605 52.4165 13.9297C52.3607 13.8857 52.3153 13.8475 52.2793 13.8131C52.1129 13.6532 52.14 13.5879 52.1459 13.5777C52.1637 13.5403 52.189 13.5069 52.2203 13.4798C52.2516 13.4527 52.2882 13.4323 52.3277 13.42C52.3778 13.4085 52.4295 13.4063 52.4803 13.4134C52.5299 13.4199 52.579 13.4305 52.6269 13.4449C52.7019 13.4675 52.7754 13.4947 52.8469 13.5263C52.8924 13.5454 52.9393 13.5667 52.9936 13.5909L53.0119 13.5997C53.053 13.6195 53.0948 13.64 53.1366 13.662C53.8927 14.0521 54.8167 14.7327 54.8233 14.7371C56.1169 15.7755 56.8121 19.5155 56.6859 20.4571C56.6126 20.4571 56.5143 20.4666 56.4051 20.4791C55.5889 20.5729 54.0005 20.9337 53.6917 21.0371H53.6793C53.6058 21.0661 53.5296 21.088 53.4519 21.1024C53.4182 21.0291 53.4079 20.757 53.3962 20.4424C53.3845 20.1278 53.3683 19.6797 53.3229 19.0879C53.3031 18.9435 53.1579 18.5401 52.9217 17.8933ZM51.7733 17.424C51.8327 16.7251 51.5401 15.9691 51.3047 15.3611C51.0495 14.7011 50.9095 14.2934 51.1221 14.2076L51.1397 14.201L51.1551 14.1893C51.2915 14.0895 51.4602 14.1621 51.6626 14.3411C51.6061 14.5662 51.6626 14.8617 51.8173 15.125C51.8906 15.2413 51.9751 15.3501 52.0696 15.4499L51.7975 17.6594C51.7786 17.5824 51.7705 17.5032 51.7733 17.424V17.424ZM52.4414 19.2317L52.6042 17.9117C52.6145 17.941 52.6255 17.9703 52.6365 17.9997C52.7993 18.4463 53.0031 19.0021 53.0119 19.1173C53.0464 19.5573 53.0647 19.9151 53.0765 20.2011C52.8305 19.9024 52.6185 19.5773 52.4443 19.2317H52.4414ZM51.8496 27.7486C51.9127 27.7867 52.4289 28.0676 52.6431 28.0801C52.668 29.2285 52.6827 30.3886 52.635 30.5441L52.921 30.6372C52.9995 30.3937 52.9657 28.842 52.9093 26.6772C52.8924 26.0253 52.877 25.4393 52.8733 25.0947C52.8799 24.4259 52.8733 23.4285 52.8733 22.4789C52.8733 22.1855 52.8733 21.9259 52.8733 21.8599C52.8931 21.8042 52.9907 21.6517 53.4703 21.4427C53.5612 21.4031 53.6587 21.3649 53.7636 21.3283L53.7768 21.3231C54.131 21.1992 55.5837 20.8905 56.3339 20.7863C56.4967 20.7731 56.6493 20.7651 56.7879 20.7636L56.9059 20.7966L56.9162 20.7636C57.167 20.768 57.3562 20.7951 57.4574 20.8494C57.5256 20.9183 57.8725 21.5431 58.4973 27.1062C58.8471 30.2287 59.1037 33.3109 59.1052 33.8646C59.1118 35.9223 58.267 37.1998 56.6632 37.5584C55.6292 37.7894 54.3473 37.6229 53.02 37.103C52.7267 32.6729 52.0769 28.9417 50.6455 27.17C51.0591 27.3385 51.4621 27.5318 51.8525 27.7486H51.8496Z" fill="black"/>
<path d="M56.0537 97.1909C52.8923 97.064 50.5537 95.9838 49.4691 92.6515L49.5285 92.8334C49.4038 92.8994 49.1735 92.95 48.8773 92.9896C48.8897 92.8693 48.9029 92.7439 48.9161 92.6178C48.9609 92.1976 48.9961 91.847 49.0239 91.553L48.8773 91.5611L48.7247 91.5691C48.6903 91.9263 48.6514 92.2915 48.6206 92.5863C48.6045 92.7403 48.5891 92.8869 48.5744 93.0263C47.7443 93.1055 46.5812 93.1201 45.6741 93.1319C45.6741 92.6794 45.6697 92.1646 45.6682 91.7341L45.5179 91.7422L45.3712 91.7503C45.3712 92.0392 45.3712 92.3663 45.3712 92.6867C45.3712 92.84 45.3712 92.9911 45.3712 93.1363C45.0045 93.1414 44.6936 93.1473 44.4993 93.159C44.7655 93.9209 44.6034 94.8985 44.5726 95.7601C45.2326 96.3314 46.0605 96.6526 47.0219 97.0259C47.4546 97.1938 47.9019 97.3676 48.3786 97.5788L48.4629 97.6155C49.3767 98.0129 50.3102 98.4955 50.3051 99.0506C50.305 99.0864 50.3009 99.1221 50.2926 99.1569C52.9011 99.1613 57.3641 98.9443 57.9288 98.6927C57.9251 98.6898 57.6846 97.2561 56.0537 97.1909Z" fill="black"/>
<path d="M37.8767 94.7605C37.8723 95.1917 37.8686 95.6405 37.8422 96.0483C37.7425 97.6007 37.6772 98.6501 37.6838 99.0226C38.0608 98.9903 38.4392 98.9773 38.8175 98.9838C39.0258 98.9838 39.2055 98.9838 39.2986 98.9764C39.5047 98.9654 39.6323 98.7909 39.7899 98.5452C39.9205 98.3421 40.0561 98.1331 40.2959 98.1463C40.5357 98.1595 40.7579 98.411 41.0821 99.0659C41.3893 99.162 42.9792 99.2991 45.2577 99.3739C47.8977 99.4604 49.3453 99.3974 49.5755 99.3006C49.6697 99.2662 49.7576 99.2166 49.8359 99.1539C49.8531 99.1413 49.8677 99.1255 49.8788 99.1072C49.8899 99.089 49.8972 99.0687 49.9004 99.0476C49.9004 98.9376 49.7471 98.6134 48.2995 97.9835L48.2123 97.9454C48.0143 97.8574 47.8207 97.7767 47.63 97.699L47.5567 97.6689C47.3242 97.575 47.0969 97.4863 46.8732 97.3998C46.0086 97.0639 45.2239 96.7596 44.5625 96.2712C43.8057 95.7124 43.2095 94.9123 42.8369 93.5476C42.4947 93.6133 42.1476 93.651 41.7993 93.6605L41.6526 93.6671L41.5015 93.6723C40.6883 93.6987 39.6682 93.6869 38.6283 93.6679H38.4773H38.4575H38.3262L37.9148 93.6605C37.8847 93.9304 37.8811 94.3359 37.8767 94.7605Z" fill="black"/>
<path d="M38.3892 17.1401C38.3702 17.1343 38.3505 17.1311 38.3306 17.1306C38.2783 17.1316 38.2284 17.1527 38.1913 17.1896C38.1543 17.2265 38.133 17.2763 38.1318 17.3286V17.3286C38.132 17.3813 38.153 17.4317 38.1903 17.4689C38.2275 17.5061 38.2779 17.5271 38.3306 17.5273H38.3445C38.3945 17.5237 38.4413 17.5014 38.4757 17.4648C38.51 17.4283 38.5294 17.3802 38.53 17.3301C38.5299 17.2875 38.5161 17.2462 38.4908 17.212C38.4655 17.1778 38.4299 17.1527 38.3892 17.1401Z" fill="black"/>
<path d="M50.7019 11.0044C50.934 11.1345 51.1533 11.2862 51.3568 11.4576L51.5599 11.2376C51.3421 11.0531 51.1071 10.8898 50.8581 10.7499C50.5236 10.5614 50.211 10.3363 49.9261 10.0789C49.9209 10.0738 49.1135 9.45487 49.0402 9.4292L48.9815 9.60007L48.9185 9.70273C48.9764 9.73867 49.6599 10.2461 49.7193 10.2975C50.0199 10.5684 50.3494 10.8055 50.7019 11.0044V11.0044Z" fill="black"/>
<path d="M50.4901 12.3566L50.6235 12.0875C50.3302 11.9408 49.8117 11.8418 49.3094 11.7443C48.9858 11.6901 48.6658 11.6167 48.351 11.5243L48.2534 11.8066C48.5815 11.9043 48.9153 11.9817 49.2529 12.0384C49.7347 12.133 50.2334 12.2298 50.4901 12.3566Z" fill="black"/>
<path d="M48.4873 13.2124V13.5131C48.713 13.5067 48.9379 13.4846 49.1605 13.4471C49.3853 13.4089 49.6124 13.3866 49.8403 13.3804V13.0797C49.5979 13.0857 49.3563 13.109 49.1172 13.1494C48.909 13.1849 48.6985 13.206 48.4873 13.2124V13.2124Z" fill="black"/>
<path d="M81.1249 70.5305C81.0105 70.7857 81.1872 71.2316 81.4182 71.4772C81.7115 71.7031 81.9799 71.783 82.197 71.7097C82.3957 71.643 82.5512 71.4442 82.6245 71.1656C82.7257 70.7798 82.736 70.5312 82.6568 70.4264C82.5776 70.3215 82.3202 70.3098 82.0027 70.3046C81.9132 70.3046 81.8186 70.3046 81.7196 70.298C81.3999 70.2856 81.1997 70.364 81.1249 70.5305Z" fill="black"/>
<path d="M53.1285 51.5592C53.1006 46.9971 53.1673 41.7443 52.8703 37.2064C55.9848 38.4531 59.2635 37.9603 59.2503 33.8646C59.2467 32.6913 58.1731 21.0885 57.5314 20.7211C57.3943 20.6433 57.1332 20.6096 56.7981 20.6118C57.043 19.8007 56.2847 15.7234 54.909 14.6168C54.9002 14.6102 53.8589 13.8431 53.0691 13.4611L53.0045 13.431L53.2128 11.7443C53.2205 11.6749 53.2006 11.6052 53.1573 11.5504C53.1141 11.4955 53.0511 11.4598 52.9818 11.451C52.9125 11.4433 52.8429 11.4631 52.7881 11.5062C52.7332 11.5492 52.6975 11.6121 52.6885 11.6813L52.4941 13.2631C52.399 13.245 52.3005 13.2582 52.2136 13.3008C52.1266 13.3434 52.0557 13.413 52.0116 13.4992C51.8987 13.6899 52.1531 13.9282 52.3907 14.1005L52.3805 14.1841C52.0952 14.0646 51.9192 14.1365 51.8415 14.2963C51.5687 14.036 51.3069 13.8967 51.0707 14.0697C50.3733 14.3506 51.7476 16.0153 51.6273 17.4123C51.6112 17.6051 51.7095 17.9564 51.8679 18.3546L51.6325 20.2657C51.6246 20.3351 51.6444 20.4049 51.6877 20.4598C51.7309 20.5147 51.7941 20.5504 51.8635 20.559V20.559C51.9329 20.5667 52.0025 20.5467 52.0574 20.5035C52.1123 20.4603 52.148 20.3973 52.1568 20.328L52.2866 19.261C52.6217 19.8909 53.0053 20.4417 53.2399 20.5113V20.4864C53.27 21.3055 53.2773 21.3371 53.7217 21.1816H53.7269C53.1761 21.3796 52.7735 21.6091 52.7222 21.8416C52.7178 21.8607 52.7339 23.6302 52.7273 24.816C52.7273 24.8695 52.7273 24.9627 52.7273 25.0947C52.7273 25.4665 52.7171 25.7459 52.7053 25.8339L51.5863 27.4384C51.1228 27.2074 50.4797 26.9412 49.9627 26.7278C49.6886 26.583 49.4043 26.4584 49.112 26.3553V26.3553C48.0333 25.949 46.3627 25.4452 45.1747 25.0353C45.163 25.0316 44.9731 25.0279 44.6687 25.0257C44.4627 24.0049 44.2786 23.0567 44.2786 22.891C44.2786 22.8221 47.1782 22.7942 47.1437 20.9946C47.0836 17.8413 46.0965 15.4594 44.8667 14.1555C46.3781 13.6855 46.7147 11.5801 45.1601 10.6304C44.5829 10.2777 43.7455 10.3752 42.9865 10.6363L43.6193 9.99385C42.9725 9.94912 42.2531 10.5717 41.8051 11.1899C41.0402 11.5647 39.6447 11.8631 38.6217 12.6309C37.6933 13.3217 37.5466 14.7107 37.8663 15.7865C37.8979 15.8928 37.9448 16.0717 38.0042 16.2954C37.4175 16.6371 37.4249 16.9686 37.7343 17.7562C38.1391 18.7829 38.6583 20.4307 38.8343 20.6895C38.8452 20.7137 38.8587 20.7365 38.8747 20.7577C38.6077 20.5458 38.2675 20.3214 38.1479 20.4439C37.6617 20.9418 38.0511 21.6333 38.5513 22.4759C38.9341 23.1198 39.4195 23.7607 39.3748 25.0705C36.6541 26.0033 33.8015 27.4905 33.3923 28.5861C32.9031 30.4436 34.5399 53.2913 34.5399 53.2913H34.7643C35.0929 57.3445 35.538 65.3767 35.9912 73.0745C36.5632 82.7999 37.1469 91.9901 37.5217 91.9417C37.6529 91.9248 37.9499 91.9197 38.3386 91.9182C38.3716 92.3633 38.4119 92.9449 38.4559 93.4626C38.1399 93.456 37.8861 93.4516 37.7329 93.4516C37.6456 93.9532 37.6991 95.1141 37.6397 96.0366C37.4197 99.4701 37.4469 99.2963 37.6089 99.2427C37.8341 99.1694 38.9979 99.1958 39.3073 99.1782C40.1558 99.1313 40.0003 97.3119 40.9265 99.2105C41.0644 99.4921 48.9125 99.7971 49.6532 99.4884C49.8989 99.3865 50.0316 99.2728 50.08 99.1547C52.6511 99.1716 57.3459 98.9501 57.9267 98.6913C57.9267 98.6913 57.6861 97.2576 56.0552 97.1923C52.8938 97.0655 50.5552 95.9853 49.4706 92.653L49.53 92.8349C49.3833 92.9082 49.0959 92.9683 48.7233 93.0094C48.7739 92.5195 48.8392 91.9307 48.8869 91.4115L49.5469 91.3763L51.9669 60.7618L53.1285 51.5592ZM44.0469 66.5419C44.0513 66.4877 44.0557 66.44 44.0601 66.3953V66.3843C44.0601 66.3637 44.0645 66.3447 44.0659 66.3271C44.0659 66.3102 44.0696 66.2955 44.0718 66.2816V66.2728C44.0718 66.2596 44.0718 66.2471 44.0769 66.2369C44.0769 66.2266 44.0769 66.2185 44.0813 66.2119C44.0857 66.2053 44.0813 66.2075 44.0813 66.2061L44.085 66.1899C44.0854 66.186 44.0854 66.1821 44.085 66.1782C44.0853 66.176 44.0853 66.1738 44.085 66.1716C44.085 66.1672 44.085 66.1628 44.0887 66.1569V66.1452C44.0887 66.1393 44.0887 66.1335 44.0887 66.1269C44.0887 66.1203 44.0887 66.1173 44.0887 66.1122L44.0931 66.0887L44.0975 66.0697L44.1019 66.0425L44.1063 66.0198C44.1063 66.0095 44.1107 65.9985 44.1121 65.9875C44.1136 65.9765 44.1121 65.9714 44.1173 65.9626C44.1224 65.9538 44.1173 65.9391 44.1231 65.9267C44.129 65.9142 44.1268 65.9069 44.129 65.8959C44.1312 65.8849 44.1341 65.8695 44.1363 65.8555C44.1385 65.8416 44.1363 65.8372 44.1415 65.8277C44.1466 65.8181 44.1466 65.7954 44.1495 65.7793C44.1525 65.7631 44.1539 65.7573 44.1554 65.7455C44.1569 65.7338 44.1627 65.7067 44.1664 65.6861V65.6649C44.1767 65.6055 44.1877 65.5424 44.1987 65.4757L44.2053 65.4383L44.2163 65.373L44.2236 65.3319C44.2236 65.3092 44.2309 65.2872 44.2353 65.2645L44.2412 65.2285C44.2456 65.2007 44.2507 65.1728 44.2559 65.1442L44.2603 65.1156C44.2647 65.0892 44.2698 65.0621 44.2742 65.0342L44.283 64.9836C44.2867 64.9601 44.2911 64.9359 44.2947 64.9103C44.2984 64.8846 44.3006 64.878 44.3028 64.8619L44.316 64.7827L44.3248 64.7328L44.338 64.6543L44.3666 64.6067L44.382 64.5128C44.382 64.5011 44.3864 64.4893 44.3879 64.4783L44.4011 64.3991C44.4231 64.2679 44.4458 64.1329 44.4685 63.9958C44.4737 63.9665 44.4781 63.9379 44.4832 63.9093L44.4905 63.8638L44.5052 63.7751L44.5177 63.7017L44.5301 63.6247C44.536 63.5925 44.5411 63.5609 44.5463 63.5287C44.5463 63.5184 44.5463 63.5089 44.5514 63.4986C44.5565 63.4656 44.5624 63.4326 44.5675 63.3996C44.5675 63.3791 44.5749 63.3585 44.5778 63.3373L44.591 63.2595L44.6042 63.1811C44.6086 63.1503 44.6137 63.1202 44.6189 63.0894V63.0777L44.6387 62.9581C44.6431 62.9303 44.6475 62.9024 44.6526 62.8738L44.6607 62.8225L44.6731 62.7491C44.6731 62.7293 44.6805 62.7088 44.6834 62.6883L44.0359 66.6424C44.0359 66.6123 44.041 66.5837 44.0432 66.5559L44.0469 66.5419ZM44.5602 96.0219C43.8195 95.4353 43.2629 94.5853 42.9315 93.1084L42.9725 93.2932C42.7848 93.3885 42.281 93.4399 41.6525 93.4655C41.6679 92.9823 41.6907 92.3905 41.7024 91.8625C42.3081 91.8185 42.7349 91.7415 42.7489 91.6051C42.8061 91.0345 43.2343 81.7645 43.5951 74.5829C43.6039 74.4011 43.6135 74.2163 43.6223 74.041L43.6267 73.9581L43.6377 73.7337C43.6377 73.7 43.6377 73.6663 43.6428 73.6325C43.6465 73.5687 43.6494 73.5057 43.6523 73.4426C43.6523 73.4191 43.6523 73.3957 43.656 73.3693C43.6604 73.2827 43.6648 73.1969 43.6692 73.1119V73.0994C43.6736 73.0092 43.678 72.9197 43.6831 72.831V72.8112L43.6941 72.5912C43.6941 72.5604 43.6941 72.5296 43.6993 72.4988C43.6993 72.4255 43.7066 72.3573 43.7103 72.2876C43.7103 72.2685 43.7103 72.2502 43.7103 72.2319C43.7139 72.1585 43.7176 72.0808 43.722 72.006V71.9767L43.7352 71.7222V71.7024C43.7396 71.6225 43.7433 71.5425 43.7477 71.4633V71.4428C43.7565 71.2756 43.7645 71.1113 43.7733 70.95V70.9163C43.7865 70.6669 43.7992 70.4252 43.8115 70.191L44.3329 91.6469L45.5018 91.5853C45.5018 92.0392 45.5018 92.6215 45.5077 93.1253C45.0677 93.1311 44.7054 93.137 44.4854 93.1502C44.7919 93.9957 44.5639 95.0987 44.5631 96.019L44.5602 96.0219ZM56.7981 20.6118C56.6661 20.6118 56.5223 20.6191 56.3713 20.6309C56.512 20.6049 56.6556 20.5985 56.7981 20.6118ZM51.5753 27.4479L51.0905 28.1424C50.7906 27.5682 50.4459 27.1055 50.0499 26.7777C50.036 26.7681 50.0191 26.7579 50.0023 26.7476L51.5753 27.4479Z" fill="white"/>
<path d="M49.8226 10.186C50.1966 10.541 50.5948 10.7602 50.9461 10.9773L49.3196 9.80396C49.5425 9.97336 49.8014 10.1655 49.8226 10.186Z" fill="white"/>
<path d="M50.946 10.9773L51.4594 11.344C51.2997 11.2064 51.1279 11.0837 50.946 10.9773V10.9773Z" fill="white"/>
<path d="M49.3195 9.80535C49.1516 9.68068 49.0034 9.57361 48.991 9.56921L49.3195 9.80535Z" fill="white"/>
<path d="M48.9794 11.8324L48.3018 11.6652C48.524 11.7346 48.7503 11.7904 48.9794 11.8324V11.8324Z" fill="white"/>
<path d="M48.9795 11.8324L50.5569 12.2218C50.2254 12.0583 49.5508 11.9475 48.9795 11.8324Z" fill="white"/>
<path d="M49.1252 13.3005L49.8402 13.2272C49.6005 13.2347 49.3616 13.2592 49.1252 13.3005V13.3005Z" fill="white"/>
<path d="M49.1253 13.3005L48.4873 13.3629C48.7012 13.3568 48.9143 13.336 49.1253 13.3005V13.3005Z" fill="white"/>
<path d="M68.0952 85.4407C66.7143 87.4287 62.7991 92.0634 63.7561 95.634C63.8111 95.84 63.8506 96.0344 63.8807 96.2206C61.9645 96.0696 60.5287 94.0038 61.7049 89.3713C62.043 88.0389 64.119 85.7047 63.9408 85.6365C61.9418 84.8797 59.4961 88.7986 59.2314 90.0049C58.9146 91.4511 57.5917 96.4744 62.4126 98.5849C63.5925 99.0982 65.1399 99.0476 65.8864 98.8159C66.6141 98.8979 67.346 98.9378 68.0783 98.9354C71.5514 98.9692 79.024 98.7822 81.469 98.8988C82.0263 98.9252 83.1696 97.8721 81.9955 96.5939C81.5482 96.107 81.0627 95.8327 81.0627 95.8166C81.0627 95.0972 80.9894 94.5333 80.9564 93.2169C80.9058 91.0382 81.103 76.5373 81.0458 76.296C81.2328 76.1904 81.3392 76.0877 81.3612 76.0027C81.4675 75.5935 81.3076 74.4942 81.1705 74.5785C81.109 74.6158 81.0456 74.6499 80.9806 74.6805C81.1448 74.3673 81.0297 73.4705 81.6699 73.2446C82.9694 72.7863 84.2043 70.4807 83.2539 69.7488C81.158 68.1355 81.0994 69.3755 80.6872 66.8008C80.4313 65.197 80.7855 65.2329 80.0023 63.5866C79.4816 62.491 78.1477 66.3227 78.0392 66.8448C77.9717 67.1682 76.2542 67.1675 75.8634 67.1675C75.6294 66.2552 75.075 64.5128 74.9438 63.5741C74.7568 62.2387 72.6587 64.922 72.5604 68.1098C72.5157 69.5684 72.7804 74.0395 72.6726 74.3211L72.6968 74.3395L72.6528 74.3211C72.2275 74.1407 72.5692 75.5869 72.3346 76.0283C72.4171 76.0505 72.4981 76.0777 72.5773 76.1097C72.6602 78.2467 71.4267 80.6425 68.0952 85.4407ZM77.9578 76.9421C78.2555 76.925 78.5337 76.9005 78.7923 76.8687C78.5146 76.9074 78.2364 76.9318 77.9578 76.9421V76.9421Z" fill="white"/>
<path d="M38.4429 93.2601H38.462H38.594C38.5625 92.8575 38.5302 92.4278 38.5031 92.0634H38.2017C38.2244 92.3699 38.2515 92.7233 38.275 93.0746C38.2794 93.1347 38.2838 93.1941 38.2889 93.2528L38.4429 93.2601Z" fill="black"/>
<path d="M41.8117 93.2551C41.8117 93.1686 41.8175 93.0806 41.8205 92.9918C41.8337 92.6061 41.8439 92.2776 41.8513 91.9974L41.7009 92.0092L41.5499 92.0187C41.5411 92.3582 41.5293 92.7014 41.5198 92.9816C41.5198 93.0798 41.5132 93.1752 41.5103 93.2668L41.6613 93.2617L41.8117 93.2551Z" fill="black"/>
<path d="M45.3633 91.4466H45.3699C45.3765 91.2816 45.3853 91.0242 45.3948 90.6869C45.4564 88.5192 45.565 83.0566 45.5415 77.6299C45.507 69.9724 45.2328 65.0532 44.7444 63.2668L44.187 66.6732C44.1416 67.2598 44.0704 68.4405 43.9758 70.1976L44.4928 91.4928L45.3633 91.4466Z" fill="black"/>
<path d="M34.4021 53.4417H34.7783H34.9287C35.1949 56.771 35.5337 62.5988 35.8871 68.673C35.9715 70.1301 36.0573 71.6063 36.1438 73.0679C36.4841 78.8561 37.1859 90.783 37.5863 91.7869C37.7183 91.7774 37.9236 91.773 38.1788 91.7708H38.6239L38.5689 91.5677C38.5471 91.5736 38.527 91.5845 38.51 91.5995C38.4931 91.6145 38.4799 91.6332 38.4714 91.6542C38.4683 91.661 38.4661 91.6681 38.4648 91.6755C38.4673 91.6555 38.4685 91.6354 38.4685 91.6153C38.4685 91.5581 38.4685 91.4687 38.4685 91.3447C38.4685 91.2978 38.4685 91.2457 38.4641 91.1893C38.4597 91.1328 38.4641 91.0895 38.4589 91.0345C38.3856 88.8719 37.9661 81.6875 37.5606 74.7054C37.0238 65.4867 36.4709 55.9621 36.4173 53.405C36.4173 53.3522 36.4173 53.3016 36.4173 53.2583H36.5684H36.7151C36.7151 53.3045 36.7151 53.3544 36.7151 53.405C36.7356 54.4009 36.8361 56.5107 36.9805 59.235C37.7249 57.8527 39.27 54.3906 39.4005 53.328C39.4067 53.2794 39.4094 53.2304 39.4086 53.1813L39.5553 53.1762L39.7071 53.1703C39.7083 53.2208 39.7061 53.2713 39.7005 53.3214C39.5692 54.6113 37.5782 58.8749 37.0179 59.7747L37.0077 59.7916C37.2343 64.0134 37.5555 69.5501 37.8539 74.6937C38.1135 79.1516 38.3577 83.3624 38.5293 86.5091C38.621 88.1958 38.6841 89.4307 38.7222 90.2865C38.7339 90.5447 38.7427 90.7669 38.7493 90.9561C38.7493 91.0103 38.7493 91.0624 38.7545 91.1108C38.7596 91.1592 38.7581 91.2179 38.7596 91.2655C38.7596 91.2912 38.7596 91.3169 38.7596 91.3389C38.7647 91.5765 38.7677 91.7055 38.7427 91.7752H38.9261C39.6022 91.7752 40.7191 91.7752 41.5499 91.7283L41.701 91.7187L41.8477 91.707C42.2231 91.6762 42.5025 91.6337 42.5935 91.5677C42.6331 91.0947 42.8017 87.5937 42.9975 83.5545C43.1354 80.7026 43.2909 77.4679 43.4375 74.5822C43.5292 72.7599 43.6033 71.3269 43.6641 70.202L43.6165 68.2403L43.8827 66.616C43.8882 66.459 43.9068 66.3028 43.9384 66.1489C43.9692 66.0374 44.2317 64.4908 44.5111 62.7755L44.9511 60.0703L45.2481 60.1187C45.1616 60.6503 45.0003 61.6389 44.8309 62.6692C46.1751 65.4361 45.8216 85.8066 45.6837 90.6532C45.6837 90.7082 45.6837 90.7603 45.6793 90.8109C45.6749 90.8615 45.6793 90.9187 45.6749 90.9685C45.6683 91.1651 45.6632 91.3242 45.6588 91.4423L48.7388 91.2787L48.8913 91.2707L49.038 91.2626L49.3966 91.2435L51.8129 60.808L51.9501 60.9847L52.0865 61.16C55.3491 65.3173 59.7388 69.6931 62.5534 71.2309C63.5382 71.7684 64.3801 72.2524 65.1934 72.721C67.4608 74.0249 69.2516 75.0545 72.281 76.1633L72.4035 76.2087V76.2021L72.424 76.2095C72.4622 78.2115 71.3446 80.4885 67.9646 85.3549C67.7901 85.6049 67.5789 85.8939 67.334 86.2283C65.6194 88.5691 62.7492 92.4858 63.6035 95.6736C63.6534 95.8591 63.69 96.0351 63.7186 96.2023C61.8853 95.953 60.5536 93.8762 61.6976 89.3699C62.0356 88.0374 64.1117 85.7032 63.9335 85.635C61.9344 84.8782 59.4887 88.7971 59.224 90.0035C58.9072 91.4496 57.5843 96.4729 62.4052 98.5835C63.4062 99.0235 64.6697 99.0491 65.4852 98.9061C66.088 99.0176 66.9182 99.0726 68.068 99.0843C68.3702 99.0843 68.7002 99.0887 69.0544 99.0887C70.3971 99.0887 72.0794 99.0697 73.8386 99.0499C76.8827 99.0154 80.0309 98.9765 81.4528 99.0499C81.7836 99.0645 82.2874 98.7734 82.5213 98.2733C82.6746 97.9469 82.822 97.2811 82.0974 96.4927C81.8312 96.2087 81.5324 95.9572 81.2072 95.7433V95.7433C81.2072 95.4177 81.1881 95.1236 81.1668 94.7584C81.1434 94.3492 81.117 93.885 81.1008 93.2184C81.0744 92.0788 81.1162 87.505 81.1529 83.4702C81.1698 81.5811 81.1866 79.7962 81.1947 78.4762C81.1991 77.7693 81.2013 77.2515 81.2006 76.8937C81.2006 76.6443 81.2006 76.4852 81.1947 76.3803C81.3685 76.2681 81.4726 76.1537 81.5012 76.0445C81.5958 75.6778 81.5078 74.6255 81.2893 74.4641C81.2638 74.4449 81.2337 74.4328 81.202 74.4289C81.2094 74.3871 81.2167 74.3446 81.224 74.2999C81.2842 73.9332 81.3516 73.5181 81.7139 73.3905C82.6108 73.0737 83.5428 71.8806 83.7093 70.8371C83.7951 70.3017 83.6668 69.8837 83.3426 69.6337C82.861 69.2523 82.332 68.9348 81.7689 68.6891C81.1822 68.4244 81.0898 68.3841 80.8346 66.7825C80.7723 66.3963 80.7336 66.0066 80.7188 65.6157C80.6887 65.0137 80.6711 64.6507 80.1365 63.5272C80.0148 63.2705 79.8498 63.2339 79.7324 63.2478C78.9617 63.3402 77.9644 66.5111 77.8925 66.8081C77.8588 66.8426 77.6065 67.0142 75.9785 67.0223C75.9103 66.7656 75.8223 66.4554 75.7292 66.1291C75.485 65.2718 75.1814 64.2048 75.0912 63.5573C75.0281 63.1063 74.7656 63.0711 74.6556 63.0777C73.8672 63.1202 72.4871 65.571 72.4086 68.1091C72.3874 68.8094 72.435 70.1668 72.482 71.4824C72.5201 72.5663 72.5634 73.777 72.5428 74.1671C72.5079 74.1729 72.4746 74.1862 72.4453 74.206C72.2612 74.3299 72.2664 74.6614 72.273 75.1205C72.2852 75.3614 72.2749 75.603 72.2422 75.8421C69.3235 74.7619 67.5635 73.7499 65.3488 72.4739C64.5334 72.0053 63.69 71.5205 62.7015 70.9808C59.8503 69.4239 55.3733 64.9345 52.1224 60.7383L51.986 60.5601L51.8467 60.368L52.4333 52.8924L52.5851 52.8873L52.7362 52.8821L53.1388 52.8682L53.2855 52.8631V52.7164C53.2715 51.4118 53.2693 50.0595 53.2664 48.6273C53.2598 44.8932 53.2532 40.9559 53.0339 37.433C53.9587 37.7799 54.8629 37.961 55.6813 37.961C56.0311 37.9629 56.38 37.9265 56.7219 37.8525C58.4547 37.4645 59.4051 36.0485 59.3985 33.8639C59.3985 33.2911 59.1353 30.1459 58.7774 26.9749C58.0888 20.8677 57.7368 20.6683 57.6041 20.5905C57.4713 20.5128 57.2535 20.4761 56.9778 20.4651C57.0409 19.9078 56.8957 18.7851 56.6067 17.6873C56.3706 16.7889 55.8485 15.1793 55.0022 14.4995C54.9942 14.4929 53.9756 13.7397 53.1689 13.3415L53.3632 11.7641C53.3765 11.6548 53.3459 11.5446 53.2781 11.4578C53.2104 11.3709 53.111 11.3144 53.0017 11.3007V11.3007C52.8923 11.2874 52.7822 11.318 52.6953 11.3857C52.6084 11.4535 52.552 11.5529 52.5382 11.6622L52.36 13.1076C52.2599 13.1142 52.1632 13.1466 52.0793 13.2016C51.9954 13.2566 51.9272 13.3323 51.8811 13.4215C51.766 13.6158 51.8599 13.8116 52.019 13.9817C51.9458 13.9961 51.8774 14.029 51.8203 14.0771C51.5453 13.849 51.2688 13.7463 50.9945 13.9363C50.5142 14.146 50.7518 14.7598 51.0268 15.4697C51.2622 16.0783 51.5299 16.7691 51.4756 17.3983C51.458 17.6037 51.5533 17.9652 51.7117 18.3744L51.48 20.2459C51.4735 20.3004 51.4778 20.3557 51.4927 20.4086C51.5076 20.4614 51.5328 20.5108 51.5669 20.5539C51.601 20.597 51.6433 20.6329 51.6913 20.6596C51.7393 20.6862 51.7921 20.7032 51.8467 20.7093C51.8635 20.7104 51.8804 20.7104 51.8973 20.7093C51.9989 20.7092 52.097 20.6718 52.1729 20.6042C52.2488 20.5366 52.2974 20.4436 52.3094 20.3427L52.3827 19.7311C52.6306 20.1395 52.888 20.471 53.0956 20.6008C53.1088 20.933 53.1227 21.1244 53.1799 21.2417C52.8205 21.4199 52.6225 21.6033 52.5771 21.7983C52.5712 21.8225 52.5712 21.8225 52.5771 22.4759C52.5771 23.0729 52.5844 24.0555 52.5807 24.8043C52.5807 24.8607 52.5771 24.9583 52.5807 25.0873C52.5771 25.4503 52.5712 25.7217 52.5602 25.8053L52.5947 25.8097C52.6005 26.0685 52.6079 26.3633 52.6167 26.6809C52.6255 26.9984 52.635 27.3834 52.6438 27.7721C52.4244 27.6989 52.213 27.6033 52.0131 27.4868C51.5731 27.2206 50.6931 26.8554 50.0331 26.5833C49.4853 26.2724 48.1133 25.828 46.7837 25.3975C46.2227 25.2157 45.6925 25.0441 45.2269 24.8842C45.0833 24.8716 44.9391 24.8662 44.7949 24.8681C44.6351 24.0709 44.4862 23.3068 44.4444 23.001L44.5089 22.9929C45.2063 22.9013 47.3286 22.6226 47.2956 20.9829C47.2523 18.7095 46.7089 16.6129 45.7688 15.0869C45.5796 14.7765 45.3652 14.4822 45.1279 14.2069C45.4462 14.0669 45.7226 13.8463 45.9295 13.5668C46.1365 13.2874 46.2669 12.9587 46.3078 12.6133C46.4127 11.7649 46.0145 10.9751 45.2364 10.5013C44.5229 10.0613 43.4104 10.2549 42.4556 10.6817C42.345 10.7828 42.2404 10.8903 42.1425 11.0037C42.0559 11.1027 41.976 11.2053 41.9034 11.3065C41.8054 11.4434 41.7183 11.5878 41.6431 11.7385C41.3291 12.3959 40.8957 12.9892 40.3649 13.4882L40.3333 13.5329L40.0847 13.3635C40.1027 13.3333 40.1238 13.305 40.1478 13.2792C40.6581 12.804 41.0736 12.2364 41.3725 11.6065C41.3871 11.5771 41.4025 11.5463 41.4194 11.5163C41.4553 11.4473 41.4964 11.3769 41.5419 11.3058C41.5873 11.2347 41.6445 11.1496 41.7017 11.0704C41.4605 11.1855 41.1554 11.2948 40.8129 11.418C40.1075 11.6703 39.2289 11.9849 38.5293 12.5099C37.5181 13.2697 37.4022 14.7657 37.7227 15.8334C37.7491 15.9199 37.7857 16.0578 37.8312 16.2316C37.2753 16.5939 37.2695 16.9862 37.5958 17.8149C37.7667 18.2424 37.95 18.7733 38.1333 19.2867C38.2895 19.7311 38.4142 20.0838 38.5132 20.3397C38.3196 20.2495 38.1465 20.2312 38.0402 20.3434C37.4601 20.9374 37.9493 21.7609 38.4223 22.5566C38.4611 22.6226 38.5015 22.6886 38.5418 22.7553C38.8857 23.3193 39.2407 23.9015 39.2275 24.9671C36.6366 25.8669 33.6967 27.3511 33.2515 28.5377L33.2471 28.5523C32.7602 30.4106 34.3288 52.371 34.3963 53.3045L34.4021 53.4417ZM75.3867 96.9393C74.7729 96.3842 74.0095 95.6927 74.5749 94.3235C75.4014 92.3201 74.4194 89.2041 72.9843 87.5505C72.2172 86.6705 71.4025 86.2803 70.6912 86.4622L70.6178 86.1689C71.445 85.9569 72.3668 86.3771 73.2124 87.351C73.9706 88.2251 74.5954 89.4615 74.9254 90.7456C75.2848 92.1389 75.2591 93.4523 74.8521 94.4365C74.3674 95.6098 74.9878 96.1715 75.5854 96.7098C75.9822 97.0684 76.3569 97.4072 76.3188 97.889L76.0188 97.8655C76.0467 97.537 75.7431 97.2598 75.3867 96.9393ZM81.1353 74.7655C81.2086 75.0112 81.29 75.6683 81.2138 75.9601C81.2028 76.0034 81.1404 76.0643 81.026 76.1325L80.9857 76.1493C80.3663 76.4018 79.7199 76.5819 79.0592 76.6861C78.6801 76.7389 78.2526 76.78 77.7664 76.8005L77.6498 76.8049C76.1684 76.824 74.5492 76.5329 72.7672 75.9301C72.7545 75.8977 72.7314 75.8704 72.7016 75.8525C72.6717 75.8346 72.6368 75.827 72.6022 75.8311C72.583 75.832 72.564 75.8355 72.5458 75.8413C72.5767 75.5962 72.5863 75.3489 72.5744 75.1021C72.5744 74.8821 72.5663 74.5646 72.6074 74.4597L72.6213 74.4649C73.5746 75.1901 75.5693 75.5854 77.4488 75.5854C78.859 75.5854 80.2018 75.3654 80.982 74.8917C81.0239 74.8659 81.0595 74.8311 81.0862 74.7897L81.1353 74.7655ZM73.8753 67.694C73.8753 67.5591 73.9486 66.7209 74.0623 65.8995C74.2977 64.2055 74.4781 64.1733 74.6094 64.1498L74.6622 64.4431C74.6757 64.4408 74.6886 64.4353 74.6996 64.427C74.4678 64.6565 74.176 67.3083 74.176 67.6911L73.8753 67.694ZM79.1282 67.1367C79.1282 66.4422 79.3606 65.7338 79.5858 65.0489C79.6518 64.8472 79.7148 64.6565 79.7713 64.4673L80.0595 64.5531C80.0016 64.7467 79.9356 64.9477 79.8718 65.1398C79.6518 65.7998 79.4318 66.4877 79.4318 67.1337L79.1282 67.1367ZM82.0094 70.004C82.4084 70.0099 82.7237 70.015 82.8982 70.2445C83.0449 70.4374 83.0508 70.7351 82.918 71.2419C82.8183 71.6203 82.5924 71.8945 82.2962 71.995C82.2117 72.023 82.1233 72.0371 82.0344 72.0368C81.8232 72.0368 81.5511 71.9635 81.2277 71.7083L81.2116 71.6936C80.8977 71.368 80.6777 70.7975 80.853 70.4073C80.9424 70.2079 81.1676 69.9754 81.733 69.9974C81.829 70.0011 81.9207 70.0025 82.008 70.004H82.0094ZM34.9067 53.1373H34.7563H34.683C34.6617 52.8359 34.6097 52.0725 34.5363 50.9909C34.5363 50.9659 34.5327 50.941 34.5312 50.9175C34.5312 50.8684 34.5246 50.8185 34.5209 50.7672C34.1132 44.792 33.1621 30.1195 33.5353 28.6315C33.8609 27.7889 35.9986 26.4917 38.6591 25.4877C38.6657 25.5259 38.6819 25.6087 38.7244 25.8148C38.7369 25.8749 38.7515 25.9475 38.7691 26.0348C38.7743 26.0612 38.7801 26.0876 38.786 26.1169C38.7948 26.1617 38.8051 26.2093 38.8146 26.2585C38.9356 26.8451 39.1145 27.7163 39.2465 28.3939C39.2553 28.4783 39.2656 28.5751 39.2766 28.6836C39.2817 28.7357 39.2876 28.7899 39.2927 28.8464C39.2979 28.9029 39.3037 28.9513 39.3096 29.0063C39.4563 30.4729 39.7291 33.2376 39.8581 34.8267C39.1028 36.7019 39.743 39.2619 40.9581 41.9877C38.8417 40.9867 36.5178 38.1289 34.7035 32.3811L34.4168 32.4713C36.3396 38.5682 38.8667 41.4795 41.14 42.3867C42.2723 44.8301 43.8299 47.3843 45.2305 49.6819C45.3831 49.9312 45.5327 50.1756 45.6793 50.4152L45.7688 50.5619L45.8583 50.7085C46.3034 51.4419 46.7148 52.1334 47.0727 52.767C42.504 52.9254 36.7261 53.1102 34.9067 53.1373ZM38.247 20.5605C38.3284 20.5605 38.5345 20.6851 38.7647 20.8648C38.8821 20.9565 39.006 21.0621 39.1226 21.1735L39.1351 21.1853L39.2245 21.2711L39.2509 21.2469L39.3287 21.1735L39.3668 21.1361L39.4739 21.0217L39.6271 20.8531C39.6359 20.8435 39.644 20.834 39.6535 20.8245L39.7841 20.6778C39.8332 20.6235 39.8853 20.5663 39.9403 20.5069C40.5526 19.8389 41.4979 18.843 42.2495 18.3231C42.2847 18.2989 42.3229 18.2747 42.3537 18.2497L42.394 18.2248C42.4453 18.1918 42.4937 18.1632 42.5407 18.1375C42.8604 17.9571 43.0188 17.9491 43.0965 17.9799C43.1215 17.9901 43.1985 18.0209 43.2476 18.227C43.2828 18.3737 43.2102 18.7007 43.1743 18.8577C43.1383 18.9127 43.0899 18.9919 43.0276 19.0901C42.944 19.2265 42.7687 19.5147 42.5993 19.7575C42.5443 19.8352 42.4908 19.9085 42.4409 19.9701C42.3946 20.0315 42.3409 20.0869 42.2811 20.1351C42.2688 20.1437 42.2555 20.1506 42.2415 20.1557L42.2657 20.2891L42.295 20.4512C42.3323 20.4435 42.3679 20.4296 42.4006 20.4101C42.4619 20.3729 42.5179 20.3275 42.5671 20.2752C42.757 20.0823 42.9858 19.7369 43.2843 19.2485L43.3327 19.1693C43.3535 19.1645 43.3739 19.1579 43.3935 19.1495C43.4522 19.1165 43.5215 19.1081 43.5864 19.1261C43.6421 19.1525 43.6913 19.2295 43.7287 19.3461C43.7705 19.4825 43.7052 19.7186 43.6553 19.8909C43.6121 20.0449 43.582 20.1593 43.5981 20.251C43.5519 20.3126 43.4991 20.3977 43.4287 20.5091C43.2733 20.7599 43.0621 21.1039 42.8113 21.2865L42.9887 21.5292C43.2821 21.3092 43.516 20.9425 43.6847 20.6675C43.7345 20.5869 43.7932 20.4923 43.8357 20.4351C43.8849 20.4617 43.9235 20.5044 43.945 20.5561C44.0579 20.7944 44.0125 21.3019 43.6473 21.8533C42.9037 22.9746 43.0115 24.1142 43.1845 24.86C43.1963 24.9121 43.2087 24.9627 43.2212 25.0103C43.2337 25.058 43.2483 25.113 43.2623 25.157C43.2857 25.2399 43.3077 25.3147 43.3275 25.377C43.3371 25.4063 43.3459 25.4364 43.3547 25.4657V25.4753C43.0965 25.443 42.6037 25.3909 41.921 25.3183C41.481 25.2721 40.9677 25.2179 40.5189 25.168C40.1427 25.1262 39.8149 25.0881 39.6154 25.0595L39.5267 25.058V25.0147C39.5267 24.9773 39.5267 24.9414 39.5267 24.9033C39.5267 24.8651 39.5267 24.8299 39.5267 24.7984C39.5222 24.5754 39.4994 24.3532 39.4585 24.134C39.3316 23.4703 39.0537 23.0135 38.7985 22.594L38.6804 22.3989C38.1605 21.5189 37.8737 20.9587 38.2463 20.559L38.247 20.5605ZM38.9715 20.6338L38.9583 20.6089C38.8689 20.4732 38.6386 19.8183 38.4157 19.1847C38.2353 18.6714 38.049 18.1383 37.8767 17.7019C37.6369 17.0918 37.5709 16.8051 37.9148 16.5367C37.9568 16.5041 38.0006 16.4739 38.0461 16.4465C38.0871 16.4215 38.1326 16.3959 38.1817 16.3731C38.3401 16.2903 38.5403 16.203 38.7897 16.1033C38.9598 16.0351 39.1483 15.9405 39.3477 15.8407C39.5895 15.7155 39.8375 15.6024 40.0906 15.5019C40.1507 15.4792 40.2094 15.4587 40.2666 15.4411C40.3238 15.4235 40.3847 15.4073 40.4404 15.3956C40.5222 15.377 40.6058 15.3672 40.6897 15.3663C40.787 15.3617 40.8839 15.3815 40.9716 15.4241C41.0592 15.4666 41.1348 15.5304 41.1913 15.6097C41.2229 15.653 41.2551 15.7029 41.2889 15.7564C41.3153 15.7997 41.3417 15.8466 41.3688 15.8965C41.3959 15.9463 41.4179 15.9889 41.4421 16.0387C41.7442 16.672 41.9991 17.3267 42.2048 17.9975L42.1901 18.007C41.4847 18.4631 40.5988 19.3622 39.9535 20.0552C39.8999 20.1124 39.8479 20.1681 39.798 20.2231L39.6418 20.3933L39.4299 20.6257L39.2201 20.856C39.1417 20.7827 39.0595 20.713 38.9774 20.647C38.9743 20.6426 38.9716 20.6379 38.9693 20.6331L38.9715 20.6338ZM44.4671 22.6996C44.2413 22.7289 44.1283 22.7436 44.1283 22.8873C44.1283 23.0509 44.275 23.8194 44.4847 24.8673C44.2017 24.8673 43.8592 24.8673 43.4962 24.8673C43.3268 24.1743 43.2029 23.0839 43.8995 22.0286C44.2801 21.4551 44.4055 20.8303 44.2193 20.4358C44.1904 20.3675 44.1475 20.3061 44.0932 20.2556C44.039 20.2051 43.9748 20.1665 43.9047 20.1425C43.9149 20.0941 43.9325 20.0288 43.9472 19.9767C44.0081 19.7567 44.0836 19.4832 44.0161 19.2632C43.9523 19.0586 43.8519 18.9215 43.7155 18.8569C43.6453 18.8239 43.5675 18.8105 43.4903 18.8181C43.5343 18.6149 43.5805 18.3414 43.538 18.1625C43.4815 17.9249 43.3701 17.7716 43.2058 17.7056C43.0232 17.6323 42.7856 17.6741 42.4725 17.8369C42.2811 17.2311 41.9503 16.335 41.6379 15.7571C41.7222 15.5879 41.784 15.4085 41.822 15.2233C42.0376 15.0084 43.9545 14.4995 44.8177 14.3132C46.0064 15.6251 46.9363 17.9938 46.9935 20.9909C47.0177 22.3667 45.0956 22.616 44.4649 22.6989L44.4671 22.6996ZM45.1425 25.1797C45.6067 25.3389 46.1318 25.509 46.6877 25.6887C47.5039 25.9534 48.3853 26.2387 49.0453 26.4865C49.1443 26.5474 49.3981 26.653 49.8791 26.8532L49.8989 26.8613C49.9217 26.8745 49.9429 26.8877 49.962 26.9001C51.282 28.0001 52.1334 30.7435 52.5697 35.2975C52.6218 35.8446 52.6673 36.4063 52.7069 36.9776C52.7142 37.0891 52.7223 37.2013 52.7296 37.3135C52.9577 40.8547 52.9643 44.7971 52.9709 48.6303C52.9709 50.0089 52.9753 51.3143 52.9885 52.5749L52.7685 52.5822L52.6174 52.5873L52.4663 52.5932C51.513 52.6255 49.6232 52.6907 47.4159 52.7641C47.0617 52.1305 46.6517 51.4441 46.2081 50.7063L46.1179 50.5597C46.0885 50.5105 46.0585 50.4614 46.0284 50.413C45.8539 50.1251 45.6749 49.8317 45.4916 49.533L45.3611 49.3181C45.3361 49.0373 45.5994 48.0253 45.8744 46.9553C46.5513 44.3535 47.4738 40.8056 46.7683 39.4255C47.1032 38.3242 47.1536 37.1561 46.915 36.0301C46.8732 35.8226 46.7933 35.3665 46.6825 34.7351C46.4354 33.3175 46.0607 31.1755 45.6705 29.3282C45.5613 28.8149 45.463 28.3749 45.3721 28.0001C45.2254 27.3812 45.0978 26.9361 44.9915 26.6156C44.8712 26.2489 44.7715 26.0458 44.6981 25.9285C44.6772 25.8876 44.6485 25.8513 44.6135 25.8216C44.5785 25.7919 44.538 25.7694 44.4943 25.7554C44.3725 25.7151 44.0792 25.641 43.6876 25.5545C43.6751 25.4907 43.6517 25.4122 43.6201 25.3095C43.6077 25.2677 43.5937 25.2223 43.5798 25.1731H44.5478H44.7011H44.8551C44.9981 25.1739 45.1 25.1761 45.1403 25.179L45.1425 25.1797ZM39.9234 36.0155L40.2211 36.0617C40.2739 35.7221 39.8471 31.3815 39.6447 29.3678L39.7181 29.3627C39.7181 29.315 39.7005 29.2211 39.6785 29.0906C39.6704 29.0429 39.6609 28.9909 39.6506 28.9337L39.622 28.7753C39.5003 28.1248 39.2832 27.0615 39.0764 26.0546C39.0632 25.993 39.0515 25.9336 39.0397 25.8764C39.0236 25.8031 39.0089 25.7297 38.9965 25.6674C38.9774 25.5735 38.9627 25.5009 38.9554 25.4628V25.4525C38.9554 25.4459 38.9649 25.4371 38.9833 25.4247C39.0603 25.3797 39.1456 25.3507 39.2341 25.3396C39.2663 25.3345 39.3001 25.3293 39.336 25.3257C39.3634 25.3346 39.3913 25.3417 39.4196 25.3469C39.4651 25.3557 39.5171 25.3631 39.5751 25.3719C39.7144 25.3917 39.9117 25.4159 40.1786 25.4452C40.6685 25.5024 41.3175 25.5706 41.8895 25.6307C42.6228 25.7077 43.3767 25.7877 43.4786 25.8097C43.4833 25.81 43.4879 25.81 43.4925 25.8097C43.9025 25.8962 44.2259 25.9754 44.3894 26.0297C44.4495 26.0649 44.6519 26.3186 45.0611 28.0016C45.0802 28.0749 45.0985 28.1571 45.1183 28.2399C45.133 28.3015 45.1477 28.3646 45.1623 28.4291C45.2357 28.732 45.309 29.0723 45.3882 29.4558C45.7717 31.2811 46.1399 33.385 46.3826 34.7769C46.4933 35.4112 46.574 35.8688 46.6173 36.0807C47.2039 38.9811 45.892 41.7127 43.6216 42.3001C42.933 42.4783 42.1645 42.4468 41.3593 42.1535C40.249 39.7393 39.5743 37.4557 39.9146 35.6811C39.9251 35.7922 39.928 35.9039 39.9234 36.0155ZM42.7533 42.7137C43.072 42.7142 43.3894 42.674 43.6979 42.5942C45.0333 42.2488 46.0607 41.2177 46.6114 39.8508C47.0243 41.3233 46.1655 44.6255 45.5803 46.8732C45.3369 47.8104 45.1697 48.4623 45.0963 48.8869C43.8577 46.8519 42.5414 44.6475 41.5331 42.5275C41.9285 42.649 42.3397 42.7117 42.7533 42.7137V42.7137ZM51.7543 57.8021L51.4697 57.9003C51.3421 57.5337 50.2363 53.8149 50.0507 52.9738C50.0361 52.9085 50.0273 52.8601 50.0243 52.833L50.1747 52.8191L50.3213 52.8059C50.3213 52.8059 50.3213 52.8117 50.3213 52.8139C50.3213 52.8433 50.3353 52.8939 50.3514 52.9606C50.5531 53.8105 51.6215 57.42 51.7543 57.8021ZM52.9217 17.8933C52.8396 17.6733 52.7567 17.4438 52.6885 17.2473C52.6438 17.1189 52.6057 17.0053 52.5778 16.9129C52.5778 16.9019 52.5705 16.8894 52.5675 16.8784C52.5299 16.7528 52.5 16.6249 52.4781 16.4956C52.4231 16.1575 52.5008 16.0989 52.5052 16.0959C52.5122 16.092 52.52 16.0895 52.5279 16.0886C52.537 16.0877 52.5461 16.0877 52.5551 16.0886C52.5966 16.0903 52.6376 16.0983 52.6768 16.1121C52.7272 16.128 52.7762 16.1479 52.8235 16.1715C52.8689 16.1942 52.921 16.2228 52.9804 16.2587L53.0075 16.28L53.0031 16.2881L53.0523 16.3145C53.1571 16.3959 53.2495 16.4611 53.3177 16.5139C53.3923 16.5711 53.4696 16.6244 53.5495 16.6738C53.7875 16.8782 54.0062 17.104 54.2029 17.3485L54.4405 17.1644C54.1354 16.7827 53.7782 16.4458 53.3793 16.1634C53.2957 16.1025 53.2151 16.0483 53.1403 16.0028C53.0537 15.9346 52.9628 15.8605 52.8711 15.7828C52.8249 15.7447 52.7795 15.7058 52.734 15.6662C52.6885 15.6266 52.6423 15.5848 52.5976 15.5445C52.5243 15.4777 52.4553 15.411 52.3908 15.3457C52.3424 15.2973 52.2977 15.2489 52.2566 15.2027C52.2101 15.1502 52.1663 15.0954 52.1253 15.0385C52.1085 15.015 52.0931 14.9923 52.0799 14.9695C52.0164 14.8658 51.9736 14.7507 51.9537 14.6307C51.9407 14.5785 51.9383 14.5242 51.9467 14.471C51.9552 14.4178 51.9743 14.3669 52.0029 14.3213C52.0155 14.3072 52.0314 14.2964 52.0491 14.2897C52.1038 14.2713 52.163 14.2713 52.2177 14.2897C52.2535 14.2987 52.2885 14.3102 52.3226 14.3242L52.3629 14.3418L52.4363 14.3726L52.5096 14.4019L52.5499 14.4188C52.6057 14.4445 52.6651 14.4738 52.7289 14.5068C52.7744 14.531 52.822 14.5567 52.8704 14.5845C52.9188 14.6124 52.9635 14.6381 53.0119 14.6667C53.4461 14.9285 53.9469 15.301 54.2637 15.6684L54.4918 15.4719C54.1383 15.0627 53.5546 14.6285 53.0523 14.3403C53.0039 14.3132 52.9569 14.2868 52.91 14.2619L52.8469 14.2281C52.8236 14.2057 52.7978 14.186 52.7699 14.1695L52.7509 14.157C52.6775 14.1115 52.613 14.0697 52.5558 14.0301C52.4986 13.9905 52.4568 13.9605 52.4165 13.9297C52.3607 13.8857 52.3153 13.8475 52.2793 13.8131C52.1129 13.6532 52.14 13.5879 52.1459 13.5777C52.1637 13.5403 52.189 13.5069 52.2203 13.4798C52.2516 13.4527 52.2882 13.4323 52.3277 13.42C52.3778 13.4085 52.4295 13.4063 52.4803 13.4134C52.5299 13.4199 52.579 13.4305 52.6269 13.4449C52.7019 13.4675 52.7754 13.4947 52.8469 13.5263C52.8924 13.5454 52.9393 13.5667 52.9936 13.5909L53.0119 13.5997C53.053 13.6195 53.0948 13.64 53.1366 13.662C53.8927 14.0521 54.8167 14.7327 54.8233 14.7371C56.1169 15.7755 56.8121 19.5155 56.6859 20.4571C56.6126 20.4571 56.5143 20.4666 56.4051 20.4791C55.5889 20.5729 54.0005 20.9337 53.6917 21.0371H53.6793C53.6058 21.0661 53.5296 21.088 53.4519 21.1024C53.4182 21.0291 53.4079 20.757 53.3962 20.4424C53.3845 20.1278 53.3683 19.6797 53.3229 19.0879C53.3031 18.9435 53.1579 18.5401 52.9217 17.8933ZM51.7733 17.424C51.8327 16.7251 51.5401 15.9691 51.3047 15.3611C51.0495 14.7011 50.9095 14.2934 51.1221 14.2076L51.1397 14.201L51.1551 14.1893C51.2915 14.0895 51.4602 14.1621 51.6626 14.3411C51.6061 14.5662 51.6626 14.8617 51.8173 15.125C51.8906 15.2413 51.9751 15.3501 52.0696 15.4499L51.7975 17.6594C51.7786 17.5824 51.7705 17.5032 51.7733 17.424V17.424ZM52.4414 19.2317L52.6042 17.9117C52.6145 17.941 52.6255 17.9703 52.6365 17.9997C52.7993 18.4463 53.0031 19.0021 53.0119 19.1173C53.0464 19.5573 53.0647 19.9151 53.0765 20.2011C52.8305 19.9024 52.6185 19.5773 52.4443 19.2317H52.4414ZM51.8496 27.7486C51.9127 27.7867 52.4289 28.0676 52.6431 28.0801C52.668 29.2285 52.6827 30.3886 52.635 30.5441L52.921 30.6372C52.9995 30.3937 52.9657 28.842 52.9093 26.6772C52.8924 26.0253 52.877 25.4393 52.8733 25.0947C52.8799 24.4259 52.8733 23.4285 52.8733 22.4789C52.8733 22.1855 52.8733 21.9259 52.8733 21.8599C52.8931 21.8042 52.9907 21.6517 53.4703 21.4427C53.5612 21.4031 53.6587 21.3649 53.7636 21.3283L53.7768 21.3231C54.131 21.1992 55.5837 20.8905 56.3339 20.7863C56.4967 20.7731 56.6493 20.7651 56.7879 20.7636L56.9059 20.7966L56.9162 20.7636C57.167 20.768 57.3562 20.7951 57.4574 20.8494C57.5256 20.9183 57.8725 21.5431 58.4973 27.1062C58.8471 30.2287 59.1037 33.3109 59.1052 33.8646C59.1118 35.9223 58.267 37.1998 56.6632 37.5584C55.6292 37.7894 54.3473 37.6229 53.02 37.103C52.7267 32.6729 52.0769 28.9417 50.6455 27.17C51.0591 27.3385 51.4621 27.5318 51.8525 27.7486H51.8496Z" fill="black"/>
<path d="M56.0537 97.1909C52.8923 97.064 50.5537 95.9838 49.4691 92.6515L49.5285 92.8334C49.4038 92.8994 49.1735 92.95 48.8773 92.9896C48.8897 92.8693 48.9029 92.7439 48.9161 92.6178C48.9609 92.1976 48.9961 91.847 49.0239 91.553L48.8773 91.5611L48.7247 91.5691C48.6903 91.9263 48.6514 92.2915 48.6206 92.5863C48.6045 92.7403 48.5891 92.8869 48.5744 93.0263C47.7443 93.1055 46.5812 93.1201 45.6741 93.1319C45.6741 92.6794 45.6697 92.1646 45.6682 91.7341L45.5179 91.7422L45.3712 91.7503C45.3712 92.0392 45.3712 92.3663 45.3712 92.6867C45.3712 92.84 45.3712 92.9911 45.3712 93.1363C45.0045 93.1414 44.6936 93.1473 44.4993 93.159C44.7655 93.9209 44.6034 94.8985 44.5726 95.7601C45.2326 96.3314 46.0605 96.6526 47.0219 97.0259C47.4546 97.1938 47.9019 97.3676 48.3786 97.5788L48.4629 97.6155C49.3767 98.0129 50.3102 98.4955 50.3051 99.0506C50.305 99.0864 50.3009 99.1221 50.2926 99.1569C52.9011 99.1613 57.3641 98.9443 57.9288 98.6927C57.9251 98.6898 57.6846 97.2561 56.0537 97.1909Z" fill="black"/>
<path d="M37.8767 94.7605C37.8723 95.1917 37.8686 95.6405 37.8422 96.0483C37.7425 97.6007 37.6772 98.6501 37.6838 99.0226C38.0608 98.9903 38.4392 98.9773 38.8175 98.9838C39.0258 98.9838 39.2055 98.9838 39.2986 98.9764C39.5047 98.9654 39.6323 98.7909 39.7899 98.5452C39.9205 98.3421 40.0561 98.1331 40.2959 98.1463C40.5357 98.1595 40.7579 98.411 41.0821 99.0659C41.3893 99.162 42.9792 99.2991 45.2577 99.3739C47.8977 99.4604 49.3453 99.3974 49.5755 99.3006C49.6697 99.2662 49.7576 99.2166 49.8359 99.1539C49.8531 99.1413 49.8677 99.1255 49.8788 99.1072C49.8899 99.089 49.8972 99.0687 49.9004 99.0476C49.9004 98.9376 49.7471 98.6134 48.2995 97.9835L48.2123 97.9454C48.0143 97.8574 47.8207 97.7767 47.63 97.699L47.5567 97.6689C47.3242 97.575 47.0969 97.4863 46.8732 97.3998C46.0086 97.0639 45.2239 96.7596 44.5625 96.2712C43.8057 95.7124 43.2095 94.9123 42.8369 93.5476C42.4947 93.6133 42.1476 93.651 41.7993 93.6605L41.6526 93.6671L41.5015 93.6723C40.6883 93.6987 39.6682 93.6869 38.6283 93.6679H38.4773H38.4575H38.3262L37.9148 93.6605C37.8847 93.9304 37.8811 94.3359 37.8767 94.7605Z" fill="black"/>
<path d="M38.3892 17.1401C38.3702 17.1343 38.3505 17.1311 38.3306 17.1306C38.2783 17.1316 38.2284 17.1527 38.1913 17.1896C38.1543 17.2265 38.133 17.2763 38.1318 17.3286V17.3286C38.132 17.3813 38.153 17.4317 38.1903 17.4689C38.2275 17.5061 38.2779 17.5271 38.3306 17.5273H38.3445C38.3945 17.5237 38.4413 17.5014 38.4757 17.4648C38.51 17.4283 38.5294 17.3802 38.53 17.3301C38.5299 17.2875 38.5161 17.2462 38.4908 17.212C38.4655 17.1778 38.4299 17.1527 38.3892 17.1401Z" fill="black"/>
<path d="M50.7019 11.0044C50.934 11.1345 51.1533 11.2862 51.3568 11.4576L51.5599 11.2376C51.3421 11.0531 51.1071 10.8898 50.8581 10.7499C50.5236 10.5614 50.211 10.3363 49.9261 10.0789C49.9209 10.0738 49.1135 9.45487 49.0402 9.4292L48.9815 9.60007L48.9185 9.70273C48.9764 9.73867 49.6599 10.2461 49.7193 10.2975C50.0199 10.5684 50.3494 10.8055 50.7019 11.0044V11.0044Z" fill="black"/>
<path d="M50.4901 12.3566L50.6235 12.0875C50.3302 11.9408 49.8117 11.8418 49.3094 11.7443C48.9858 11.6901 48.6658 11.6167 48.351 11.5243L48.2534 11.8066C48.5815 11.9043 48.9153 11.9817 49.2529 12.0384C49.7347 12.133 50.2334 12.2298 50.4901 12.3566Z" fill="black"/>
<path d="M48.4873 13.2124V13.5131C48.713 13.5067 48.9379 13.4846 49.1605 13.4471C49.3853 13.4089 49.6124 13.3866 49.8403 13.3804V13.0797C49.5979 13.0857 49.3563 13.109 49.1172 13.1494C48.909 13.1849 48.6985 13.206 48.4873 13.2124V13.2124Z" fill="black"/>
<path d="M81.1249 70.5305C81.0105 70.7857 81.1872 71.2316 81.4182 71.4772C81.7115 71.7031 81.9799 71.783 82.197 71.7097C82.3957 71.643 82.5512 71.4442 82.6245 71.1656C82.7257 70.7798 82.736 70.5312 82.6568 70.4264C82.5776 70.3215 82.3202 70.3098 82.0027 70.3046C81.9132 70.3046 81.8186 70.3046 81.7196 70.298C81.3999 70.2856 81.1997 70.364 81.1249 70.5305Z" fill="black"/>
</g>
<defs>
<clipPath id="clip0">
<rect width="110" height="99" fill="white"/>
</clipPath>
</defs>
</svg>
