<svg version="1.0" xmlns="http://www.w3.org/2000/svg"
 width="922.000000pt" height="862.000000pt" viewBox="0 0 922.000000 862.000000"
 preserveAspectRatio="xMidYMid meet">
<g transform="translate(0.000000,862.000000) scale(0.100000,-0.100000)"
fill="#000000" stroke="none">
<path d="M2297 8600 c-77 -12 -180 -63 -231 -114 -87 -87 -112 -188 -88 -370
7 -61 15 -113 17 -115 2 -2 11 4 20 13 12 12 36 16 90 16 48 0 77 4 81 12 5 7
9 43 10 80 2 83 19 112 82 141 43 19 68 22 290 25 173 3 242 7 242 16 0 19
-48 114 -75 150 -82 108 -273 171 -438 146z"/>
<path d="M2450 8250 c-74 -4 -147 -12 -161 -18 -44 -17 -59 -49 -59 -120 0
-35 -4 -72 -10 -82 -14 -26 -63 -40 -118 -33 -38 4 -52 1 -73 -16 l-26 -20 17
-98 c40 -216 52 -253 127 -374 41 -68 61 -137 69 -245 l7 -81 -134 -7 c-116
-6 -136 -10 -151 -26 -13 -16 -29 -20 -81 -20 -112 0 -246 -52 -397 -153 -82
-55 -113 -79 -275 -213 -60 -50 -191 -153 -290 -229 -136 -104 -226 -184 -370
-329 -317 -318 -446 -522 -462 -731 -11 -141 42 -253 164 -345 104 -79 290
-160 426 -185 50 -10 47 -21 -8 -30 -124 -18 -263 -85 -345 -165 -125 -122
-171 -347 -200 -980 -31 -666 -40 -1215 -40 -2384 l0 -1206 25 0 25 0 0 810 0
810 770 0 770 0 0 -810 0 -810 25 0 25 0 0 1310 0 1310 1605 0 c1598 0 1605 0
1605 20 0 20 -7 20 -1610 20 l-1610 0 0 75 0 75 713 1 c669 1 708 2 652 17
-51 13 -157 16 -711 19 l-651 3 -7 233 c-17 587 -56 1073 -106 1315 -34 161
-72 224 -165 268 l-50 24 303 -2 c230 -2 305 -6 311 -16 4 -7 22 -92 40 -190
18 -97 37 -181 41 -185 4 -4 13 -1 20 7 10 13 -11 135 -120 693 -152 778 -218
1118 -225 1151 -6 26 -35 30 -35 5 0 -10 13 -81 29 -157 16 -77 27 -145 24
-152 -6 -16 -120 -104 -298 -229 l-140 -99 -175 3 c-143 1 -290 12 -353 24 -6
1 -12 -5 -14 -14 -3 -11 5 -18 24 -22 61 -13 335 -26 676 -33 354 -6 357 -7
362 -28 3 -11 36 -178 74 -370 l68 -349 -436 6 c-553 7 -741 26 -976 98 -305
94 -465 242 -465 434 0 259 314 665 816 1055 109 85 260 204 334 266 294 241
451 324 617 324 l63 0 0 -260 c0 -247 1 -261 20 -280 19 -19 31 -20 243 -18
202 3 222 5 225 21 3 16 -13 17 -221 17 l-224 0 -7 263 c-4 145 -4 270 -1 279
4 10 24 18 58 22 74 9 975 8 980 -1 2 -5 8 -108 11 -230 l8 -222 -26 -26 c-36
-36 -108 -34 -271 10 -352 95 -331 90 -359 77 -64 -29 -43 -92 57 -168 51 -39
212 -115 255 -121 28 -4 42 -11 42 -21 0 -29 -95 -9 -192 42 -48 25 -93 46
-98 46 -29 0 6 -117 43 -148 45 -38 265 -102 346 -102 44 0 51 -3 51 -20 0
-15 -7 -20 -27 -20 -59 0 -162 22 -255 55 -94 32 -117 33 -82 4 9 -7 26 -36
39 -64 45 -100 127 -160 280 -206 164 -50 380 -121 387 -128 4 -3 -33 -48 -81
-100 l-87 -95 -47 128 c-26 70 -47 132 -47 137 0 5 -9 9 -20 9 -11 0 -20 -2
-20 -4 0 -2 18 -55 41 -117 113 -314 165 -467 219 -639 29 -91 92 -281 141
-424 49 -142 89 -262 89 -266 0 -4 -171 -10 -380 -13 -386 -7 -645 -20 -825
-41 l-100 -11 2 -105 c6 -307 97 -614 248 -840 120 -179 272 -309 451 -384
216 -91 382 -120 629 -113 397 12 785 116 1610 429 230 88 304 114 470 165 90
27 170 24 227 -10 134 -78 218 -306 236 -640 7 -118 11 -140 35 -188 75 -147
506 -694 965 -1224 l143 -165 62 34 c34 18 188 100 342 181 154 81 282 149
283 150 25 21 -545 1071 -1031 1900 -321 548 -374 631 -449 702 -84 80 -228
141 -389 164 -91 13 -1343 15 -2089 3 l-395 -6 -103 298 c-57 165 -126 372
-153 461 -27 90 -65 207 -84 260 -19 53 -33 98 -31 100 2 2 192 -72 422 -165
l418 -168 111 -274 c189 -465 189 -465 213 -468 12 -2 22 -1 22 2 0 2 -24 62
-54 133 -79 188 -235 573 -232 573 1 0 40 -14 86 -31 46 -16 145 -47 220 -69
669 -189 970 -33 799 411 -104 269 -406 608 -729 818 -47 30 -159 107 -250
171 -450 319 -684 450 -895 501 -44 10 -97 19 -117 19 -37 0 -38 1 -38 34 0
56 -25 66 -157 66 -112 0 -113 0 -119 26 -4 14 -4 47 -2 75 4 43 12 56 59 107
67 70 92 111 113 181 33 111 23 182 -66 494 l-62 217 -115 -2 c-64 -1 -177 -4
-251 -8z m741 -1249 c112 -29 222 -74 344 -142 178 -99 275 -166 275 -189 0
-16 6 -20 28 -18 22 2 70 -27 213 -129 101 -72 218 -152 259 -178 326 -210
629 -545 730 -808 64 -165 62 -271 -7 -348 -117 -130 -460 -113 -913 45 -206
72 -309 117 -303 132 7 18 -27 31 -36 15 -6 -9 -83 18 -275 96 l-268 108 159
155 c107 105 193 201 267 298 59 78 109 142 111 142 1 0 62 -29 136 -63 74
-35 161 -75 194 -88 33 -13 63 -28 66 -33 10 -13 39 1 39 17 0 8 -26 24 -62
37 -70 25 -408 183 -478 224 l-45 25 -21 -20 -22 -20 -66 30 c-128 58 -227
186 -316 409 -58 146 -88 192 -126 192 -23 0 -24 3 -24 65 l0 65 33 0 c19 0
67 -9 108 -19z m499 -776 c49 -25 60 -38 40 -50 -5 -3 -53 -63 -107 -133 -57
-75 -160 -189 -250 -278 -84 -83 -153 -155 -153 -162 0 -10 -116 31 -134 48
-8 8 529 600 546 600 5 0 31 -11 58 -25z m-1901 -403 c13 -70 26 -133 28 -139
4 -10 -37 -13 -188 -12 -107 0 -202 3 -211 7 -13 5 21 34 141 120 87 62 166
121 176 132 10 11 21 20 24 20 3 0 17 -57 30 -128z m-559 -985 c224 -53 259
-86 304 -284 48 -215 81 -627 111 -1385 l7 -158 -766 0 -766 0 0 33 c0 214 36
956 55 1138 41 391 99 511 299 610 131 64 224 80 456 75 163 -4 212 -8 300
-29z m425 -1931 c4 -36 4 -69 0 -75 -4 -8 -234 -11 -771 -11 l-764 0 0 75 0
75 764 0 764 0 7 -64z m-5 -606 l0 -480 -770 0 -770 0 0 480 0 480 770 0 770
0 0 -480z"/>
<path d="M6885 6699 c-51 -19 -94 -58 -120 -109 -14 -27 -25 -53 -25 -58 0 -5
-20 -30 -46 -56 -79 -83 -82 -126 -10 -126 l45 0 7 -56 c3 -31 3 -196 0 -368
-5 -210 -4 -329 4 -366 22 -116 92 -221 199 -302 l33 -25 14 -154 c7 -84 12
-154 11 -155 -1 0 -54 -8 -117 -17 -248 -34 -415 -129 -490 -278 -30 -58 -70
-198 -70 -242 0 -21 26 -57 33 -46 2 2 13 48 25 103 12 54 33 122 46 152 89
194 395 305 751 274 222 -19 385 -67 446 -131 40 -42 65 -118 93 -284 41 -244
96 -1042 96 -1391 l0 -54 -321 0 c-289 0 -321 -2 -315 -16 3 -9 6 -18 6 -20 0
-2 140 -4 310 -4 l310 0 0 -70 0 -70 -266 0 c-239 0 -266 -2 -260 -16 3 -9 6
-18 6 -20 0 -2 121 -4 269 -4 l269 0 2 -484 c1 -387 -2 -485 -12 -489 -10 -3
-10 -9 1 -28 11 -17 14 -51 12 -117 -2 -85 0 -93 16 -90 17 3 18 43 18 818 -1
976 -20 1466 -75 1919 -35 284 -67 396 -130 460 -57 57 -192 102 -374 124
l-98 12 4 97 c3 54 7 100 10 103 2 3 39 -9 81 -25 86 -33 269 -87 509 -150
179 -46 198 -45 198 16 0 34 -45 135 -97 217 -14 22 -62 110 -108 196 -45 86
-137 246 -205 355 -203 331 -294 529 -315 686 -16 124 -81 227 -170 272 -47
24 -155 33 -200 17z m-5 -268 c0 -22 -48 -40 -122 -47 -98 -9 -100 0 -16 79
l62 59 38 -40 c21 -23 38 -46 38 -51z m208 -1260 l52 -25 0 -51 c0 -29 -3 -80
-6 -114 l-7 -61 -42 0 -42 0 -7 98 c-4 53 -9 117 -13 141 -3 24 -2 42 3 40 5
-2 33 -15 62 -28z"/>
<path d="M5475 3539 c-55 -15 -127 -38 -160 -50 -132 -47 -450 -171 -456 -177
-7 -7 4 -72 60 -372 86 -465 130 -1064 131 -1763 l0 -259 48 6 c26 3 223 20
437 37 215 17 392 33 394 36 23 19 23 1721 0 1993 -30 367 -142 582 -303 579
-28 0 -96 -14 -151 -30z"/>
<path d="M3755 2990 l-90 -18 609 -1 c551 -1 608 0 602 15 -3 9 -6 18 -6 20 0
2 -231 3 -512 3 -445 -1 -525 -4 -603 -19z"/>
<path d="M6230 1620 l0 -766 -35 -13 c-19 -7 -57 -27 -84 -45 l-49 -33 5 38
c15 107 -34 198 -100 185 -47 -9 -75 -43 -87 -103 -5 -29 -7 -58 -5 -65 4 -10
-31 -13 -156 -14 -142 -1 -399 -15 -576 -30 l-63 -6 1 -306 c1 -169 4 -334 8
-366 6 -56 8 -60 36 -68 40 -11 330 -15 377 -5 30 6 39 13 44 35 32 150 72
214 118 190 29 -15 32 -22 61 -114 24 -77 27 -83 64 -97 99 -40 459 -46 921
-17 164 11 177 13 200 36 35 35 34 93 -3 132 -35 37 -53 44 -305 133 -302 105
-368 139 -475 243 l-37 37 57 31 c32 17 64 35 71 40 9 8 12 -9 12 -80 0 -87 5
-102 36 -102 2 0 4 50 4 110 0 104 2 113 24 137 44 47 41 113 -4 113 -20 0
-20 9 -20 465 l0 465 220 0 c121 0 220 4 220 8 0 28 -30 32 -232 32 l-208 0 0
258 c0 240 -2 259 -20 282 -19 25 -20 21 -20 -740z m-230 -697 c20 -25 22 -37
18 -111 -6 -109 -17 -120 -70 -64 -39 43 -40 45 -36 102 4 59 26 100 54 100 7
0 22 -12 34 -27z"/>
<path d="M8010 1893 c-19 -24 -22 -37 -18 -98 4 -59 12 -85 50 -157 l44 -86
-120 1 -121 2 -75 -38 c-61 -31 -432 -269 -464 -298 -13 -12 344 -528 406
-587 l25 -22 139 70 c76 38 155 83 174 99 l35 30 -23 63 c-12 35 -22 79 -22
98 0 70 39 77 135 26 60 -32 67 -33 116 -24 115 21 337 126 659 311 96 55 187
108 203 116 33 19 40 39 31 85 -7 43 -45 82 -85 91 -17 4 -68 -3 -123 -15 -92
-22 -105 -22 -428 -14 l-333 9 59 29 c33 16 84 53 113 81 44 42 53 57 53 86 0
45 -15 59 -62 59 -45 0 -102 -27 -153 -71 l-35 -31 0 33 c0 55 -19 107 -52
144 -40 46 -95 49 -128 8z m100 -35 c30 -32 43 -94 37 -173 -5 -71 -14 -105
-26 -105 -3 0 -25 40 -48 88 -33 67 -43 99 -43 138 0 74 37 98 80 52z m290
-106 c0 -25 -61 -81 -150 -137 -41 -26 -76 -52 -78 -56 -2 -5 -7 -9 -12 -9
-15 0 39 99 77 141 61 68 163 106 163 61z"/>
<path d="M7705 1641 c-3 -6 -119 -69 -258 -142 -138 -73 -254 -134 -255 -135
-3 -2 60 -93 85 -123 1 -2 11 3 20 11 36 31 382 258 427 280 25 12 46 26 46
30 0 5 -9 27 -20 48 -20 40 -33 49 -45 31z"/>
<path d="M5450 919 c-107 -9 -221 -19 -252 -20 l-58 -2 0 -45 0 -45 83 7 c172
14 385 26 459 26 42 0 79 4 82 8 2 4 2 27 -1 50 l-6 42 -56 -1 c-31 -1 -144
-10 -251 -20z"/>
<path d="M7833 623 c-10 -3 -13 -60 -13 -234 0 -222 1 -229 20 -229 19 0 20 7
20 235 0 129 -3 235 -7 234 -5 0 -14 -3 -20 -6z"/>
</g>
</svg>
