<svg width="129" height="43" viewBox="0 0 130 43" fill="none" xmlns="http://www.w3.org/2000/svg">
<path d="M113.826 41.9927L113.848 41.8676C116.782 41.7174 128.391 42.8943 128.342 39.2469C128.288 35.241 124.18 30.1058 119.857 24.2631C119.942 24.2547 120.062 24.1222 120.361 23.8683C120.454 23.7853 119.272 22.3302 119.173 22.1799C118.498 21.1439 118.622 21.1533 118.012 21.6031C116.539 18.4783 120.83 16.9719 119.01 11.9254C120.305 8.69701 117.424 5.85315 112.84 7.13834C112.28 6.93954 111.674 6.94514 111.378 7.40061C111.192 7.69274 110.678 7.20648 109.658 7.52754C108.943 7.75248 109.144 8.21541 108.705 8.61954C108.57 8.74461 107.636 9.25701 107.604 10.0783C107.205 10.4115 106.802 10.7718 106.391 11.1638C106.247 11.1398 106.102 11.1276 105.957 11.1274C104.584 11.1274 103.471 12.1671 103.471 13.4505C103.471 13.6992 103.514 13.946 103.597 14.1803C103.52 14.2867 103.444 14.3941 103.37 14.5042L99.833 11.4718C99.9664 15.0091 94.2181 18.0574 93.099 20.2358C93.0131 20.4047 92.9282 20.5681 92.8451 20.7286L87.5522 18.1153C86.0785 17.1418 82.655 14.7077 82.5841 14.5854C82.5827 14.5818 82.5827 14.5778 82.5841 14.5742L83.6891 14.2569C85.1003 13.9769 87.6007 13.5961 89.6335 13.3413C90.3858 13.2479 94.6735 12.4154 96.612 11.8106C97.452 11.8787 98.964 11.4317 99.8348 11.4681C100.913 11.5147 101.956 10.5646 102.344 9.63501C102.53 9.19448 103.097 8.235 103.769 7.15047C104.768 6.51394 106.817 5.34261 106.359 4.43354C106.244 4.20768 105.972 4.16008 105.636 4.20955C106.083 3.51328 106.449 2.94115 106.632 2.63968C107.664 0.938214 107.631 0.679679 106.513 0.702079C105.637 0.717013 103.778 0.765548 103.34 0.832748C102.747 0.926082 102.656 1.00541 101.753 2.15994C101.652 2.28874 101.549 2.42377 101.445 2.56501H101.437C99.5016 2.87955 98.8483 2.96448 97.7899 4.85261C97.5332 5.30994 97.354 5.61607 97.2066 5.89047C92.1918 6.05007 84.0223 7.01048 81.7692 7.37728C78.0359 7.97741 76.8385 7.51074 74.2531 10.1138C71.4531 12.9343 74.0842 17.5077 75.5663 18.8787C76.061 19.337 79.8522 23.2271 82.0614 25.3663C80.834 25.329 79.575 25.2637 78.2795 25.1526C70.9193 24.5217 66.4943 23.9561 66.4943 23.9561L66.4831 24.1567C63.264 19.3743 62.019 16.047 57.0667 10.9538C53.3007 7.07861 47.4655 9.18047 43.4765 13.2619C38.5298 18.3243 33.3358 25.9889 29.7042 31.531C22.0844 32.5483 15.021 33.2847 9.73085 33.2847C9.73085 33.6133 9.72525 33.9474 9.71685 34.2825C8.87218 34.3758 8.25618 34.4449 8.25618 34.4449C8.20507 34.6644 8.13287 34.8785 8.04058 35.0842C8.08445 34.5083 8.10592 34.1341 8.09192 34.1126C5.62138 30.3466 6.91778 23.7423 2.28565 23.8786C1.67525 23.8963 0.308848 40.9464 0.0353816 42.184C-0.011285 42.5499 7.20431 42.5145 7.40871 42.2158C7.41525 42.2065 7.47125 41.638 7.54965 40.8064C8.02938 40.8438 8.66965 40.8811 9.36125 40.9175C9.34725 41.2909 9.33978 41.6483 9.33978 41.9927H68.7772L68.7885 41.9395L81.6684 41.7333L113.826 41.9927ZM117.059 33.3127C117.028 33.2941 115.946 33.2194 115.337 33.1793C115.354 33.0654 115.366 32.9861 115.371 32.9497C115.371 32.9497 110.278 30.7675 108.683 29.6139C107.785 28.9628 106.838 28.3821 105.851 27.877C107.475 26.1597 109.423 23.7171 111.039 21.6377C111.262 22.5897 112 23.313 112.454 24.2865C112.499 24.3798 112.692 24.7111 112.972 25.1862C113.042 25.3113 113.129 25.455 113.212 25.5894C114.438 27.6493 116.744 31.5123 117.226 32.8815C116.929 32.2142 116.666 31.6682 116.589 31.5655L117.312 33.2623C117.307 33.3921 117.23 33.4191 117.059 33.3127ZM45.9386 29.0885L48.7983 28.7291L45.8667 29.1753L45.9386 29.0885Z" fill="white"/>
<path d="M114.988 42.1851L115.01 42.0526C115.592 42.033 116.46 42.0525 117.444 42.0787C118.395 42.1011 119.466 42.1272 120.567 42.1272C123.956 42.1272 127.631 41.8808 128.982 40.5405C129.16 40.3745 129.3 40.1731 129.395 39.9493C129.49 39.7256 129.537 39.4844 129.533 39.2414C129.483 35.5276 126.08 30.9636 122.148 25.6781C121.814 25.2301 121.475 24.7737 121.136 24.3145C121.178 24.28 121.223 24.2399 121.277 24.1923C121.33 24.1447 121.403 24.0812 121.485 24.0112C121.658 23.8628 121.519 23.6519 121.212 23.2281C121.013 22.9481 120.759 22.6243 120.572 22.3881C120.46 22.2435 120.354 22.1081 120.333 22.0755C120.255 21.9551 120.187 21.8496 120.129 21.7563C119.862 21.3381 119.755 21.1645 119.552 21.1281C119.397 21.1001 119.272 21.1739 119.092 21.3055C118.605 20.0707 119.073 19.1009 119.637 17.9343C120.368 16.4223 121.194 14.7105 120.214 11.9292C120.529 11.1135 120.601 10.2912 120.406 9.51465C120.07 8.18185 119.006 7.19531 117.479 6.80798C116.359 6.52798 115.131 6.57558 113.839 6.93585C113.639 6.86804 113.429 6.82999 113.218 6.82292C112.77 6.81638 112.429 6.97878 112.218 7.30265C112.127 7.30916 112.037 7.30128 111.949 7.27931C111.502 7.18539 111.039 7.20821 110.604 7.34558C110.089 7.50798 109.962 7.79918 109.85 8.05585C109.793 8.21578 109.7 8.36068 109.579 8.47958C109.566 8.49172 109.52 8.52438 109.479 8.55332C109.182 8.76518 108.499 9.25145 108.424 9.98972C108.06 10.2946 107.698 10.6188 107.337 10.9623C107.213 10.9458 107.089 10.9373 106.964 10.937C105.488 10.937 104.287 12.0655 104.287 13.4515C104.287 13.6878 104.323 13.9228 104.393 14.1487C103.355 15.5991 102.852 17.0541 102.905 18.4299C102.14 19.5405 102.305 20.8724 102.625 21.8832C102.452 22.1361 102.252 22.3975 102.025 22.6849C101.745 23.0424 101.431 23.4465 101.124 23.9076L101.025 24.0579L94.1101 20.64L94.2743 20.3208C94.6635 19.5629 95.6874 18.6501 96.771 17.6832C98.7515 15.9173 100.988 13.9228 101.031 11.6585C102.115 11.5923 103.132 10.6496 103.523 9.70878C103.699 9.28505 104.255 8.34612 104.912 7.28865L105.154 7.13652C106.299 6.41878 108.03 5.33331 107.532 4.34865C107.481 4.24977 107.404 4.16639 107.309 4.10703C107.215 4.04767 107.106 4.01446 106.995 4.01078C107.357 3.44425 107.642 2.99905 107.798 2.73958C108.446 1.67185 108.703 1.13797 108.511 0.803839C108.365 0.549039 108.021 0.502378 107.513 0.511711C106.783 0.523844 104.786 0.571444 104.313 0.645177C103.637 0.749711 103.514 0.880377 102.606 2.04518C102.52 2.15531 102.432 2.27104 102.342 2.39144C100.433 2.70038 99.7185 2.81704 98.6274 4.76211C98.5266 4.94225 98.4407 5.09811 98.3586 5.23811C98.2578 5.41451 98.1719 5.56571 98.0954 5.70478C92.9471 5.87745 84.7123 6.87332 82.743 7.18972C81.9665 7.31478 81.2963 7.39412 80.7055 7.46318C78.4534 7.72918 77.213 7.87478 75.1214 9.98318C74.2375 10.8727 73.8035 11.9945 73.8315 13.3161C73.8801 15.6327 75.3865 18.0481 76.4449 19.0235C76.6409 19.2045 77.3782 19.9568 78.3218 20.9023C80.3126 22.9127 81.6613 24.2623 82.5834 25.1629C81.5166 25.1237 80.4265 25.0612 79.3046 24.9651C72.033 24.3425 67.5707 23.7751 67.5269 23.7695L67.4522 23.7601C66.6038 22.4833 65.8889 21.3045 65.1851 20.1444C63.4053 17.2081 61.7234 14.4343 58.2103 10.8195C56.8542 9.41945 55.1854 8.71478 53.2525 8.71198H53.2422C50.3722 8.71198 47.0477 10.3621 44.3457 13.1276C39.4102 18.1788 34.2237 25.8209 30.5967 31.3547C22.9985 32.3692 16.0227 33.0925 10.7401 33.0925H10.5534V33.2839C10.5534 33.5564 10.5487 33.8317 10.5431 34.1089C9.91779 34.1752 9.44273 34.2303 9.29526 34.248C9.29526 34.0613 9.28313 34.0333 9.26539 34.0072C8.36286 32.6333 7.97272 30.8777 7.59566 29.1791C6.96753 26.3548 6.37393 23.6845 3.43486 23.6845C3.38633 23.6845 3.34152 23.6845 3.28832 23.6845C3.05592 23.6911 2.85526 23.6976 2.30926 28.3335C2.00686 30.9095 1.68299 34.2135 1.42259 36.8725C1.16686 39.4859 0.945658 41.7389 0.856992 42.1403V42.1571C0.849525 42.2122 0.856992 42.3503 1.05859 42.4268C1.47579 42.5836 3.16886 42.6377 4.63232 42.6377H4.99539C8.37686 42.6163 8.51593 42.4091 8.57566 42.3204C8.59433 42.2915 8.61206 42.2654 8.73153 41.0138C9.08713 41.0399 9.55379 41.0688 10.1707 41.1005C10.1605 41.4076 10.1549 41.7063 10.1549 41.9947V42.1814H66.2725H66.4759H69.9293L69.9414 42.1253L82.6637 41.9219L114.988 42.1851ZM8.97326 38.2063C9.10766 36.6933 9.18793 35.7357 9.23273 35.1263C9.31859 34.9097 9.38019 34.7445 9.41939 34.6195C9.78619 34.5765 10.1567 34.5345 10.5254 34.4953C10.489 35.6592 10.4097 36.8464 10.3313 38.0056C10.2678 38.9529 10.2071 39.8639 10.1735 40.7123C9.64246 40.6834 9.15432 40.6544 8.75672 40.6273C8.81086 40.0533 8.87993 39.2665 8.97326 38.2063ZM10.9165 34.0697C10.9165 33.8709 10.9239 33.6731 10.9249 33.4752C16.1263 33.4584 22.9182 32.7593 30.313 31.7784L30.8142 31.7121C35.843 31.0392 41.1378 30.2403 46.3925 29.4413L46.9674 29.3536L47.8074 29.2248C49.2242 29.0089 50.6242 28.7964 52.0074 28.5873L52.4087 28.5267C55.4253 28.0712 58.341 27.64 61.0887 27.2592C61.1354 27.3115 61.1821 27.3619 61.2241 27.4067L61.4247 27.2135C63.4361 26.9335 65.3559 26.6871 67.1563 26.4771L66.7653 33.3735C65.8889 33.4939 61.3127 33.856 56.1253 34.2377L55.4981 34.2835C50.3563 34.6568 44.747 35.0469 41.611 35.2317L41.0277 35.2653C40.1447 35.3148 39.5269 35.3428 39.2674 35.3428C35.9615 35.3428 32.1041 35.5164 28.1859 35.7292L27.7109 35.7553C26.5909 35.8169 25.4615 35.8813 24.3434 35.942C21.4333 36.1081 18.4634 36.278 15.6718 36.3919L15.4851 36.3993L15.2938 36.4068C13.7221 36.4693 12.2138 36.5113 10.8045 36.5253C10.8465 35.8328 10.8819 35.1384 10.9025 34.4515C10.9025 34.3871 10.9025 34.3236 10.9025 34.2648L10.9165 34.0697ZM101.44 24.1148C101.739 23.6649 102.036 23.2841 102.323 22.9145C102.484 22.7092 102.638 22.5113 102.779 22.3172C102.926 22.6923 103.105 23.054 103.315 23.398L103.328 23.3896C102.826 23.9076 102.504 24.84 102.22 25.9796C101.736 25.8632 101.248 25.7615 100.757 25.6744C100.761 25.408 100.823 25.1456 100.938 24.9053C101.101 24.6384 101.272 24.3733 101.443 24.1148H101.44ZM129.147 39.2488C129.152 39.4411 129.115 39.6322 129.04 39.8092C128.964 39.9862 128.852 40.1452 128.711 40.2755C127.031 41.9321 121.036 41.7865 117.451 41.6997C116.704 41.6811 116.064 41.6661 115.543 41.6661C115.373 41.6661 115.217 41.6661 115.076 41.6661H114.969C115.006 41.3526 115.08 40.7375 115.174 39.9731C115.336 38.6599 115.556 36.9061 115.751 35.4865C115.879 34.5588 115.997 33.7739 116.08 33.3492H116.112L116.299 33.3623L116.491 33.3753C117.133 33.4183 117.831 33.4687 117.985 33.4883C118.031 33.5199 118.082 33.5418 118.137 33.5529C118.191 33.564 118.248 33.5639 118.302 33.5527C118.705 34.486 119.104 35.4716 119.149 35.7115L119.522 35.6424C119.468 35.3484 118.887 33.9241 118.394 32.8088C118.345 32.6688 118.276 32.4989 118.184 32.2927C117.962 31.8008 117.612 31.1195 117.144 30.2673C116.422 28.9541 115.524 27.43 114.825 26.254C115.129 26.2139 115.43 26.1537 115.726 26.0739C117.147 25.7136 119.666 24.798 120.155 23.6911C120.27 23.8372 120.378 23.9893 120.478 24.1465C120.571 24.2884 120.634 24.3892 120.738 24.4265C121.111 24.924 121.474 25.4168 121.834 25.9012C125.733 31.1419 129.102 35.6601 129.15 39.2488H129.147ZM59.2837 35.6153C53.7229 35.9355 44.537 36.3807 40.2231 36.5487L39.6165 36.572C38.8213 36.6019 38.2557 36.6177 37.9999 36.6177C34.5821 36.6177 30.887 36.8417 27.3077 37.0602L27.1957 37.0667L26.8223 37.0891C23.0545 37.3187 19.1839 37.5464 15.6886 37.5025H15.4973H15.3059H15.2303C13.8303 37.4755 12.9558 37.6099 12.0243 37.7527C11.6183 37.8143 11.2002 37.8787 10.7177 37.9337C10.7401 37.5968 10.7634 37.2571 10.7849 36.9164C12.1998 36.9033 13.7202 36.8604 15.3013 36.7988L15.4879 36.7913L15.6793 36.7829C18.4793 36.6691 21.4529 36.5029 24.3686 36.3331C25.3953 36.2743 26.4219 36.2155 27.4486 36.1585L27.9246 36.1324C31.9379 35.9131 35.8915 35.7311 39.2683 35.7311C39.4233 35.7311 39.8993 35.7077 40.6207 35.6667L41.2106 35.6321C44.3102 35.4455 50.4973 35.0311 56.0385 34.6316L56.8281 34.5747C61.5461 34.2312 65.649 33.9101 66.7401 33.7683L66.6617 35.1608C66.2725 35.1963 65.7442 35.2019 65.341 35.2056C64.7138 35.2121 64.1211 35.2177 63.8187 35.2989C63.6685 35.3391 62.7081 35.4119 61.239 35.5043C60.6687 35.5341 60.0089 35.5733 59.2865 35.6153H59.2837ZM85.9565 30.23C86.0899 30.23 86.2206 30.23 86.3522 30.2375C86.8795 30.2524 87.3901 30.2879 87.8707 30.3308C88.8927 30.4307 89.6375 30.3597 90.1882 30.1441C90.2762 30.1109 90.3619 30.0719 90.4449 30.0275C90.5175 29.9899 90.588 29.9482 90.6558 29.9024C91.6059 29.2491 91.7487 27.9648 91.9307 26.3343C91.9597 26.0729 91.9895 25.8023 92.0241 25.5232C92.0315 25.4597 92.0399 25.3953 92.0483 25.3309C92.0567 25.2665 92.0661 25.204 92.0754 25.1396C92.1333 24.7261 92.2061 24.2996 92.3031 23.8619C92.414 23.3605 92.5596 22.8674 92.739 22.3863C92.9497 21.8256 93.2168 21.2877 93.5361 20.7809C93.5575 20.7464 93.579 20.7119 93.6023 20.6773L93.6397 20.7025L93.9197 20.8892L93.8786 20.9536C93.5559 21.4579 93.2878 21.9951 93.0787 22.5561C92.7781 23.3917 92.5703 24.2577 92.459 25.1387C92.4497 25.2021 92.4403 25.2665 92.4319 25.3253L92.4067 25.5167C92.3703 25.8079 92.3386 26.0944 92.3069 26.3744C92.1361 27.9079 91.9858 29.2537 91.1103 30.0349C91.0553 30.0844 90.9974 30.1283 90.9367 30.1759C90.8761 30.2235 90.7995 30.2692 90.7258 30.3131C90.093 30.6808 89.1783 30.8367 87.8325 30.7051C87.3425 30.6575 86.8207 30.622 86.2831 30.6117C86.1534 30.6117 86.0227 30.6061 85.8911 30.6052C83.5345 30.5903 80.9286 31.0121 79.2561 32.5997C77.4939 34.2723 77.3577 36.348 78.2443 37.3887C79.131 38.4293 81.1377 38.6954 84.1766 36.3835C84.9053 35.8188 85.7317 35.3929 86.6145 35.1272C86.7405 35.0899 86.8655 35.0572 86.9878 35.0273C89.2063 34.4981 91.4519 35.0609 93.6453 35.6125C94.5319 35.8365 95.4037 36.0559 96.2586 36.1968C96.4733 36.2323 96.687 36.2631 96.8989 36.2901C98.5257 36.4768 100.072 36.3079 101.504 35.2401C104.054 33.338 103.643 31.5068 102.974 29.7241C102.944 29.6429 102.912 29.5617 102.881 29.4796L102.787 29.2332L102.765 29.1763C102.558 28.6759 102.38 28.1639 102.232 27.6428C102.132 27.2811 102.083 26.9073 102.087 26.5321C102.087 26.4687 102.093 26.4061 102.098 26.3455C102.104 26.2848 102.112 26.2139 102.123 26.1485C102.131 26.1019 102.139 26.0552 102.149 26.0067L102.21 26.0207L102.522 26.0888C102.512 26.1392 102.504 26.1896 102.496 26.24C102.486 26.3063 102.478 26.3725 102.475 26.4388C102.475 26.4864 102.475 26.5321 102.475 26.5816C102.467 27.3544 102.788 28.1767 103.128 29.0381C103.18 29.1697 103.232 29.3023 103.283 29.4357C103.314 29.516 103.344 29.5963 103.376 29.6765C103.408 29.7568 103.433 29.8343 103.461 29.9136C104.082 31.6748 104.352 33.604 101.744 35.5491C100.041 36.8193 98.2223 36.9043 96.3146 36.5981C96.099 36.5636 95.8834 36.5244 95.6613 36.4815C94.9715 36.3433 94.2715 36.1679 93.5613 35.9887C91.4519 35.4585 89.2931 34.9163 87.1782 35.3876C87.0513 35.4165 86.9234 35.4492 86.7955 35.4856C85.9317 35.733 85.123 36.1429 84.4127 36.6933C82.6543 38.0336 81.1983 38.5423 80.0755 38.5423C79.1235 38.5423 78.4114 38.1773 77.9569 37.6425C76.9685 36.4824 76.9974 34.2247 78.9957 32.3225C80.7709 30.6435 83.5083 30.2067 85.9593 30.23H85.9565ZM111.799 21.4296C111.806 21.4856 111.815 21.5407 111.827 21.5948C110.28 23.5828 108.39 25.9488 106.805 27.6419C105.461 26.9704 104.048 26.4444 102.592 26.0729C102.872 24.9753 103.181 24.0569 103.641 23.6164C103.728 23.6005 103.963 23.5735 104.211 23.5445C105.837 23.3569 109.992 22.8744 111.801 21.4296H111.799ZM113.798 25.2712C113.859 25.3813 113.941 25.5176 114.044 25.6856L114.145 25.8555C114.197 25.9488 114.252 26.0356 114.307 26.128C114.316 26.1483 114.327 26.1672 114.341 26.184C115.05 27.3787 115.954 28.9065 116.714 30.2795C117.025 30.8395 117.267 31.2949 117.456 31.6664L117.433 31.6851C117.501 31.7719 117.76 32.3225 118.056 32.9917C118.074 33.0468 118.087 33.0916 118.097 33.128C117.993 33.1056 117.682 33.0767 116.555 33.0011C116.555 32.9908 116.555 32.9815 116.555 32.974L116.573 32.8303L116.44 32.7733C116.39 32.7519 111.349 30.5865 109.789 29.4591C108.953 28.853 108.074 28.3075 107.16 27.8267C108.678 26.1999 110.439 24 111.959 22.0531C112.127 22.4973 112.389 22.8996 112.658 23.3112C112.89 23.6492 113.097 24.0032 113.279 24.3705C113.328 24.4667 113.496 24.7579 113.801 25.2712H113.798ZM119.293 17.7681C118.691 19.0132 118.119 20.1948 118.867 21.7367L118.823 21.7469C118.83 21.7777 119.01 22.0605 119.229 22.3835C119.158 22.4329 119.08 22.4936 118.991 22.5636C118.328 23.0797 116.778 24.2865 113.875 24.6421C113.745 24.4181 113.655 24.2623 113.629 24.2053C113.44 23.8211 113.223 23.4509 112.981 23.0975C112.674 22.6261 112.386 22.1837 112.249 21.6797C112.227 21.5992 112.21 21.5176 112.197 21.4352C112.182 21.3426 112.173 21.249 112.169 21.1552C112.169 21.1011 112.169 21.046 112.169 20.99C112.169 20.9228 112.177 20.8537 112.185 20.7828C112.193 20.7119 112.204 20.6484 112.217 20.5793C112.309 20.1595 112.467 19.7567 112.683 19.3856C112.777 19.2176 113.088 18.9712 113.47 18.6949L113.628 18.582L113.783 18.4728L113.964 18.3459C114.215 18.1704 114.484 17.9819 114.754 17.7859C114.883 17.6907 115.012 17.5933 115.14 17.4937L115.172 17.4695L115.314 17.3556C115.365 17.3155 115.414 17.2744 115.463 17.2343L115.541 17.168L115.608 17.1101C116.168 16.6248 116.662 16.0891 116.923 15.5141C117.057 15.232 117.125 14.923 117.121 14.6107C117.099 13.6904 117.401 13.1323 117.681 13.0025C117.735 12.9779 117.794 12.9687 117.852 12.9762C117.91 12.9836 117.965 13.0073 118.011 13.0445C118.012 13.0853 118.024 13.1251 118.045 13.16C118.066 13.1948 118.096 13.2236 118.132 13.2433C118.141 13.3544 118.146 13.4421 118.145 13.472C118.139 13.7333 118.121 13.9816 118.092 14.2187C118.064 14.4551 118.022 14.6898 117.967 14.9215C117.833 15.474 117.607 16.0002 117.3 16.4783L117.622 16.6845C118.066 15.994 118.351 15.2132 118.455 14.3988C118.482 14.2121 118.501 14.0105 118.514 13.8061C118.52 13.6997 118.525 13.5915 118.528 13.4804C118.528 13.3871 118.503 13.0557 118.466 12.6301C118.466 12.5984 118.461 12.5667 118.458 12.5368C118.535 12.3828 118.667 12.324 118.804 12.2633C118.848 12.2437 118.892 12.2232 118.934 12.1999C118.984 12.3128 119.027 12.4052 119.038 12.4425V12.4491C119.099 12.6357 119.15 12.8131 119.195 12.9885C119.24 13.164 119.274 13.3217 119.302 13.4841C119.302 13.4991 119.302 13.5149 119.308 13.5299C119.338 13.7064 119.358 13.8842 119.37 14.0628C119.402 14.5641 119.359 15.0673 119.244 15.5561L119.617 15.6429C119.815 14.7947 119.812 13.9119 119.608 13.0651C119.57 12.9002 119.526 12.7319 119.475 12.5601C119.455 12.4929 119.433 12.4248 119.411 12.3567C119.411 12.3473 119.405 12.338 119.402 12.3287C119.382 12.268 119.308 12.1019 119.206 11.8769V11.8667L119.212 11.8564C119.267 11.7599 119.34 11.6754 119.429 11.6081C119.459 11.5835 119.497 11.5697 119.537 11.5689C119.605 11.5689 119.711 11.6623 119.804 11.9152C119.87 12.0953 119.928 12.2708 119.979 12.4416C120.701 14.8533 119.956 16.3961 119.293 17.7681ZM104.688 14.3867C104.73 14.3269 104.773 14.2672 104.818 14.2075C104.882 14.1225 104.946 14.0376 105.014 13.9527C105.778 12.9981 106.661 12.1447 107.641 11.4131C107.709 11.3617 107.773 11.3197 107.827 11.2731C107.881 11.2264 107.963 11.1797 108.014 11.1414C108.065 11.1032 108.119 11.0733 108.159 11.0481C108.301 10.9622 108.443 10.8826 108.583 10.8092C108.751 11.1141 108.972 11.3863 109.237 11.6128C109.186 11.7388 109.143 11.8573 109.112 11.9703C109.088 12.0552 109.069 12.1355 109.053 12.2129C109.037 12.3146 109.028 12.4172 109.027 12.52C108.994 12.8379 109.075 13.1571 109.254 13.4216C109.308 13.497 109.371 13.5659 109.441 13.6269C109.496 13.6768 109.556 13.7221 109.618 13.7623C109.65 13.7819 109.681 13.8005 109.712 13.8173C109.898 14.6844 110.854 15.0381 111.374 15.2313C111.457 15.2621 111.555 15.2985 111.61 15.3247C111.716 16.0797 111.913 16.426 112.159 16.622C112.218 16.5865 112.28 16.5529 112.346 16.5212C112.412 16.4867 112.481 16.454 112.551 16.4279H112.56C113.008 16.2379 113.498 16.1723 113.979 16.238C114.461 16.3037 114.916 16.4983 115.296 16.8012L115.347 16.8432L115.235 16.9365L115.2 16.9664C115.149 17.0084 115.098 17.0495 115.047 17.0905C114.645 16.7686 114.145 16.5949 113.63 16.5987C113.425 16.5991 113.221 16.6254 113.022 16.6771C112.946 16.6969 112.87 16.7205 112.796 16.748C112.764 16.7601 112.73 16.7723 112.697 16.7863C112.665 16.8003 112.61 16.8264 112.566 16.8479C112.067 17.0845 111.667 17.4893 111.437 17.9912C111.317 18.2474 111.252 18.5258 111.245 18.8088C111.238 19.0917 111.29 19.373 111.397 19.6348C111.508 19.9003 111.675 20.1388 111.886 20.3339C111.867 20.4067 111.851 20.4776 111.838 20.5476C111.825 20.6176 111.813 20.6932 111.804 20.7632C111.796 20.8332 111.792 20.8836 111.788 20.9424C110.24 22.4609 105.837 22.9733 104.173 23.1647C103.832 23.2039 103.66 23.2244 103.565 23.2431L103.644 23.1927C103.405 22.7908 103.208 22.3658 103.055 21.9243C103.51 21.2093 103.744 20.4869 103.461 19.4976C103.016 17.9417 103.389 16.2851 104.567 14.5649C104.604 14.5071 104.646 14.4483 104.688 14.3867ZM50.0605 25.4271C50.3647 25.5671 51.1151 26.8989 51.8245 28.2271L47.7579 28.8449L47.3417 28.9075C48.4449 27.5849 49.3997 26.366 50.0605 25.4271ZM50.4394 25.2516C50.4515 25.0575 50.2023 24.7728 49.3978 23.9225C49.0329 23.5361 48.4803 22.9509 48.4346 22.8147L48.0613 22.8791C48.0958 23.0816 48.3954 23.4157 49.1234 24.1857C49.3782 24.4545 49.7254 24.8213 49.9186 25.0593C49.8571 25.0844 49.8044 25.1273 49.7674 25.1825C49.0114 26.2605 47.9474 27.6036 46.7751 28.9971C44.4418 29.3517 42.0954 29.7073 39.7686 30.0527C40.2138 29.586 41.4775 27.9704 45.5282 22.3993L45.8661 21.9327C46.1218 21.5845 46.3551 21.2383 46.5801 20.906C47.6898 19.2577 48.5662 17.9567 50.8939 17.9567C52.587 17.9567 55.1611 21.6657 57.0409 24.3743C57.8295 25.5101 58.5239 26.5116 59.0774 27.1547C56.8766 27.4692 54.5834 27.808 52.2295 28.1655C51.369 26.5583 50.8351 25.6371 50.4394 25.2516ZM59.5291 27.0931C58.9691 26.4892 58.2225 25.4065 57.3517 24.1587C55.3161 21.2261 52.7783 17.5768 50.8902 17.5768C48.359 17.5768 47.3855 19.0216 46.259 20.6951C46.0359 21.0264 45.8045 21.3699 45.5543 21.7124C45.4909 21.7983 45.3742 21.9588 45.2146 22.1791C40.7533 28.3111 39.5857 29.7568 39.3915 29.8893C39.3989 29.8843 39.4071 29.8805 39.4158 29.8781L39.4905 30.0947L38.0205 30.3112C38.3938 29.9584 39.5446 28.5117 43.8603 22.5795C44.0181 22.3629 44.1329 22.2061 44.1954 22.1193L44.4623 21.7535C45.923 19.7431 48.121 16.72 50.7231 16.72H50.837C53.6417 16.8133 56.9839 21.564 59.195 24.7056C59.8063 25.5745 60.3561 26.3539 60.805 26.9129C60.3831 26.9727 59.9585 27.0315 59.5291 27.0931ZM10.5422 41.1192C10.5422 41.0548 10.5422 40.9923 10.5478 40.9269C10.5534 40.8616 10.5534 40.7991 10.5553 40.7403C10.5861 39.9768 10.6383 39.1648 10.6943 38.3211C11.2142 38.2632 11.6575 38.196 12.0859 38.1297C13.0398 37.9841 13.8639 37.8572 15.2266 37.8843H15.3115C15.375 37.8843 15.4394 37.8843 15.5029 37.8843H15.6895C19.1027 37.9272 22.8641 37.7125 26.5405 37.4895L27.0305 37.4596L27.2171 37.4475C30.8254 37.2272 34.5559 36.9995 37.9981 36.9995C38.1446 36.9995 38.5217 36.9883 39.0798 36.9687L39.7462 36.9435C44.2495 36.7671 55.9451 36.2229 61.2586 35.8841C62.5419 35.802 63.4529 35.732 63.8001 35.6825C63.8416 35.6777 63.8827 35.6702 63.9233 35.6601C64.1781 35.592 64.7745 35.5864 65.3503 35.5808C65.8767 35.5808 66.3079 35.5677 66.6449 35.5388L66.6337 35.7432L66.6122 36.1231L66.2893 41.7996H10.5273C10.5291 41.5793 10.5347 41.3516 10.5422 41.1192ZM119.485 21.508C119.606 21.6485 119.714 21.8007 119.806 21.9625C119.865 22.0559 119.934 22.1632 120.013 22.2845C120.041 22.3275 120.116 22.4245 120.27 22.6224C120.497 22.9145 120.994 23.5557 121.14 23.8049L121.023 23.9085C120.983 23.944 120.942 23.9795 120.907 24.0093C120.673 23.6932 120.439 23.3747 120.204 23.0536C120.111 22.7652 119.882 22.5169 119.681 22.3228C119.674 22.3167 119.667 22.3111 119.66 22.306L119.634 22.2696C119.493 22.0764 119.367 21.8734 119.255 21.662C119.326 21.6032 119.403 21.5516 119.485 21.508ZM117.385 7.17852C118.769 7.53038 119.735 8.41612 120.034 9.60519C120.179 10.2078 120.16 10.8382 119.978 11.4308C119.931 11.3607 119.869 11.3022 119.797 11.2595C119.724 11.2169 119.642 11.1912 119.558 11.1844C119.531 11.1821 119.504 11.1821 119.477 11.1844C119.498 10.8885 119.462 10.6113 119.207 10.3668C118.725 9.90012 118.5 9.37838 118.301 8.91358C117.97 8.13985 117.657 7.40905 116.306 7.40905H116.229C116.038 7.40905 115.756 7.50238 115.482 7.59571C115.33 7.64957 115.174 7.69476 115.016 7.73105C114.849 7.50777 114.637 7.32181 114.394 7.18505C115.455 6.95452 116.464 6.94425 117.385 7.17852ZM102.972 19.0916C103.002 19.2644 103.041 19.4354 103.09 19.604C103.187 19.9043 103.221 20.2215 103.188 20.5355C103.156 20.8495 103.059 21.1534 102.903 21.4277C102.714 20.7016 102.647 19.8532 102.972 19.0916ZM96.5199 17.4004C95.3607 18.4345 94.3593 19.3268 93.9374 20.1481L93.7703 20.4739L88.6697 17.9595C87.4377 17.1428 84.7114 15.2304 83.9349 14.6284C84.7823 14.3885 87.8138 13.892 90.6633 13.5355C91.1579 13.4739 93.1525 13.0987 95.0331 12.674C96.2633 12.394 97.0864 12.1803 97.6464 12.0076C97.6996 12.0076 97.7547 12.0076 97.8117 12.0076C98.2401 12.0076 98.7674 11.9199 99.305 11.8293C99.7493 11.7445 100.199 11.6875 100.65 11.6585C100.6 13.7576 98.4342 15.6933 96.5199 17.4004ZM98.5443 5.69451L98.6946 5.42851C98.7749 5.28758 98.8644 5.13078 98.9652 4.95065C99.8939 3.29398 100.449 3.09611 102.024 2.83291L102.292 2.78904L102.407 2.76945L102.476 2.75918L102.56 2.74704C102.717 2.72357 102.876 2.71141 103.035 2.71065C103.621 2.71065 103.938 2.89731 103.982 3.06717C104.045 3.31544 103.625 3.75505 102.555 4.13305C102.513 4.14739 102.473 4.16782 102.436 4.19371C102.149 4.20958 101.822 4.23291 101.503 4.26278C101.42 4.27025 101.337 4.27864 101.256 4.28798C101.174 4.29731 101.09 4.30664 101.009 4.31598C100.77 4.34359 100.532 4.38347 100.297 4.43545C100.267 4.44142 100.239 4.45355 100.214 4.47106C100.189 4.48857 100.167 4.51108 100.152 4.53718C100.174 4.49951 100.211 4.4721 100.253 4.46065L100.29 4.84144C100.335 4.83912 100.38 4.82497 100.418 4.80038C100.512 4.77984 100.614 4.76024 100.733 4.74158C100.811 4.72944 100.894 4.71732 100.982 4.70612C101.07 4.69492 101.146 4.68558 101.231 4.67531C101.846 4.60441 102.463 4.56484 103.081 4.55678C103.455 4.57451 103.548 4.63331 103.565 4.67345C103.618 4.79291 103.481 5.40518 102.911 5.66185C102.767 5.72718 102.651 5.77758 102.557 5.81865C102.419 5.83638 102.183 5.86065 101.941 5.88585L101.709 5.90918C101.171 5.96425 100.698 6.01372 100.35 6.05852L100.264 6.06972L100.103 6.09305C99.9994 6.10892 99.9163 6.12478 99.8529 6.13972L99.8081 6.15091C99.7739 6.15983 99.7393 6.16699 99.7045 6.17238C99.4689 6.21274 99.2381 6.27717 99.0157 6.36465L99.1585 6.71931C99.2948 6.66489 99.4352 6.62151 99.5785 6.58958C99.6531 6.57185 99.7203 6.55972 99.7754 6.54945L99.8305 6.53825C99.8591 6.5333 99.8875 6.52676 99.9154 6.51865C99.9729 6.50357 100.031 6.49173 100.09 6.48318C100.452 6.42251 101.186 6.34785 101.748 6.28998L101.904 6.27412L102.097 6.25451C102.115 6.28867 102.141 6.31784 102.173 6.33945L102.179 6.34412C102.178 6.43495 102.153 6.52397 102.108 6.60265C102.084 6.65491 102.055 6.71465 102.014 6.78931C101.933 6.92167 101.82 7.03144 101.685 7.10852C101.643 7.13529 101.6 7.1599 101.555 7.18225C101.453 7.2344 101.348 7.27962 101.24 7.31758C101.14 7.35398 101.041 7.38572 100.948 7.41092C100.455 7.39972 99.7922 7.66571 99.2425 7.89345L99.1809 7.91865L98.9485 8.01198C98.843 8.05492 98.7441 8.09225 98.6685 8.11652C98.6333 8.12903 98.5971 8.13809 98.5602 8.14358H98.5163L98.4473 8.18371L98.5406 8.34145L98.5835 8.41798L98.5919 8.52251C98.6124 8.52251 98.6349 8.51692 98.6591 8.51225C98.7518 8.49165 98.8426 8.46355 98.9307 8.42825C99.0399 8.38718 99.1706 8.33492 99.3302 8.26772C99.6261 8.14545 99.9835 7.99612 100.319 7.89438C100.345 7.93426 100.382 7.96644 100.425 7.98772C100.62 8.08945 100.612 8.17998 100.612 8.21825C100.556 8.74745 98.8878 9.69852 98.5368 9.79558C98.2103 9.88953 97.911 10.0604 97.6642 10.294C97.4983 10.4414 97.3727 10.6287 97.2993 10.8381C97.2816 10.8987 97.2747 10.9618 97.2787 11.0248C97.2801 11.0471 97.2832 11.0692 97.2881 11.0911C97.2514 11.1952 97.2352 11.3055 97.2404 11.4159C97.2012 11.3892 97.1638 11.3598 97.1285 11.3281C97.0777 11.2807 97.0323 11.2278 96.9931 11.1704C96.9491 11.1089 96.9125 11.0425 96.8839 10.9725C96.5769 10.1988 97.1415 8.94625 97.4794 8.19772C97.5839 7.96718 97.6661 7.78518 97.7099 7.64985C97.9685 6.85838 98.1169 6.49252 98.3343 6.07625C98.3922 5.95958 98.4613 5.83451 98.5406 5.69451H98.5443ZM107.194 4.52411C107.486 5.10091 106.298 5.95398 105.384 6.54292C105.85 5.79625 106.343 5.03465 106.757 4.38878C106.967 4.36731 107.128 4.39998 107.191 4.52411H107.194ZM78.5897 20.6335C77.647 19.6824 76.9031 18.9311 76.7006 18.7435C75.6963 17.8101 74.2609 15.5132 74.2142 13.3087C74.189 12.0953 74.5875 11.0686 75.393 10.2538C77.3903 8.24251 78.5131 8.10718 80.7503 7.84678C81.3449 7.77678 82.0197 7.69745 82.8037 7.56678C85.1575 7.18785 92.9415 6.28158 97.8919 6.09118C97.674 6.5575 97.4897 7.03877 97.3403 7.53131C97.303 7.64611 97.2199 7.82905 97.1247 8.03998C96.7626 8.84452 96.1559 10.1867 96.5227 11.1144C96.6003 11.3099 96.7231 11.4842 96.8811 11.6231C96.9107 11.6861 96.9522 11.7429 97.0034 11.7901C94.9986 12.3371 91.4781 13.0436 90.611 13.1519C89.0869 13.3385 87.3658 13.5933 86.0069 13.8229C85.4375 13.9163 84.9979 13.9993 84.6545 14.0684C84.2093 14.1179 82.4845 14.4016 81.5595 14.9635L81.7583 15.2901C82.1989 15.0232 82.8419 14.8235 83.4234 14.6825C83.4477 14.7245 83.5494 14.8692 86.2486 16.762C87.1306 17.3817 87.7419 17.8036 88.1722 18.0911L83.2106 25.1032L83.2498 25.1853H83.1462C81.7845 23.86 79.8469 21.9028 78.5897 20.6335ZM44.6163 13.3955C47.2483 10.7028 50.4702 9.09558 53.2394 9.09558H53.2487C55.0753 9.09558 56.6517 9.76852 57.9331 11.0873C61.4154 14.6713 63.0861 17.4265 64.8547 20.3432C65.6014 21.5808 66.3695 22.8408 67.2935 24.2165L67.1871 26.0888C65.3205 26.3053 63.3371 26.5639 61.2502 26.8523C60.7891 26.3035 60.1881 25.4523 59.5095 24.4863C57.1193 21.0908 53.8461 16.4409 50.851 16.3383C47.9969 16.2449 45.6831 19.4183 44.1534 21.5276L43.8874 21.8925C43.8249 21.9775 43.7091 22.1361 43.5523 22.3527C39.0882 28.4893 37.9197 29.9351 37.7255 30.0676C37.7333 30.0632 37.7414 30.0595 37.7498 30.0564L37.8431 30.3364C35.5602 30.6696 33.3015 30.9897 31.0933 31.2884C34.7034 25.7929 39.7854 18.3393 44.6154 13.3955H44.6163Z" fill="black"/>
</svg>
