<svg width="140" height="140" viewBox="0 0 140 140" fill="none" xmlns="http://www.w3.org/2000/svg">
<path d="M118.826 101.993L118.848 101.868C121.782 101.717 133.391 102.894 133.342 99.2469C133.288 95.2411 129.18 90.1059 124.857 84.2632C124.942 84.2548 125.062 84.1223 125.361 83.8684C125.454 83.7853 124.272 82.3303 124.173 82.18C123.498 81.144 123.622 81.1533 123.012 81.6032C121.539 78.4784 125.83 76.972 124.01 71.9255C125.305 68.6971 122.424 65.8532 117.84 67.1384C117.28 66.9396 116.674 66.9452 116.378 67.4007C116.192 67.6928 115.678 67.2065 114.658 67.5276C113.943 67.7525 114.144 68.2155 113.705 68.6196C113.57 68.7447 112.636 69.2571 112.604 70.0784C112.205 70.4116 111.802 70.7719 111.391 71.1639C111.247 71.1399 111.102 71.1277 110.957 71.1275C109.584 71.1275 108.471 72.1672 108.471 73.4505C108.471 73.6992 108.514 73.9461 108.597 74.1804C108.52 74.2868 108.444 74.3941 108.37 74.5043L104.833 71.4719C104.966 75.0092 99.2181 78.0575 98.099 80.2359C98.0131 80.4048 97.9282 80.5681 97.8451 80.7287L92.5522 78.1153C91.0785 77.1419 87.655 74.7077 87.5841 74.5855C87.5827 74.5819 87.5827 74.5779 87.5841 74.5743L88.6891 74.2569C90.1003 73.9769 92.6007 73.5961 94.6335 73.3413C95.3858 73.248 99.6735 72.4155 101.612 71.8107C102.452 71.8788 103.964 71.4317 104.835 71.4681C105.913 71.5148 106.956 70.5647 107.344 69.6351C107.53 69.1945 108.097 68.2351 108.769 67.1505C109.768 66.514 111.817 65.3427 111.359 64.4336C111.244 64.2077 110.972 64.1601 110.636 64.2096C111.083 63.5133 111.449 62.9412 111.632 62.6397C112.664 60.9383 112.631 60.6797 111.513 60.7021C110.637 60.7171 108.778 60.7656 108.34 60.8328C107.747 60.9261 107.656 61.0055 106.753 62.16C106.652 62.2888 106.549 62.4238 106.445 62.5651H106.437C104.502 62.8796 103.848 62.9645 102.79 64.8527C102.533 65.31 102.354 65.6161 102.207 65.8905C97.1918 66.0501 89.0223 67.0105 86.7692 67.3773C83.0359 67.9775 81.8385 67.5108 79.2531 70.1139C76.4531 72.9344 79.0842 77.5077 80.5663 78.8788C81.061 79.3371 84.8522 83.2272 87.0614 85.3664C85.834 85.3291 84.575 85.2637 83.2795 85.1527C75.9193 84.5217 71.4943 83.9561 71.4943 83.9561L71.4831 84.1568C68.264 79.3744 67.019 76.0471 62.0667 70.9539C58.3007 67.0787 52.4655 69.1805 48.4765 73.262C43.5298 78.3244 38.3358 85.9889 34.7042 91.5311C27.0844 92.5484 20.021 93.2848 14.7308 93.2848C14.7308 93.6133 14.7252 93.9474 14.7168 94.2825C13.8722 94.3759 13.2562 94.4449 13.2562 94.4449C13.2051 94.6645 13.1329 94.8786 13.0406 95.0843C13.0844 94.5084 13.1059 94.1341 13.0919 94.1126C10.6214 90.3467 11.9178 83.7424 7.28565 83.8787C6.67525 83.8964 5.30885 100.947 5.03538 102.184C4.98871 102.55 12.2043 102.515 12.4087 102.216C12.4152 102.207 12.4712 101.638 12.5496 100.807C13.0294 100.844 13.6696 100.881 14.3612 100.918C14.3472 101.291 14.3398 101.648 14.3398 101.993H73.7772L73.7885 101.94L86.6684 101.733L118.826 101.993ZM122.059 93.3128C122.028 93.2941 120.946 93.2194 120.337 93.1793C120.354 93.0654 120.366 92.9861 120.371 92.9497C120.371 92.9497 115.278 90.7676 113.683 89.614C112.785 88.9629 111.838 88.3822 110.851 87.8771C112.475 86.1597 114.423 83.7172 116.039 81.6377C116.262 82.5897 117 83.3131 117.454 84.2865C117.499 84.3799 117.692 84.7112 117.972 85.1863C118.042 85.3113 118.129 85.4551 118.212 85.5895C119.438 87.6493 121.744 91.5124 122.226 92.8816C121.929 92.2143 121.666 91.6683 121.589 91.5656L122.312 93.2624C122.307 93.3921 122.23 93.4192 122.059 93.3128ZM50.9386 89.0885L53.7983 88.7292L50.8667 89.1753L50.9386 89.0885Z" fill="white"/>
<path d="M118.988 102.185L119.01 102.053C119.592 102.033 120.46 102.053 121.444 102.079C122.395 102.101 123.466 102.127 124.567 102.127C127.956 102.127 131.631 101.881 132.982 100.541C133.16 100.375 133.3 100.173 133.395 99.9494C133.49 99.7256 133.537 99.4844 133.533 99.2414C133.483 95.5276 130.08 90.9636 126.148 85.6782C125.814 85.2302 125.475 84.7738 125.136 84.3146C125.178 84.28 125.223 84.2399 125.277 84.1923C125.33 84.1447 125.403 84.0812 125.485 84.0112C125.658 83.8628 125.519 83.6519 125.212 83.2282C125.013 82.9482 124.759 82.6243 124.572 82.3882C124.46 82.2435 124.354 82.1082 124.333 82.0755C124.255 81.9551 124.187 81.8496 124.129 81.7563C123.862 81.3382 123.755 81.1646 123.552 81.1282C123.397 81.1002 123.272 81.1739 123.092 81.3055C122.605 80.0707 123.073 79.101 123.637 77.9343C124.368 76.4223 125.194 74.7106 124.214 71.9292C124.529 71.1135 124.601 70.2912 124.406 69.5147C124.07 68.1819 123.006 67.1953 121.479 66.808C120.359 66.528 119.131 66.5756 117.839 66.9359C117.639 66.8681 117.429 66.83 117.218 66.8229C116.77 66.8164 116.429 66.9788 116.218 67.3027C116.127 67.3092 116.037 67.3013 115.949 67.2793C115.502 67.1854 115.039 67.2082 114.604 67.3456C114.089 67.508 113.962 67.7992 113.85 68.0559C113.793 68.2158 113.7 68.3607 113.579 68.4796C113.566 68.4917 113.52 68.5244 113.479 68.5533C113.182 68.7652 112.499 69.2515 112.424 69.9897C112.06 70.2946 111.698 70.6188 111.337 70.9623C111.213 70.9458 111.089 70.9374 110.964 70.9371C109.488 70.9371 108.287 72.0655 108.287 73.4515C108.287 73.6878 108.323 73.9229 108.393 74.1487C107.355 75.5991 106.852 77.0542 106.905 78.4299C106.14 79.5406 106.305 80.8724 106.625 81.8832C106.452 82.1362 106.252 82.3975 106.025 82.685C105.745 83.0424 105.431 83.4466 105.124 83.9076L105.025 84.0579L98.1101 80.64L98.2743 80.3208C98.6635 79.563 99.6874 78.6502 100.771 77.6832C102.752 75.9174 104.988 73.9228 105.031 71.6586C106.115 71.5923 107.132 70.6496 107.523 69.7088C107.699 69.2851 108.255 68.3461 108.912 67.2887L109.154 67.1365C110.299 66.4188 112.03 65.3333 111.532 64.3487C111.481 64.2498 111.404 64.1664 111.309 64.1071C111.215 64.0477 111.106 64.0145 110.995 64.0108C111.357 63.4443 111.642 62.9991 111.798 62.7396C112.446 61.6719 112.703 61.138 112.511 60.8039C112.365 60.5491 112.021 60.5024 111.513 60.5117C110.783 60.5239 108.786 60.5715 108.313 60.6452C107.637 60.7497 107.514 60.8804 106.606 62.0452C106.52 62.1553 106.432 62.2711 106.342 62.3915C104.433 62.7004 103.718 62.8171 102.627 64.7621C102.527 64.9423 102.441 65.0981 102.359 65.2381C102.258 65.4145 102.172 65.5657 102.095 65.7048C96.9471 65.8775 88.7123 66.8733 86.743 67.1897C85.9665 67.3148 85.2963 67.3941 84.7055 67.4632C82.4534 67.7292 81.213 67.8748 79.1214 69.9832C78.2375 70.8727 77.8035 71.9946 77.8315 73.3162C77.8801 75.6327 79.3865 78.0482 80.4449 79.0235C80.6409 79.2046 81.3782 79.9568 82.3218 80.9023C84.3126 82.9127 85.6613 84.2623 86.5834 85.163C85.5166 85.1238 84.4265 85.0612 83.3046 84.9651C76.033 84.3426 71.5707 83.7751 71.5269 83.7695L71.4522 83.7602C70.6038 82.4834 69.8889 81.3046 69.1851 80.1444C67.4053 77.2082 65.7234 74.4343 62.2103 70.8195C60.8542 69.4195 59.1854 68.7148 57.2525 68.712H57.2422C54.3722 68.712 51.0477 70.3621 48.3457 73.1276C43.4102 78.1788 38.2237 85.821 34.5967 91.3547C26.9985 92.3692 20.0227 93.0926 14.7401 93.0926H14.5534V93.2839C14.5534 93.5564 14.5487 93.8318 14.5431 94.109C13.9178 94.1752 13.4427 94.2303 13.2953 94.248C13.2953 94.0614 13.2831 94.0334 13.2654 94.0072C12.3629 92.6334 11.9727 90.8778 11.5957 89.1791C10.9675 86.3548 10.3739 83.6846 7.43486 83.6846C7.38633 83.6846 7.34152 83.6846 7.28832 83.6846C7.05592 83.6911 6.85526 83.6976 6.30926 88.3335C6.00686 90.9095 5.68299 94.2135 5.42259 96.8726C5.16686 99.4859 4.94566 101.739 4.85699 102.14V102.157C4.84953 102.212 4.85699 102.35 5.05859 102.427C5.47579 102.584 7.16886 102.638 8.63232 102.638H8.99539C12.3769 102.616 12.5159 102.409 12.5757 102.32C12.5943 102.292 12.6121 102.265 12.7315 101.014C13.0871 101.04 13.5538 101.069 14.1707 101.101C14.1605 101.408 14.1549 101.706 14.1549 101.995V102.181H70.2725H70.4759H73.9293L73.9414 102.125L86.6637 101.922L118.988 102.185ZM12.9733 98.2063C13.1077 96.6934 13.1879 95.7358 13.2327 95.1263C13.3186 94.9098 13.3802 94.7446 13.4194 94.6195C13.7862 94.5766 14.1567 94.5346 14.5254 94.4954C14.489 95.6592 14.4097 96.8464 14.3313 98.0056C14.2678 98.953 14.2071 99.8639 14.1735 100.712C13.6425 100.683 13.1543 100.654 12.7567 100.627C12.8109 100.053 12.8799 99.2666 12.9733 98.2063ZM14.9165 94.0698C14.9165 93.871 14.9239 93.6731 14.9249 93.4752C20.1263 93.4584 26.9182 92.7594 34.313 91.7784L34.8142 91.7122C39.843 91.0392 45.1378 90.2403 50.3925 89.4414L50.9674 89.3536L51.8074 89.2248C53.2242 89.0089 54.6242 88.7964 56.0074 88.5874L56.4087 88.5267C59.4253 88.0712 62.341 87.64 65.0887 87.2592C65.1354 87.3115 65.1821 87.3619 65.2241 87.4067L65.4247 87.2135C67.4361 86.9335 69.3559 86.6871 71.1563 86.4771L70.7653 93.3735C69.8889 93.4939 65.3127 93.856 60.1253 94.2378L59.4981 94.2835C54.3563 94.6568 48.747 95.047 45.611 95.2318L45.0277 95.2654C44.1447 95.3148 43.5269 95.3428 43.2674 95.3428C39.9615 95.3428 36.1041 95.5164 32.1859 95.7292L31.7109 95.7554C30.5909 95.817 29.4615 95.8814 28.3434 95.942C25.4333 96.1082 22.4634 96.278 19.6718 96.3919L19.4851 96.3994L19.2938 96.4068C17.7221 96.4694 16.2138 96.5114 14.8045 96.5254C14.8465 95.8328 14.8819 95.1384 14.9025 94.4515C14.9025 94.3871 14.9025 94.3236 14.9025 94.2648L14.9165 94.0698ZM105.44 84.1148C105.739 83.665 106.036 83.2842 106.323 82.9146C106.484 82.7092 106.638 82.5114 106.779 82.3172C106.926 82.6924 107.105 83.054 107.315 83.398L107.328 83.3896C106.826 83.9076 106.504 84.84 106.22 85.9796C105.736 85.8633 105.248 85.7615 104.757 85.6744C104.761 85.408 104.823 85.1456 104.938 84.9054C105.101 84.6384 105.272 84.3734 105.443 84.1148H105.44ZM133.147 99.2488C133.152 99.4412 133.115 99.6322 133.04 99.8092C132.964 99.9862 132.852 100.145 132.711 100.276C131.031 101.932 125.036 101.787 121.451 101.7C120.704 101.681 120.064 101.666 119.543 101.666C119.373 101.666 119.217 101.666 119.076 101.666H118.969C119.006 101.353 119.08 100.738 119.174 99.9731C119.336 98.6599 119.556 96.9062 119.751 95.4866C119.879 94.5588 119.997 93.7739 120.08 93.3492H120.112L120.299 93.3623L120.491 93.3754C121.133 93.4183 121.831 93.4687 121.985 93.4883C122.031 93.5199 122.082 93.5419 122.137 93.5529C122.191 93.564 122.248 93.5639 122.302 93.5527C122.705 94.486 123.104 95.4716 123.149 95.7115L123.522 95.6424C123.468 95.3484 122.887 93.9242 122.394 92.8088C122.345 92.6688 122.276 92.499 122.184 92.2927C121.962 91.8008 121.612 91.1195 121.144 90.2674C120.422 88.9542 119.524 87.43 118.825 86.254C119.129 86.2139 119.43 86.1537 119.726 86.0739C121.147 85.7136 123.666 84.798 124.155 83.6911C124.27 83.8373 124.378 83.9893 124.478 84.1466C124.571 84.2884 124.634 84.3892 124.738 84.4266C125.111 84.924 125.474 85.4168 125.834 85.9012C129.733 91.1419 133.102 95.6602 133.15 99.2488H133.147ZM63.2837 95.6154C57.7229 95.9355 48.537 96.3807 44.2231 96.5487L43.6165 96.572C42.8213 96.6019 42.2557 96.6178 41.9999 96.6178C38.5821 96.6178 34.887 96.8418 31.3077 97.0602L31.1957 97.0667L30.8223 97.0891C27.0545 97.3187 23.1839 97.5464 19.6886 97.5026H19.4973H19.3059H19.2303C17.8303 97.4755 16.9558 97.6099 16.0243 97.7527C15.6183 97.8143 15.2002 97.8787 14.7177 97.9338C14.7401 97.5968 14.7634 97.2571 14.7849 96.9164C16.1998 96.9034 17.7202 96.8604 19.3013 96.7988L19.4879 96.7914L19.6793 96.783C22.4793 96.6691 25.4529 96.503 28.3686 96.3331C29.3953 96.2743 30.4219 96.2155 31.4486 96.1586L31.9246 96.1324C35.9379 95.9131 39.8915 95.7311 43.2683 95.7311C43.4233 95.7311 43.8993 95.7078 44.6207 95.6667L45.2106 95.6322C48.3102 95.4455 54.4973 95.0311 60.0385 94.6316L60.8281 94.5747C65.5461 94.2312 69.649 93.9102 70.7401 93.7683L70.6617 95.1608C70.2725 95.1963 69.7442 95.2019 69.341 95.2056C68.7138 95.2122 68.1211 95.2178 67.8187 95.299C67.6685 95.3391 66.7081 95.4119 65.239 95.5043C64.6687 95.5342 64.0089 95.5734 63.2865 95.6154H63.2837ZM89.9565 90.23C90.0899 90.23 90.2206 90.23 90.3522 90.2375C90.8795 90.2524 91.3901 90.2879 91.8707 90.3308C92.8927 90.4307 93.6375 90.3598 94.1882 90.1442C94.2762 90.1109 94.3619 90.0719 94.4449 90.0275C94.5175 89.99 94.588 89.9482 94.6558 89.9024C95.6059 89.2491 95.7487 87.9648 95.9307 86.3343C95.9597 86.073 95.9895 85.8023 96.0241 85.5232C96.0315 85.4598 96.0399 85.3954 96.0483 85.331C96.0567 85.2666 96.0661 85.204 96.0754 85.1396C96.1333 84.7262 96.2061 84.2996 96.3031 83.8619C96.414 83.3605 96.5596 82.8675 96.739 82.3863C96.9497 81.8256 97.2168 81.2877 97.5361 80.781C97.5575 80.7464 97.579 80.7119 97.6023 80.6774L97.6397 80.7026L97.9197 80.8892L97.8786 80.9536C97.5559 81.4579 97.2878 81.9951 97.0787 82.5562C96.7781 83.3917 96.5703 84.2577 96.459 85.1387C96.4497 85.2022 96.4403 85.2666 96.4319 85.3254L96.4067 85.5167C96.3703 85.8079 96.3386 86.0944 96.3069 86.3744C96.1361 87.9079 95.9858 89.2538 95.1103 90.035C95.0553 90.0844 94.9974 90.1283 94.9367 90.1759C94.8761 90.2235 94.7995 90.2692 94.7258 90.3131C94.093 90.6808 93.1783 90.8367 91.8325 90.7051C91.3425 90.6575 90.8207 90.622 90.2831 90.6118C90.1534 90.6118 90.0227 90.6062 89.8911 90.6052C87.5345 90.5903 84.9286 91.0122 83.2561 92.5998C81.4939 94.2723 81.3577 96.348 82.2443 97.3887C83.131 98.4294 85.1377 98.6954 88.1766 96.3835C88.9053 95.8188 89.7317 95.3929 90.6145 95.1272C90.7405 95.0899 90.8655 95.0572 90.9878 95.0274C93.2063 94.4982 95.4519 95.061 97.6453 95.6126C98.5319 95.8366 99.4037 96.0559 100.259 96.1968C100.473 96.2323 100.687 96.2631 100.899 96.2902C102.526 96.4768 104.072 96.3079 105.504 95.2402C108.054 93.338 107.643 91.5068 106.974 89.7242C106.944 89.643 106.912 89.5618 106.881 89.4796L106.787 89.2332L106.765 89.1763C106.558 88.676 106.38 88.1639 106.232 87.6428C106.132 87.2812 106.083 86.9073 106.087 86.5322C106.087 86.4687 106.093 86.4062 106.098 86.3455C106.104 86.2848 106.112 86.2139 106.123 86.1486C106.131 86.1019 106.139 86.0552 106.149 86.0067L106.21 86.0207L106.522 86.0888C106.512 86.1392 106.504 86.1896 106.496 86.24C106.486 86.3063 106.478 86.3726 106.475 86.4388C106.475 86.4864 106.475 86.5322 106.475 86.5816C106.467 87.3544 106.788 88.1767 107.128 89.0382C107.18 89.1698 107.232 89.3023 107.283 89.4358C107.314 89.516 107.344 89.5963 107.376 89.6766C107.408 89.7568 107.433 89.8343 107.461 89.9136C108.082 91.6748 108.352 93.604 105.744 95.5491C104.041 96.8194 102.222 96.9043 100.315 96.5982C100.099 96.5636 99.8834 96.5244 99.6613 96.4815C98.9715 96.3434 98.2715 96.1679 97.5613 95.9887C95.4519 95.4586 93.2931 94.9163 91.1782 95.3876C91.0513 95.4166 90.9234 95.4492 90.7955 95.4856C89.9317 95.7331 89.123 96.143 88.4127 96.6934C86.6543 98.0336 85.1983 98.5423 84.0755 98.5423C83.1235 98.5423 82.4114 98.1774 81.9569 97.6426C80.9685 96.4824 80.9974 94.2247 82.9957 92.3226C84.7709 90.6435 87.5083 90.2067 89.9593 90.23H89.9565ZM115.799 81.4296C115.806 81.4856 115.815 81.5407 115.827 81.5948C114.28 83.5828 112.39 85.9488 110.805 87.6419C109.461 86.9704 108.048 86.4445 106.592 86.073C106.872 84.9754 107.181 84.057 107.641 83.6164C107.728 83.6006 107.963 83.5735 108.211 83.5446C109.837 83.357 113.992 82.8744 115.801 81.4296H115.799ZM117.798 85.2712C117.859 85.3814 117.941 85.5176 118.044 85.6856L118.145 85.8555C118.197 85.9488 118.252 86.0356 118.307 86.128C118.316 86.1484 118.327 86.1673 118.341 86.184C119.05 87.3787 119.954 88.9066 120.714 90.2795C121.025 90.8395 121.267 91.295 121.456 91.6664L121.433 91.6851C121.501 91.7719 121.76 92.3226 122.056 92.9918C122.074 93.0468 122.087 93.0916 122.097 93.128C121.993 93.1056 121.682 93.0767 120.555 93.0011C120.555 92.9908 120.555 92.9815 120.555 92.974L120.573 92.8303L120.44 92.7734C120.39 92.7519 115.349 90.5866 113.789 89.4591C112.953 88.853 112.074 88.3075 111.16 87.8267C112.678 86.1999 114.439 84 115.959 82.0531C116.127 82.4974 116.389 82.8996 116.658 83.3112C116.89 83.6492 117.097 84.0032 117.279 84.3706C117.328 84.4667 117.496 84.7579 117.801 85.2712H117.798ZM123.293 77.7682C122.691 79.0132 122.119 80.1948 122.867 81.7367L122.823 81.747C122.83 81.7778 123.01 82.0606 123.229 82.3835C123.158 82.433 123.08 82.4936 122.991 82.5636C122.328 83.0798 120.778 84.2866 117.875 84.6422C117.745 84.4182 117.655 84.2623 117.629 84.2054C117.44 83.8212 117.223 83.4509 116.981 83.0975C116.674 82.6262 116.386 82.1838 116.249 81.6798C116.227 81.5993 116.21 81.5176 116.197 81.4352C116.182 81.3426 116.173 81.2491 116.169 81.1552C116.169 81.1011 116.169 81.046 116.169 80.99C116.169 80.9228 116.177 80.8538 116.185 80.7828C116.193 80.7119 116.204 80.6484 116.217 80.5794C116.309 80.1595 116.467 79.7568 116.683 79.3856C116.777 79.2176 117.088 78.9712 117.47 78.695L117.628 78.582L117.783 78.4728L117.964 78.3459C118.215 78.1704 118.484 77.9819 118.754 77.7859C118.883 77.6907 119.012 77.5933 119.14 77.4938L119.172 77.4695L119.314 77.3556C119.365 77.3155 119.414 77.2744 119.463 77.2343L119.541 77.168L119.608 77.1102C120.168 76.6248 120.662 76.0891 120.923 75.5142C121.057 75.232 121.125 74.923 121.121 74.6107C121.099 73.6904 121.401 73.1323 121.681 73.0025C121.735 72.9779 121.794 72.9688 121.852 72.9762C121.91 72.9836 121.965 73.0073 122.011 73.0446C122.012 73.0854 122.024 73.1252 122.045 73.16C122.066 73.1949 122.096 73.2236 122.132 73.2434C122.141 73.3544 122.146 73.4422 122.145 73.472C122.139 73.7334 122.121 73.9816 122.092 74.2187C122.064 74.4552 122.022 74.6898 121.967 74.9215C121.833 75.474 121.607 76.0002 121.3 76.4783L121.622 76.6846C122.066 75.994 122.351 75.2132 122.455 74.3988C122.482 74.2122 122.501 74.0106 122.514 73.8062C122.52 73.6998 122.525 73.5915 122.528 73.4804C122.528 73.3871 122.503 73.0558 122.466 72.6301C122.466 72.5984 122.461 72.5667 122.458 72.5368C122.535 72.3828 122.667 72.324 122.804 72.2634C122.848 72.2438 122.892 72.2232 122.934 72.1999C122.984 72.3128 123.027 72.4052 123.038 72.4425V72.4491C123.099 72.6357 123.15 72.8131 123.195 72.9886C123.24 73.164 123.274 73.3218 123.302 73.4842C123.302 73.4991 123.302 73.515 123.308 73.5299C123.338 73.7064 123.358 73.8843 123.37 74.0628C123.402 74.5641 123.359 75.0673 123.244 75.5562L123.617 75.643C123.815 74.7947 123.812 73.9119 123.608 73.0651C123.57 72.9002 123.526 72.7319 123.475 72.5602C123.455 72.4929 123.433 72.4248 123.411 72.3567C123.411 72.3474 123.405 72.338 123.402 72.3287C123.382 72.268 123.308 72.1019 123.206 71.8769V71.8667L123.212 71.8564C123.267 71.7599 123.34 71.6755 123.429 71.6081C123.459 71.5835 123.497 71.5697 123.537 71.5689C123.605 71.5689 123.711 71.6623 123.804 71.9152C123.87 72.0954 123.928 72.2708 123.979 72.4416C124.701 74.8534 123.956 76.3962 123.293 77.7682ZM108.688 74.3867C108.73 74.327 108.773 74.2672 108.818 74.2075C108.882 74.1226 108.946 74.0376 109.014 73.9527C109.778 72.9982 110.661 72.1448 111.641 71.4131C111.709 71.3618 111.773 71.3198 111.827 71.2731C111.881 71.2264 111.963 71.1797 112.014 71.1415C112.065 71.1032 112.119 71.0733 112.159 71.0481C112.301 70.9623 112.443 70.8826 112.583 70.8092C112.751 71.1141 112.972 71.3863 113.237 71.6128C113.186 71.7388 113.143 71.8573 113.112 71.9703C113.088 72.0552 113.069 72.1355 113.053 72.213C113.037 72.3146 113.028 72.4172 113.027 72.52C112.994 72.838 113.075 73.1571 113.254 73.4216C113.308 73.4971 113.371 73.566 113.441 73.627C113.496 73.6769 113.556 73.7221 113.618 73.7623C113.65 73.7819 113.681 73.8006 113.712 73.8174C113.898 74.6844 114.854 75.0382 115.374 75.2314C115.457 75.2622 115.555 75.2986 115.61 75.3247C115.716 76.0798 115.913 76.426 116.159 76.622C116.218 76.5866 116.28 76.553 116.346 76.5212C116.412 76.4867 116.481 76.454 116.551 76.4279H116.56C117.008 76.2379 117.498 76.1723 117.979 76.238C118.461 76.3037 118.916 76.4983 119.296 76.8012L119.347 76.8432L119.235 76.9366L119.2 76.9664C119.149 77.0084 119.098 77.0495 119.047 77.0906C118.645 76.7687 118.145 76.595 117.63 76.5987C117.425 76.5991 117.221 76.6255 117.022 76.6771C116.946 76.6969 116.87 76.7206 116.796 76.748C116.764 76.7602 116.73 76.7723 116.697 76.7863C116.665 76.8003 116.61 76.8264 116.566 76.8479C116.067 77.0845 115.667 77.4893 115.437 77.9912C115.317 78.2474 115.252 78.5259 115.245 78.8088C115.238 79.0917 115.29 79.373 115.397 79.6348C115.508 79.9004 115.675 80.1388 115.886 80.3339C115.867 80.4067 115.851 80.4776 115.838 80.5476C115.825 80.6176 115.813 80.6932 115.804 80.7632C115.796 80.8332 115.792 80.8836 115.788 80.9424C114.24 82.461 109.837 82.9734 108.173 83.1647C107.832 83.2039 107.66 83.2244 107.565 83.2431L107.644 83.1927C107.405 82.7908 107.208 82.3659 107.055 81.9243C107.51 81.2094 107.744 80.487 107.461 79.4976C107.016 77.9418 107.389 76.2851 108.567 74.5649C108.604 74.5071 108.646 74.4483 108.688 74.3867ZM54.0605 85.4271C54.3647 85.5671 55.1151 86.899 55.8245 88.2271L51.7579 88.845L51.3417 88.9075C52.4449 87.585 53.3997 86.366 54.0605 85.4271ZM54.4394 85.2516C54.4515 85.0575 54.2023 84.7728 53.3978 83.9226C53.0329 83.5362 52.4803 82.951 52.4346 82.8147L52.0613 82.8791C52.0958 83.0816 52.3954 83.4158 53.1234 84.1858C53.3782 84.4546 53.7254 84.8214 53.9186 85.0594C53.8571 85.0845 53.8044 85.1274 53.7674 85.1826C53.0114 86.2606 51.9474 87.6036 50.7751 88.9971C48.4418 89.3518 46.0954 89.7074 43.7686 90.0527C44.2138 89.586 45.4775 87.9704 49.5282 82.3994L49.8661 81.9327C50.1218 81.5846 50.3551 81.2383 50.5801 80.906C51.6898 79.2578 52.5662 77.9567 54.8939 77.9567C56.587 77.9567 59.1611 81.6658 61.0409 84.3743C61.8295 85.5102 62.5239 86.5116 63.0774 87.1547C60.8766 87.4692 58.5834 87.808 56.2295 88.1655C55.369 86.5583 54.8351 85.6371 54.4394 85.2516ZM63.5291 87.0931C62.9691 86.4892 62.2225 85.4066 61.3517 84.1587C59.3161 81.2262 56.7783 77.5768 54.8902 77.5768C52.359 77.5768 51.3855 79.0216 50.259 80.6951C50.0359 81.0264 49.8045 81.3699 49.5543 81.7124C49.4909 81.7983 49.3742 81.9588 49.2146 82.1791C44.7533 88.3111 43.5857 89.7568 43.3915 89.8894C43.3989 89.8843 43.4071 89.8805 43.4158 89.8782L43.4905 90.0947L42.0205 90.3112C42.3938 89.9584 43.5446 88.5118 47.8603 82.5795C48.0181 82.363 48.1329 82.2062 48.1954 82.1194L48.4623 81.7535C49.923 79.7431 52.121 76.72 54.7231 76.72H54.837C57.6417 76.8134 60.9839 81.564 63.195 84.7056C63.8063 85.5746 64.3561 86.3539 64.805 86.913C64.3831 86.9727 63.9585 87.0315 63.5291 87.0931ZM14.5422 101.119C14.5422 101.055 14.5422 100.992 14.5478 100.927C14.5534 100.862 14.5534 100.799 14.5553 100.74C14.5861 99.9768 14.6383 99.1648 14.6943 98.3211C15.2142 98.2632 15.6575 98.196 16.0859 98.1298C17.0398 97.9842 17.8639 97.8572 19.2266 97.8843H19.3115C19.375 97.8843 19.4394 97.8843 19.5029 97.8843H19.6895C23.1027 97.9272 26.8641 97.7126 30.5405 97.4895L31.0305 97.4596L31.2171 97.4475C34.8254 97.2272 38.5559 96.9995 41.9981 96.9995C42.1446 96.9995 42.5217 96.9883 43.0798 96.9687L43.7462 96.9435C48.2495 96.7671 59.9451 96.223 65.2586 95.8842C66.5419 95.802 67.4529 95.732 67.8001 95.6826C67.8416 95.6777 67.8827 95.6703 67.9233 95.6602C68.1781 95.592 68.7745 95.5864 69.3503 95.5808C69.8767 95.5808 70.3079 95.5678 70.6449 95.5388L70.6337 95.7432L70.6122 96.1231L70.2893 101.8H14.5273C14.5291 101.579 14.5347 101.352 14.5422 101.119ZM123.485 81.508C123.606 81.6485 123.714 81.8008 123.806 81.9626C123.865 82.0559 123.934 82.1632 124.013 82.2846C124.041 82.3275 124.116 82.4246 124.27 82.6224C124.497 82.9146 124.994 83.5558 125.14 83.805L125.023 83.9086C124.983 83.944 124.942 83.9795 124.907 84.0094C124.673 83.6933 124.439 83.3747 124.204 83.0536C124.111 82.7652 123.882 82.517 123.681 82.3228C123.674 82.3167 123.667 82.3111 123.66 82.306L123.634 82.2696C123.493 82.0765 123.367 81.8734 123.255 81.662C123.326 81.6032 123.403 81.5516 123.485 81.508ZM121.385 67.1785C122.769 67.5304 123.735 68.4161 124.034 69.6052C124.179 70.2078 124.16 70.8382 123.978 71.4308C123.931 71.3608 123.869 71.3022 123.797 71.2596C123.724 71.2169 123.642 71.1912 123.558 71.1844C123.531 71.1821 123.504 71.1821 123.477 71.1844C123.498 70.8885 123.462 70.6113 123.207 70.3668C122.725 69.9001 122.5 69.3784 122.301 68.9136C121.97 68.1399 121.657 67.4091 120.306 67.4091H120.229C120.038 67.4091 119.756 67.5024 119.482 67.5957C119.33 67.6496 119.174 67.6948 119.016 67.7311C118.849 67.5078 118.637 67.3218 118.394 67.1851C119.455 66.9545 120.464 66.9443 121.385 67.1785ZM106.972 79.0916C107.002 79.2644 107.041 79.4355 107.09 79.604C107.187 79.9043 107.221 80.2216 107.188 80.5356C107.156 80.8496 107.059 81.1534 106.903 81.4278C106.714 80.7016 106.647 79.8532 106.972 79.0916ZM100.52 77.4004C99.3607 78.4346 98.3593 79.3268 97.9374 80.1482L97.7703 80.4739L92.6697 77.9595C91.4377 77.1428 88.7114 75.2304 87.9349 74.6284C88.7823 74.3886 91.8138 73.892 94.6633 73.5355C95.1579 73.4739 97.1525 73.0987 99.0331 72.674C100.263 72.394 101.086 72.1803 101.646 72.0076C101.7 72.0076 101.755 72.0076 101.812 72.0076C102.24 72.0076 102.767 71.9199 103.305 71.8293C103.749 71.7446 104.199 71.6875 104.65 71.6586C104.6 73.7576 102.434 75.6934 100.52 77.4004ZM102.544 65.6945L102.695 65.4285C102.775 65.2876 102.864 65.1308 102.965 64.9507C103.894 63.294 104.449 63.0961 106.024 62.8329L106.292 62.7891L106.407 62.7695L106.476 62.7592L106.56 62.7471C106.717 62.7236 106.876 62.7114 107.035 62.7107C107.621 62.7107 107.938 62.8973 107.982 63.0672C108.045 63.3155 107.625 63.7551 106.555 64.1331C106.513 64.1474 106.473 64.1679 106.436 64.1937C106.149 64.2096 105.822 64.2329 105.503 64.2628C105.42 64.2703 105.337 64.2787 105.256 64.288C105.174 64.2973 105.09 64.3067 105.009 64.316C104.77 64.3436 104.532 64.3835 104.297 64.4355C104.267 64.4415 104.239 64.4536 104.214 64.4711C104.189 64.4886 104.167 64.5111 104.152 64.5372C104.174 64.4995 104.211 64.4721 104.253 64.4607L104.29 64.8415C104.335 64.8391 104.38 64.825 104.418 64.8004C104.512 64.7799 104.614 64.7603 104.733 64.7416C104.811 64.7295 104.894 64.7173 104.982 64.7061C105.07 64.6949 105.146 64.6856 105.231 64.6753C105.846 64.6044 106.463 64.5649 107.081 64.5568C107.455 64.5745 107.548 64.6333 107.565 64.6735C107.618 64.7929 107.481 65.4052 106.911 65.6619C106.767 65.7272 106.651 65.7776 106.557 65.8187C106.419 65.8364 106.183 65.8607 105.941 65.8859L105.709 65.9092C105.171 65.9643 104.698 66.0137 104.35 66.0585L104.264 66.0697L104.103 66.0931C103.999 66.1089 103.916 66.1248 103.853 66.1397L103.808 66.1509C103.774 66.1599 103.739 66.167 103.704 66.1724C103.469 66.2128 103.238 66.2772 103.016 66.3647L103.158 66.7193C103.295 66.6649 103.435 66.6215 103.578 66.5896C103.653 66.5719 103.72 66.5597 103.775 66.5495L103.83 66.5383C103.859 66.5333 103.887 66.5268 103.915 66.5187C103.973 66.5036 104.031 66.4918 104.09 66.4832C104.452 66.4225 105.186 66.3479 105.748 66.29L105.904 66.2741L106.097 66.2545C106.115 66.2887 106.141 66.3179 106.173 66.3395L106.179 66.3441C106.178 66.435 106.153 66.524 106.108 66.6027C106.084 66.6549 106.055 66.7147 106.014 66.7893C105.933 66.9217 105.82 67.0315 105.685 67.1085C105.643 67.1353 105.6 67.1599 105.555 67.1823C105.453 67.2344 105.348 67.2797 105.24 67.3176C105.14 67.354 105.041 67.3857 104.948 67.4109C104.455 67.3997 103.792 67.6657 103.242 67.8935L103.181 67.9187L102.948 68.012C102.843 68.0549 102.744 68.0923 102.668 68.1165C102.633 68.1291 102.597 68.1381 102.56 68.1436H102.516L102.447 68.1837L102.541 68.3415L102.584 68.418L102.592 68.5225C102.612 68.5225 102.635 68.5169 102.659 68.5123C102.752 68.4917 102.843 68.4636 102.931 68.4283C103.04 68.3872 103.171 68.3349 103.33 68.2677C103.626 68.1455 103.984 67.9961 104.319 67.8944C104.345 67.9343 104.382 67.9665 104.425 67.9877C104.62 68.0895 104.612 68.18 104.612 68.2183C104.556 68.7475 102.888 69.6985 102.537 69.7956C102.21 69.8896 101.911 70.0605 101.664 70.294C101.498 70.4415 101.373 70.6287 101.299 70.8381C101.282 70.8987 101.275 70.9619 101.279 71.0248C101.28 71.0471 101.283 71.0693 101.288 71.0911C101.251 71.1953 101.235 71.3056 101.24 71.4159C101.201 71.3892 101.164 71.3599 101.128 71.3281C101.078 71.2807 101.032 71.2278 100.993 71.1704C100.949 71.109 100.912 71.0425 100.884 70.9725C100.577 70.1988 101.142 68.9463 101.479 68.1977C101.584 67.9672 101.666 67.7852 101.71 67.6499C101.968 66.8584 102.117 66.4925 102.334 66.0763C102.392 65.9596 102.461 65.8345 102.541 65.6945H102.544ZM111.194 64.5241C111.486 65.1009 110.298 65.954 109.384 66.5429C109.85 65.7963 110.343 65.0347 110.757 64.3888C110.967 64.3673 111.128 64.4 111.191 64.5241H111.194ZM82.5897 80.6335C81.647 79.6824 80.9031 78.9311 80.7006 78.7435C79.6963 77.8102 78.2609 75.5132 78.2142 73.3087C78.189 72.0954 78.5875 71.0687 79.393 70.2539C81.3903 68.2425 82.5131 68.1072 84.7503 67.8468C85.3449 67.7768 86.0197 67.6975 86.8037 67.5668C89.1575 67.1879 96.9415 66.2816 101.892 66.0912C101.674 66.5575 101.49 67.0388 101.34 67.5313C101.303 67.6461 101.22 67.8291 101.125 68.04C100.763 68.8445 100.156 70.1867 100.523 71.1144C100.6 71.3099 100.723 71.4843 100.881 71.6231C100.911 71.6862 100.952 71.7429 101.003 71.7901C98.9986 72.3371 95.4781 73.0436 94.611 73.1519C93.0869 73.3386 91.3658 73.5934 90.0069 73.823C89.4375 73.9163 88.9979 73.9994 88.6545 74.0684C88.2093 74.1179 86.4845 74.4016 85.5595 74.9635L85.7583 75.2902C86.1989 75.0232 86.8419 74.8235 87.4234 74.6826C87.4477 74.7246 87.5494 74.8692 90.2486 76.762C91.1306 77.3818 91.7419 77.8036 92.1722 78.0911L87.2106 85.1032L87.2498 85.1854H87.1462C85.7845 83.86 83.8469 81.9028 82.5897 80.6335ZM48.6163 73.3955C51.2483 70.7028 54.4702 69.0956 57.2394 69.0956H57.2487C59.0753 69.0956 60.6517 69.7685 61.9331 71.0874C65.4154 74.6714 67.0861 77.4266 68.8547 80.3432C69.6014 81.5808 70.3695 82.8408 71.2935 84.2166L71.1871 86.0888C69.3205 86.3054 67.3371 86.5639 65.2502 86.8523C64.7891 86.3035 64.1881 85.4523 63.5095 84.4863C61.1193 81.0908 57.8461 76.441 54.851 76.3383C51.9969 76.245 49.6831 79.4183 48.1534 81.5276L47.8874 81.8926C47.8249 81.9775 47.7091 82.1362 47.5523 82.3527C43.0882 88.4894 41.9197 89.9351 41.7255 90.0676C41.7333 90.0632 41.7414 90.0595 41.7498 90.0564L41.8431 90.3364C39.5602 90.6696 37.3015 90.9898 35.0933 91.2884C38.7034 85.793 43.7854 78.3394 48.6154 73.3955H48.6163Z" fill="black"/>
</svg>
