<svg width="60" height="60" viewBox="0 0 60 60" fill="none" xmlns="http://www.w3.org/2000/svg">
<g clip-path="url(#clip0)">
<path d="M29.489 0.00256348V60C46.3411 60 60 46.5715 60 30.0038C60 13.4361 46.3411 0.00256348 29.489 0.00256348Z" fill="#001A58"/>
</g>
<path d="M5.24552e-06 29.9962C8.14276e-06 46.5639 13.4302 59.9923 29.9999 59.9923L29.9999 -5.24453e-06C13.4301 -2.34783e-06 2.34827e-06 13.4285 5.24552e-06 29.9962Z" fill="#E09800"/>
<mask id="mask0" mask-type="alpha" maskUnits="userSpaceOnUse" x="30" y="1" width="30" height="61">
<path d="M30 1.01941L30 61.0168C46.5698 61.0168 59.9999 47.5884 59.9999 31.0207C59.9999 14.453 46.5698 1.01941 30 1.01941Z" fill="#001A58"/>
</mask>
<g mask="url(#mask0)">
<path d="M37.4344 33.4421C40.7748 33.4421 41.6054 33.4421 42.6003 33.4421M37.4343 38.6825L47.7661 38.6825M45.8302 18.3381L45.8302 26.1667L52.8745 26.1667" stroke="white" stroke-width="2.5"/>
<path d="M34.1299 44.5397L34.1299 19.0552L34.1299 18.099L47.5947 18.099L53.5791 25.7483L53.5791 44.5397L34.1299 44.5397Z" stroke="white" stroke-width="2.5"/>
</g>
<path d="M15.0001 42.4627C21.1787 42.4627 26.1875 37.4546 26.1875 31.2768C26.1875 25.0989 21.1787 20.0908 15.0001 20.0908C8.8215 20.0908 3.81274 25.0989 3.81274 31.2768C3.81274 37.4546 8.8215 42.4627 15.0001 42.4627Z" stroke="white" stroke-width="2.5" stroke-miterlimit="10"/>
<path d="M15.061 24.1447V34.02" stroke="white" stroke-width="2.5" stroke-miterlimit="10"/>
<path d="M15.0307 37.83C15.4347 37.83 15.7623 37.5025 15.7623 37.0985C15.7623 36.6945 15.4347 36.3669 15.0307 36.3669C14.6266 36.3669 14.2991 36.6945 14.2991 37.0985C14.2991 37.5025 14.6266 37.83 15.0307 37.83Z" fill="white" stroke="white" stroke-width="2.5" stroke-miterlimit="10"/>
<defs>
<clipPath id="clip0">
<rect width="30.511" height="59.9974" fill="white" transform="translate(29.489 0.00256348)"/>
</clipPath>
</defs>
</svg>
